/* XPM */
static char *result[] = {
/* columns rows colors chars-per-pixel */
"32 32 209 2 ",
"   c #473A1F",
".  c #6C5D1D",
"X  c #76621B",
"o  c #684A2C",
"O  c #704F23",
"+  c #765827",
"@  c #705439",
"#  c #7D6229",
"$  c #7C6C3D",
"%  c #786136",
"&  c #645341",
"*  c #745D49",
"=  c #7E704B",
"-  c #6B6256",
";  c #7D6B5C",
":  c #797052",
">  c #796C42",
",  c #977C0F",
"<  c #85691B",
"1  c #8D7219",
"2  c #987C14",
"3  c #947B18",
"4  c #815A2A",
"5  c #8F6829",
"6  c #9B6A2D",
"7  c #8E7926",
"8  c #8A7326",
"9  c #9C7A2D",
"0  c #977727",
"q  c #847134",
"w  c #8A753A",
"e  c #9C7832",
"r  c #AE7C2A",
"t  c #A07425",
"y  c #B37F28",
"u  c #B17E34",
"i  c #8C7D48",
"p  c #867844",
"a  c #827966",
"s  c #9E8116",
"d  c #A3830F",
"f  c #BD980D",
"g  c #A88918",
"h  c #B89615",
"j  c #B2871A",
"k  c #9D8424",
"l  c #9B8837",
"z  c #A48D2C",
"x  c #A98625",
"c  c #BF8C23",
"v  c #B98727",
"b  c #A78836",
"n  c #B68233",
"m  c #BC8A32",
"M  c #B98531",
"N  c #B8903B",
"B  c #CA991C",
"V  c #C5A00D",
"C  c #D2AC0C",
"Z  c #DCB309",
"A  c #C8A315",
"S  c #DAA815",
"D  c #DBB513",
"F  c #E1B50B",
"G  c #E8BB09",
"H  c #F0BF0D",
"J  c #E5B312",
"K  c #ECBC14",
"L  c #E3B11D",
"P  c #E9B81A",
"I  c #C29423",
"U  c #CB9C28",
"Y  c #D39F2E",
"T  c #C59434",
"R  c #CC9631",
"E  c #CD9A33",
"W  c #CF9E3C",
"Q  c #C79D30",
"!  c #D19E38",
"~  c #CDAD21",
"^  c #C9A62F",
"/  c #D5A22B",
"(  c #DAA926",
")  c #D6B521",
"_  c #DDBB22",
"`  c #DAB32D",
"'  c #D3A139",
"]  c #D7A939",
"[  c #E1AD21",
"{  c #E4BB21",
"}  c #E6B928",
"|  c #E2B638",
" . c #EEC106",
".. c #FDCC03",
"X. c #FCCD0B",
"o. c #F8C809",
"O. c #FDD10F",
"+. c #EEC211",
"@. c #FACD12",
"#. c #F7CC18",
"$. c #FCD113",
"%. c #FCD21C",
"&. c #F6D01A",
"*. c #E9C02E",
"=. c #F6CF28",
"-. c #FBD522",
";. c #F9D528",
":. c #EECA33",
">. c #EAC53A",
",. c #FBDB34",
"<. c #FCDD3B",
"1. c #F7D437",
"2. c #968444",
"3. c #9A8945",
"4. c #93865B",
"5. c #988853",
"6. c #AF9D44",
"7. c #B39747",
"8. c #938969",
"9. c #998C65",
"0. c #9C9068",
"q. c #8A8677",
"w. c #999278",
"e. c #B6A66E",
"r. c #CAA844",
"t. c #C3A24A",
"y. c #D3A647",
"u. c #DBB049",
"i. c #D6AD56",
"p. c #D5AD59",
"a. c #DFBA5C",
"s. c #CBB351",
"d. c #E4BC46",
"f. c #E1BD59",
"g. c #E0BA56",
"h. c #DAC64E",
"j. c #EBC94F",
"k. c #EAC546",
"l. c #F0CC4D",
"z. c #F5D342",
"x. c #FBDA44",
"c. c #F5DA4C",
"v. c #EDCC52",
"b. c #E7C558",
"n. c #FCDD53",
"m. c #F5D858",
"M. c #FAE34C",
"N. c #FBE145",
"B. c #FAE25D",
"V. c #F9E657",
"C. c #D4C46D",
"Z. c #E4C163",
"A. c #E6D475",
"S. c #F9DE70",
"D. c #F2D66B",
"F. c #FCE461",
"G. c #FBEA63",
"H. c #FCE16F",
"J. c #FCE578",
"K. c #8B8581",
"L. c #9B9689",
"P. c #9C9A95",
"I. c #A29E93",
"U. c #A19F9B",
"Y. c #AAA590",
"T. c #ADABA8",
"R. c #B2AEA3",
"E. c #BDBBB5",
"W. c #BFBCB8",
"Q. c #BDB6B1",
"!. c #D7C686",
"~. c #D5C098",
"^. c #E2C781",
"/. c #ECDA8D",
"(. c #E5CC98",
"). c #EBDC91",
"_. c #FBE689",
"`. c #F9E68A",
"'. c #FBE994",
"]. c #DBCFB3",
"[. c #E4D3A3",
"{. c #E8D3A3",
"}. c #E5D9B4",
"|. c #FCECA5",
" X c #FCF2A6",
".X c #F0E5B2",
"XX c #FEF3BC",
"oX c #C8C6C3",
"OX c #CBCAC7",
"+X c #CBCBC9",
"@X c #C1C1C2",
"#X c #D0D0CF",
"$X c #D4D4D2",
"%X c #DBDBD5",
"&X c #DFDFDE",
"*X c #F1E5CC",
"=X c #FBF2C7",
"-X c #E0E0DD",
";X c #FDF6D3",
":X c #FDF9D8",
">X c #E4E4E3",
",X c #EBEBEB",
"<X c #E7E8E7",
"1X c #FDFBEB",
"2X c #F7F5E8",
"3X c #F2F2F0",
"4X c #FCFCF4",
"5X c #FEFFFE",
"6X c None",
/* pixels */
"6X6X6X6X6X6X6X6X>XP.+X6X6X6X6X6X6X6X6X6X6X6X6X6X6X6X6X6X6X6X6X6X",
"6X6X6X6X6X6X6XoX2.!.7.I.6X6X6X6X<X>X6X6X6X6X6X6X6X6X6X6X6X6X6X6X",
"6X6X6X6X6X6X6X2.>.*X<.b @X6X6X+Xi 8.T.6X6X6X6X6X6X6X6X6X6X6X6X6X",
"6X6X6X6X6X6XL._ d.2Xn.>.p 3X-X8 Z.`.b oX6X6X6X6X6X6X6X6X6X6X6X6X",
"6X6X6X6X6X6X7 x.] 4XH.1.c E.8.=.A.|.:.$ 6X6X6X6X6X6X6X6X6X6X6X6X",
"6X6X6X6X6XT.F n.' 5X_.O.b.> g m.(.=X@.^ T.6X6X6X6X6X6X6X6X6X6X6X",
"6X6X6X6X6X9.O.m.W 5X X..b.s ~ v.(.;XX.d.5.6X6X6X6X6X6X6X6X6X6X6X",
"6X6X6X6X-Xk -.m.W 5XXX..j._ l k.{.2X..f.g >X6X6X6X6X6X6X6X6X6X6X",
"6X6X6X6XE.f <.v.y.5X;X..z.} l d.{.4XX.m.A P.6X6X6X6X6X6X6X6X6X6X",
"6X6X6X6XY.F N.v.W 5X1X..1.| k d.{.5X@.m.} a 6X6X6X6X6X6X6X6X6X6X",
"6X6X6X6X8.X.x.l.W 5X1X..1.u.g y.{.5XO.<.| p 6X6X6X6X6X6X6X6X6X6X",
"6X6X6X6Xq C h.s.N -X%XZ ` 7.d + ~.>X*.P t.8 -X6X6X6X6X6X6X6X6X6X",
"6X6X6X6Xz ..B.v.y.5X5XX.-.i.Z + }.5X,...g.f $X6X6X6X6X6X6X6X6X6X",
"6X6X6XI.C $.F.d.i.5X5X%.X.g.K 1 ].5Xm...f.J = 6X6X6X6X6X6X6X6X6X",
"6X6X6X$ ..,.B.] i.5X5Xx...D.( C W.5X_...j.L 3 6X6X6X6X6X6X6X6X6X",
"6X6X6Xq ..<.B.! p.5X5Xn...S.( Z W.5X_...v.L 3 6X6X6X6X6X6X6X6X6X",
"6X6X6Xq ..<.B.! p.5X5Xn...S.( Z W.5X`.G r.0 X -X<X6X6X6X6X6X6X6X",
"6X6X6Xq ..<.B.' p.5X5Xm.F s.9 2 p 5.k h V Z C k z b 0.E.6X6X6X6X",
"6X6X6Xq ..<.B.! i.5XOXw 5 O O 2  ...$.%.,.n.J.|.[./.`.e.q.3X6X6X",
"6X6X6Xq ..<.F.' p.I.g o.$.&.K x + C. X;X1X5X5X1X=X!.`.J.D.L.6X6X",
"6X6X6Xq ..<.B.' e V N.M.G.B.<.$.c @ -X5X=XJ.x.%...+./ / / 4.3X6X",
"6X6X6Xq ..<.B.T 1 X.x.1.} z.V.<...x % =...o.K L / Q M ^ k.w.6X6X",
"6X6X6Xq ..<.B.b g ..+.T m R } ....S 4 B [ / E R R ' Q k.).Y.6X6X",
"6X6X6Xq ..<.n.9 ) -.Y x S r R X.....6 5 E E E u.v.B.A.=Xw ,X6X6X",
"6X6X6Xq ..<.F.9 _ M.m F ..H y [ -.$.v + ] j.B.G._.;X}.6.W.6X6X6X",
"6X6X6Xq ..<.B.e ~ V.T S ....u ` G.;.I 5 G.J. X2X1X.X2.R.6X6X6X6X",
"6X6X6Xq ..<.B.b g M.] v F U M } M.O.I 5.XX1X1X'.1.8 +X6X6X6X6X6X",
"6X6X6X- 2 z 6.0 X ,.z.U u M Y 1.M...6 Q.;XJ.#.A 2.$X6X6X6X6X6X6X",
"6X6X6X& r j d d < C V.=.P } c.G.<.J 4 :.+.3 8.+X6X6X6X6X6X6X6X6X",
"6X6X6XK.; * @ o o   ) ....@.G.,.@.0 1 l P.>X6X6X6X6X6X6X6X6X6X6X",
"6X6X6X6X6X,X&X%X#XOXw.h H ..&.F 0 - R.>X6X6X6X6X6X6X6X6X6X6X6X6X",
"6X6X6X6X6X6X6X6X6X6X6X#Xq.= : q.#X6X6X6X6X6X6X6X6X6X6X6X6X6X6X6X"
};
