/* XPM */
static char *result[] = {
/* columns rows colors chars-per-pixel */
"19 19 80 1 ",
"  c #B17B7D",
". c #C6862B",
"X c #C48636",
"o c #D8A13D",
"O c #E0AC3C",
"+ c #D09840",
"@ c #C58F5A",
"# c #C59053",
"$ c #D5A44C",
"% c #DFAE48",
"& c #D7A752",
"* c #DBAE56",
"= c #D9B25F",
"- c #E6B644",
"; c #E9BC49",
": c #E2B351",
"> c #C38E64",
", c #CB9965",
"< c #C2907A",
"1 c #C69A78",
"2 c #CEA063",
"3 c #CFA46E",
"4 c #D9B067",
"5 c #E9C056",
"6 c #EDC554",
"7 c #EAC058",
"8 c #E9C362",
"9 c #E7C168",
"0 c #E5C16F",
"q c #E9C36A",
"w c #E7C86E",
"e c #EAC86C",
"r c #EBC86F",
"t c #EACB6F",
"y c #F0CF68",
"u c #F5D66B",
"i c #E6C670",
"p c #E4C577",
"a c #E3C078",
"s c #E7CB7E",
"d c #E8C979",
"f c #ECCE7A",
"g c #EFD375",
"h c #EFD678",
"j c #EFD37F",
"k c #F1D87E",
"l c #FAE177",
"z c #BC9F84",
"x c #C49883",
"c c #CDA283",
"v c #D3B085",
"b c #D9B781",
"n c #DBBB84",
"m c #DBBE86",
"M c #E7CB85",
"N c #E3C28E",
"B c #E7CC89",
"V c #E8CC8C",
"C c #ECD181",
"Z c #F6DC82",
"A c #F4DD8C",
"S c #E4C791",
"D c #E8CB95",
"F c #ECD49B",
"G c #F0DA93",
"H c #F1D997",
"J c #F2DE99",
"K c #FAE583",
"L c #F8E38A",
"P c #FBE788",
"I c #F6E296",
"U c #F7E494",
"Y c #EDDAA5",
"T c #EBD5A8",
"R c #EEDDAD",
"E c #F4E1A4",
"W c #F9EAA5",
"Q c #FAEBB0",
"! c #F8ECBB",
"~ c None",
/* pixels */
"~~~~~~~~~~~BwhW~~~~",
"~~~~~~~~~~pisAKL~~~",
"~~~~~~~~~Ytm~~Vu~~~",
"~~~~~~~~~Gk~~~~8H~~",
"~~~~~~~~~JP~~~~5D~~",
"~~~~~~~~~RlI~~r-~~~",
"~~~~~~~~~~dy6;:>~~~",
"~~~~~~~~~C=1c< ~~~~",
"~~~~~~~~!gv~~~~~~~~",
"~~~~~~~Qjb~~~~~~~~~",
"~~~~~~E92~~~~~~~~~~",
"~~~~~F*3~~~~~~~~~~~",
"~~~~Te#~~~~~~~~~~~~",
"~~~Sq$n~~~~~~~~~~~~",
"~~N%+&ZU~~~~~~~~~~~",
"~~o.X70fM~~~~~~~~~~",
"~~~x@Oa~~~~~~~~~~~~",
"~~~~~,4~~~~~~~~~~~~",
"~~~~~~z~~~~~~~~~~~~"
};
