/* XPM */
static char *result[] = {
/* columns rows colors chars-per-pixel */
"19 19 173 2 ",
"   c #5D482F",
".  c #5D472E",
"X  c #5E4A32",
"o  c #604D34",
"O  c #584531",
"+  c #5F4C33",
"@  c #5E4930",
"#  c #5F4B32",
"$  c #5E4A31",
"%  c #594531",
"&  c #5F4C34",
"*  c #5C4933",
"=  c #5A442E",
"-  c #57432F",
";  c #604E35",
":  c #64533A",
">  c #604E38",
",  c #65533C",
"<  c #635239",
"1  c #645339",
"2  c #655339",
"3  c #63513A",
"4  c #63533A",
"5  c #65523A",
"6  c #604E36",
"7  c #57422E",
"8  c #615037",
"9  c #615138",
"0  c #6D573F",
"q  c #6B563E",
"w  c #715946",
"e  c #705944",
"r  c #715945",
"t  c #715941",
"y  c #6C573E",
"u  c #705943",
"i  c #705945",
"p  c #6E583C",
"a  c #69553B",
"s  c #604E34",
"d  c #56412D",
"f  c #59432D",
"g  c #5D4A33",
"h  c #6A563D",
"j  c #6F5A3F",
"k  c #806852",
"l  c #866D56",
"z  c #856C55",
"x  c #705A40",
"c  c #6C573C",
"v  c #5E4C35",
"b  c #5A452F",
"n  c #55412E",
"m  c #5A442D",
"M  c #5F4E36",
"N  c #6E5744",
"B  c #725C44",
"V  c #937963",
"C  c #AE957D",
"Z  c #AF957D",
"A  c #B1977F",
"S  c #AE947C",
"D  c #B0967E",
"F  c #9B8069",
"G  c #755E47",
"H  c #56422E",
"J  c #5E4931",
"K  c #625138",
"L  c #6F5846",
"P  c #735C42",
"I  c #967C65",
"U  c #B9A188",
"Y  c #BDA48B",
"T  c #BCA38A",
"R  c #BBA289",
"E  c #9F866E",
"W  c #765E47",
"Q  c #6C5742",
"!  c #5B442C",
"~  c #624F37",
"^  c #735C40",
"/  c #765E49",
"(  c #5D4830",
")  c #59442F",
"_  c #6A553D",
"`  c #705B41",
"'  c #735D44",
"]  c #5F4E38",
"[  c #594631",
"{  c #55422F",
"}  c #615038",
"|  c #6D5744",
" . c #735C46",
".. c #6C5741",
"X. c #614F36",
"o. c #735C47",
"O. c #765E4B",
"+. c #6E5844",
"@. c #584631",
"#. c #5C4831",
"$. c #615139",
"%. c #6C5640",
"&. c #725C43",
"*. c #5D4931",
"=. c #574431",
"-. c #624F38",
";. c #6F5841",
":. c #755E46",
">. c #6E5840",
",. c #625039",
"<. c #5D4932",
"1. c #56412E",
"2. c #5B422A",
"3. c #735C45",
"4. c #B9A087",
"5. c #BAA188",
"6. c #9F856D",
"7. c #6E5845",
"8. c #5B452E",
"9. c #604C34",
"0. c #6D573D",
"q. c #90755F",
"w. c #A38A72",
"e. c #A38971",
"r. c #A48A72",
"t. c #A28971",
"y. c #A38972",
"u. c #A48B73",
"i. c #967C64",
"p. c #755D44",
"a. c #6E583F",
"s. c #615039",
"d. c #5E4B33",
"f. c #56432F",
"g. c #5B4731",
"h. c #67543B",
"j. c #6E5941",
"k. c #79614A",
"l. c #7E654F",
"z. c #7E654D",
"x. c #7E654E",
"c. c #7E654C",
"v. c #7C644E",
"b. c #7C644D",
"n. c #6E5942",
"m. c #69553C",
"M. c #5C4932",
"N. c #5A4630",
"B. c #564330",
"V. c #604F36",
"C. c #68553C",
"Z. c #68543C",
"A. c #705843",
"S. c #6F5845",
"D. c #6F5844",
"F. c #715940",
"G. c #6B563C",
"H. c #6D573E",
"J. c #635139",
"K. c #5D4B37",
"L. c #64523B",
"P. c #64523A",
"I. c #645139",
"U. c #5F4C37",
"Y. c #634F38",
"T. c #635038",
"R. c #63503A",
"E. c #5E4A34",
"W. c #5F4B33",
"Q. c #5B4730",
"!. c #5B4832",
"~. c #5B4831",
"^. c #5A462F",
/* pixels */
"  . X o O + @ # $ % & # o * = .   @ - ",
"o ; ; : > , < 1 2 3 < 1 4 5 6 + + & 7 ",
"+ 8 9 0 q w e r t y u i i p a s ; + d ",
"f g h j k l l l l l l l l z x c v b n ",
"m M N B V C Z A S S A D D F G q & m H ",
"J K L P I U Y Y Y T Y Y R E W Q @ ! - ",
"@ ~ 0 ^ I R Y Y Y Y Y Y R E / u ~ ( 7 ",
") M _ ` I R Y Y Y Y Y Y R E ' y ] [ { ",
"# } |  .I R Y Y Y Y Y Y R E W ..9 X O ",
"$ X...o.I R Y Y Y Y Y Y R E O.+.; # @.",
"#.$.%.&.I R Y Y Y Y Y Y R E G ..6 *.=.",
"m -.;.&.I R Y Y Y Y Y Y R E :.>.,.<.1.",
"2.o L 3.I R Y Y Y Y Y Y R E / L o + 7 ",
"$ + L 3.I 4.Y Y T R Y Y 5.6.W 7.8 ; - ",
"8.9.0.B q.w.e.r.t.t.r.y.u.i.p.a.s.d.f.",
"g.v h.j.k.l.z.x.c.v.x.x.z.b.n.m.M.N.B.",
"$ V.X.C.Z.A.S.D.F.G.;.S.D.H.h.8 8 @ d ",
"X V.# J.K.L.P.3 I.U.Y.T.P.R.E.W.; $ - ",
"Q.!.f Q.B.g.M.g.M.=.= b ~.[ - = ^.^.B."
};
