/* XPM */
static char *result[] = {
/* columns rows colors chars-per-pixel */
"19 19 113 2 ",
"   c #32271B",
".  c #322A1D",
"X  c #332B20",
"o  c #3A2F20",
"O  c #3C3322",
"+  c #413522",
"@  c #443924",
"#  c #464431",
"$  c #4C4934",
"%  c #514D37",
"&  c #534F39",
"*  c #595237",
"=  c #535238",
"-  c #58543A",
";  c #5F5644",
":  c #5E5942",
">  c #615C44",
",  c #6B5D44",
"<  c #665A48",
"1  c #626246",
"2  c #67634D",
"3  c #6B6349",
"4  c #65694B",
"5  c #6B694C",
"6  c #726549",
"7  c #7A6749",
"8  c #7B694F",
"9  c #6C6455",
"0  c #6C6B5B",
"q  c #786750",
"w  c #746D54",
"e  c #7B6C55",
"r  c #746C5C",
"t  c #7C6E58",
"y  c #767356",
"u  c #7F7057",
"i  c #77705C",
"p  c #7B725E",
"a  c #7D7A5E",
"s  c #766F60",
"d  c #7C7363",
"f  c #7C7B62",
"g  c #7E786C",
"h  c #816C53",
"j  c #857052",
"k  c #887254",
"l  c #83735B",
"z  c #8A755D",
"x  c #8E7A5E",
"c  c #837664",
"v  c #897763",
"b  c #847B63",
"n  c #8A7A64",
"m  c #847A6B",
"M  c #8B7D6C",
"N  c #927D64",
"B  c #907D69",
"V  c #837E77",
"C  c #868067",
"Z  c #8A826B",
"A  c #968266",
"S  c #998166",
"D  c #93836D",
"F  c #9A846C",
"G  c #8C8274",
"H  c #858479",
"J  c #8D857A",
"K  c #8F897C",
"L  c #938572",
"P  c #958974",
"I  c #9C8A74",
"U  c #958878",
"Y  c #9B8C7A",
"T  c #9D9077",
"R  c #9C907E",
"E  c #A0876D",
"W  c #A38C74",
"Q  c #A28F79",
"!  c #A5917B",
"~  c #AB957E",
"^  c #AC987C",
"/  c #8E8781",
"(  c #8D8A83",
")  c #918A82",
"_  c #9B8F82",
"`  c #9C9385",
"'  c #96928B",
"]  c #9B938B",
"[  c #9D9993",
"{  c #A49482",
"}  c #A59881",
"|  c #AA9985",
" . c #A49A8B",
".. c #A99B8C",
"X. c #B19680",
"o. c #B19A83",
"O. c #B59F89",
"+. c #AC9E91",
"@. c #B3A08D",
"#. c #B8A38F",
"$. c #AEA193",
"%. c #ADA59C",
"&. c #B5A595",
"*. c #BAA895",
"=. c #B1A699",
"-. c #B6AA9D",
";. c #BBAC9C",
":. c #BBAFA2",
">. c #BDB3A9",
",. c #BDB6B1",
"<. c #CAB6A3",
"1. c #CBBBAB",
"2. c #C7BDB4",
/* pixels */
"@.Q q # # = i %.K 3 , e F J -.M j j j ",
"P L q % 3 4 G ,.[ 1 8 l W J &.U x u 7 ",
"a w z = 5 1 G 2.[ 6 , N ~ ( %.L T y 3 ",
"n Z F & 4 4 H ;.) h n F X.J +.G } z e ",
"| P M 0 1 y K -.J l 8 U | J Q c *.T C ",
":.| z m 4 x U &.] S N { | J Y 9 P I ! ",
"..L r d w C P 1. .v z | { V :.d F I | ",
"$ * > r l P ' >. .Q W +.! c +.d p : P ",
"= , t s n Y _ *.B Q W ..Q m +.r Z * n ",
", z l m A L L ;.U o.Q +.=.l { M Y 6 ^ ",
"N A v M m Z ` @.c O.E %.;.m ..J | A ^ ",
"! Y m M G U c o.L ;.W | &.M +.m L ! | ",
"b t v G U Y M #.U :.I Q @.v $.V l e ` ",
"Z y t g m C L &. .:.Q F N v { B Z > [ ",
"Y f t s d a B ..' 1.{ E N l { d D a ] ",
"-.g 2 s c t d | V 1.| Q N e ..s Z f ( ",
"$.D d d p f i >./ <.&.F E e ..g D Y :.",
"J m 9 r > 2 > M 9 Y _ e h < s 9 l c B ",
". O   r + + + @ o + @ @ O O O +   X o "
};
