/* XPM */
static char *result[] = {
/* columns rows colors chars-per-pixel */
"19 19 136 2 ",
"   c #724D28",
".  c #714D28",
"X  c #6B4925",
"o  c #6D4A26",
"O  c #6E4B27",
"+  c #6F4B27",
"@  c #6C4A26",
"#  c #6E4A27",
"$  c #704C27",
"%  c #6E4B26",
"&  c #5F4020",
"*  c #6E4A26",
"=  c #644523",
"-  c #654423",
";  c #563B1D",
":  c #604121",
">  c #5B3E20",
",  c #5A3E1F",
"<  c #6C4926",
"1  c #644423",
"2  c #674724",
"3  c #624322",
"4  c #5D4121",
"5  c #5E4020",
"6  c #684724",
"7  c #624323",
"8  c #563B1E",
"9  c #5E4121",
"0  c #634423",
"q  c #6F4A27",
"w  c #5E3F20",
"e  c #593C1F",
"r  c #583D1E",
"t  c #714B28",
"y  c #774F28",
"u  c #704D26",
"i  c #5D4020",
"p  c #724C28",
"a  c #5C3E1F",
"s  c #51371B",
"d  c #664624",
"f  c #764E29",
"g  c #754E28",
"h  c #583B1D",
"j  c #774F29",
"k  c #714D27",
"l  c #614222",
"z  c #694724",
"x  c #5F4021",
"c  c #674624",
"v  c #744D29",
"b  c #54381C",
"n  c #614322",
"m  c #6D4926",
"M  c #614223",
"N  c #694624",
"B  c #6D4925",
"V  c #6C4826",
"C  c #714C27",
"Z  c #53381C",
"A  c #684825",
"S  c #573A1E",
"D  c #52381C",
"F  c #5D4021",
"G  c #694725",
"H  c #644524",
"J  c #573C1E",
"K  c #5A3E20",
"L  c #634323",
"P  c #543A1D",
"I  c #5B3F20",
"U  c #604021",
"Y  c #593D1F",
"T  c #51361B",
"R  c #4E351A",
"E  c #654624",
"W  c #5F3F21",
"Q  c #51381C",
"!  c #5A3D1F",
"~  c #583B1E",
"^  c #50371B",
"/  c #795029",
"(  c #724D27",
")  c #604122",
"_  c #553A1D",
"`  c #664724",
"'  c #4A3118",
"]  c #53391C",
"[  c #764F29",
"{  c #6E4A25",
"}  c #5C3F20",
"|  c #654524",
" . c #624222",
".. c #4D3319",
"X. c #674524",
"o. c #664523",
"O. c #563C1E",
"+. c #5B3E1F",
"@. c #573B1E",
"#. c #6B4825",
"$. c #644322",
"%. c #734D28",
"&. c #654523",
"*. c #754E27",
"=. c #563A1D",
"-. c #53391D",
";. c #583C1E",
":. c #5F4222",
">. c #604322",
",. c #614122",
"<. c #52371C",
"1. c #5D3F20",
"2. c #754D28",
"3. c #644422",
"4. c #4F351B",
"5. c #5B3D1F",
"6. c #5A3F20",
"7. c #5C3E20",
"8. c #50351B",
"9. c #583C1F",
"0. c #5B4020",
"q. c #704B27",
"w. c #6E4927",
"e. c #5F4121",
"r. c #54391C",
"t. c #583D1F",
"y. c #634222",
"u. c #694825",
"i. c #694726",
"p. c #4F361A",
"a. c #4F361B",
"s. c #644323",
"d. c #6B4826",
"f. c #684725",
"g. c #5E4021",
"h. c #55391D",
/* pixels */
"  . X o o O + o @ + X o o X # # $ % @ ",
"& * = - ; : > , < 1 2 3 4 2 1 5 6 * 7 ",
"8 9 0 q 5 w e r t : < y u < - i 6 p 7 ",
"a s d f g h e r t i < j k < - i = + l ",
"z x c v y b e r t 0 < < c < - i n m M ",
"N B = V C Z e r t A < S D < - i F G H ",
"J K 0 L - P e r t I < U Y < - i x l H ",
"T R E W Q ! ~ r t ^ < / ( < - i n ) 0 ",
"_ D ` W ' l ~ r t ] < [ { < - } | L l ",
"I } =  ...X.S r t l < < z < - } o.X 7 ",
"_ O.0 p +.z @.r t #.< +.O.< - } $.%.H ",
"R R &.v *.- > r t 1 < =.^ < 1 } & p 0 ",
"_ -.2 V g a } r t , < : O.< $., ;.# M ",
":.>.d ,.- <.1.r t Q < 2.o < $.+.^ 3 ) ",
"3.X = ,.4.D 5.6.t J < [ * < $.@.@.1.M ",
"7.0 = G 8.} 9.0.t 6 < q.c < $.D 3 x H ",
"R Q = w.e.#.r.0.t ( < e.t.< y.^ u.2 i.",
"p.a.d s.N o.@.6.t o < =.p.< ) Z n u.d.",
"8 P f.W @.Z > t.t g.< h.R < 9 _ D = d."
};
