/* XPM */
static char *result[] = {
/* columns rows colors chars-per-pixel */
"19 19 207 2 ",
"   c #280303",
".  c #320505",
"X  c #3A0404",
"o  c #450101",
"O  c #490101",
"+  c #480202",
"@  c #4D0404",
"#  c #4E0404",
"$  c #550606",
"%  c #461919",
"&  c #561F14",
"*  c #5B1A1A",
"=  c #650C0C",
"-  c #690F0F",
";  c #6C120F",
":  c #671111",
">  c #6B1212",
",  c #681D12",
"<  c #6E1B17",
"1  c #6E1C15",
"2  c #6F1818",
"3  c #741414",
"4  c #761616",
"5  c #731818",
"6  c #7B1B1B",
"7  c #7C2714",
"8  c #712222",
"9  c #752222",
"0  c #782020",
"q  c #732826",
"w  c #7E2D20",
"e  c #7F2B26",
"r  c #693333",
"t  c #6B3232",
"y  c #7B4343",
"u  c #6C5252",
"i  c #725151",
"p  c #786D6D",
"a  c #777171",
"s  c #882618",
"d  c #9C2E1F",
"f  c #822020",
"g  c #822121",
"h  c #842020",
"j  c #862323",
"k  c #862424",
"l  c #882525",
"z  c #8A2626",
"x  c #892927",
"c  c #812828",
"v  c #822B29",
"b  c #852D2D",
"n  c #852F2F",
"m  c #892A2A",
"M  c #8B2E2E",
"N  c #902A2A",
"B  c #912C2C",
"V  c #8E3520",
"C  c #933829",
"Z  c #90382A",
"A  c #8F3232",
"S  c #853B33",
"D  c #863E36",
"F  c #833939",
"G  c #973131",
"H  c #9D3737",
"J  c #913939",
"K  c #963D3B",
"L  c #983838",
"P  c #9C3838",
"I  c #9D3B39",
"U  c #A13939",
"Y  c #A03B3B",
"T  c #A23B3B",
"R  c #A03F3F",
"E  c #A33F3E",
"W  c #A33F3F",
"Q  c #A43F3F",
"!  c #A53F3F",
"~  c #A73F3F",
"^  c #8D403D",
"/  c #9A4931",
"(  c #9F4A33",
")  c #AB453C",
"_  c #B64B3E",
"`  c #894040",
"'  c #894242",
"]  c #864D4D",
"[  c #944040",
"{  c #924444",
"}  c #9B4242",
"|  c #9C4040",
" . c #9E4040",
".. c #914949",
"X. c #924B4B",
"o. c #A04444",
"O. c #AC4747",
"+. c #A24E4E",
"@. c #AD4949",
"#. c #AD4A4A",
"$. c #AF4B4B",
"%. c #B14D4D",
"&. c #A5504F",
"*. c #B05B4E",
"=. c #A05252",
"-. c #A05656",
";. c #AB5251",
":. c #AD5454",
">. c #AD5953",
",. c #A75F5F",
"<. c #AF5B5B",
"1. c #B65151",
"2. c #B65353",
"3. c #B85353",
"4. c #B95454",
"5. c #BA5757",
"6. c #B15E55",
"7. c #B65959",
"8. c #B25D5D",
"9. c #B95858",
"0. c #BC5858",
"q. c #BC5959",
"w. c #BE5B5B",
"e. c #BF5C5C",
"r. c #A56143",
"t. c #AC6C48",
"y. c #AC6C5E",
"u. c #8F6C6C",
"i. c #9E6363",
"p. c #9A6767",
"a. c #9C6666",
"s. c #946F6F",
"d. c #B76363",
"f. c #B76464",
"g. c #B86464",
"h. c #B96666",
"j. c #B46868",
"k. c #BA6F6F",
"l. c #BC716C",
"z. c #B87A6B",
"x. c #B77773",
"c. c #BB7979",
"v. c #B87A7A",
"b. c #C35C45",
"n. c #C05D5D",
"m. c #C15D5D",
"M. c #C15F5F",
"N. c #CF6643",
"B. c #C4625B",
"V. c #D06B5C",
"C. c #C16161",
"Z. c #C56363",
"A. c #C86563",
"S. c #C26868",
"D. c #C76868",
"F. c #CA6868",
"G. c #CA6A6A",
"H. c #CD6C6C",
"J. c #CE6E6E",
"K. c #D06F6F",
"L. c #C27070",
"P. c #CE7171",
"I. c #CF7171",
"U. c #CC7271",
"Y. c #CD7575",
"T. c #D07070",
"R. c #D17070",
"E. c #D17171",
"W. c #D17373",
"Q. c #D27373",
"!. c #D27575",
"~. c #D37777",
"^. c #D07D7D",
"/. c #D97B7B",
"(. c #A8816C",
"). c #998686",
"_. c #A08888",
"`. c #BB8484",
"'. c #BB8989",
"]. c #CB8A8A",
"[. c #C98E8E",
"{. c #DE8684",
"}. c #DA8E8E",
"|. c #C29494",
" X c #CD9393",
".X c #C09898",
"XX c #C79F9F",
"oX c #CD9898",
"OX c #D19898",
"+X c #D59B9B",
"@X c #E08686",
"#X c #E08888",
"$X c #E69090",
"%X c #ED9999",
"&X c #C8A4A4",
"*X c #D2A3A3",
"=X c #D6A5A5",
"-X c #D3B3B3",
";X c #DBB4B4",
":X c #E2A7A7",
">X c #E7B7B7",
",X c #E8BABA",
"<X c #D5C2C2",
"1X c #DDC6C6",
"2X c #E5D2D2",
"3X c #EFD1D1",
"4X c None",
/* pixels */
"4X4X4X4X4X,X3X>X}.Y.w.^.:X4X4X4X4X4X4X",
"4X4X4X4X3.J.F.E.R.5.%.2.m.H.T.L.4X4X4X",
"4X4X4X4XQ @.0.@X%XI.$.~.K.e.w.! 4X4X4X",
"4X4X4X-.> 6 G O.Q.Z.W G.4.H l f *X4X4X",
"4X4X4Xb t n T Y M.C.#.P h N - 0 8.4X4X",
"4X4X=Xr u i 7.#X/.n.P.$XW.+.u.a ] 4X4X",
"4X4Xk.: % _.&.U.!.1.D.{.S.|.s.* 8 ;X4X",
"4X4Xg.k ' 1X^ r.C x Z t.e 2X4Xm A +X4X",
"4X4X<.B .X4X[ ( 7 ; V / 4 XX4X} ~  X4X",
"4X4Xd.J 4X4X$ 5 & 1 , < @ i.4X-XU [.4X",
"4X4Xf.9.4Xa.+ c   . X q o F 4X].q.OX4X",
"4X4Xc.:.4X` O S s w d D # 9 4Xh.R oX4X",
"4X4X4X4X4XM = v y.(.z.K j A 4X4X4X4X4X",
"4X4X4X4X4XL z 2 4X4X4X{ _ j.4X4X4X4X4X",
"4X4X4X4X4X>.) X.4X4X4Xx.N.l.4X4X4X4X4X",
"4X4X4X4X4X*.b.`.4X4X).I B.E p.4X4X4X4X",
"4X4X4X4X4X6.V.v.4X4X4X,.g =.<X4X4X4X4X",
"4X4X4X4X4X;.A.o.4X4X4X&X3 '.4X4X4X4X4X",
"4X4X4X4Xy | .. .p 4X4X4X4X4X4X4X4X4X4X"
};
