/* XPM */
static char *result[] = {
/* columns rows colors chars-per-pixel */
"19 19 141 2 ",
"   c #2D5B28",
".  c #3A6131",
"X  c #3A6931",
"o  c #396B31",
"O  c #31663A",
"+  c #487029",
"@  c #3D6F47",
"#  c #727B5C",
"$  c #B41821",
"%  c #B91922",
"&  c #C7191B",
"*  c #D51D17",
"=  c #EA231D",
"-  c #F43117",
";  c #C91E27",
":  c #CC1C24",
">  c #D61C25",
",  c #E21D27",
"<  c #C82224",
"1  c #DC272F",
"2  c #C52B30",
"3  c #C22D33",
"4  c #C92E34",
"5  c #D52A32",
"6  c #CA3431",
"7  c #ED332E",
"8  c #E6353D",
"9  c #9A4A1D",
"0  c #844621",
"q  c #944D23",
"w  c #9D4D20",
"e  c #8F5C3D",
"r  c #9E5F30",
"t  c #965C3F",
"y  c #AA492F",
"u  c #AA5725",
"i  c #B15C24",
"p  c #BA6122",
"a  c #B96529",
"s  c #B86C32",
"d  c #BF7436",
"f  c #B77338",
"g  c #BF7A3F",
"h  c #BB3940",
"j  c #B53A4A",
"k  c #C13C45",
"l  c #D53D43",
"z  c #AB454F",
"x  c #B54249",
"c  c #87614B",
"v  c #8C6C51",
"b  c #A36F4D",
"n  c #AC6A4A",
"m  c #B97C47",
"M  c #AC7A51",
"N  c #AA5760",
"B  c #A55769",
"V  c #A85668",
"C  c #9E7C6A",
"Z  c #A46E6E",
"A  c #C84F5C",
"S  c #C65051",
"D  c #D9505B",
"F  c #C25F69",
"G  c #C75F6B",
"H  c #D75767",
"J  c #D26A79",
"K  c #D96D79",
"L  c #DE7077",
"P  c #EC6371",
"I  c #EA6C7C",
"U  c #5D9E45",
"Y  c #57825A",
"T  c #568A5A",
"R  c #778556",
"E  c #73AB57",
"W  c #588460",
"Q  c #6A9267",
"!  c #6D937E",
"~  c #BB814E",
"^  c #BE854D",
"/  c #B38056",
"(  c #B58155",
")  c #BA8453",
"_  c #BB8553",
"`  c #98877D",
"'  c #91967F",
"]  c #A1846F",
"[  c #BB916E",
"{  c #BE9879",
"}  c #82A07F",
"|  c #9BA276",
" . c #C38548",
".. c #C5894E",
"X. c #CA8C4B",
"o. c #C08C5A",
"O. c #967F8C",
"+. c #A87388",
"@. c #A27C89",
"#. c #769F86",
"$. c #A48181",
"%. c #B78980",
"&. c #B78C8F",
"*. c #A59081",
"=. c #BB9682",
"-. c #B79A88",
";. c #AB8492",
":. c #A89B90",
">. c #AB9D9F",
",. c #B7A48E",
"<. c #A5BF9A",
"1. c #84B4AA",
"2. c #97B4A5",
"3. c #99B0B1",
"4. c #A1AAAC",
"5. c #A9ABAB",
"6. c #A6BAA0",
"7. c #ACBEAF",
"8. c #B3A4B5",
"9. c #AAB1B6",
"0. c #BAB0BB",
"q. c #CA8595",
"w. c #CF8A9A",
"e. c #C2A28A",
"r. c #C5A892",
"t. c #C5B8A3",
"y. c #C4B5BA",
"u. c #BBCEBE",
"i. c #CEC0B0",
"p. c #A7C2C2",
"a. c #A4C1CA",
"s. c #BACDCA",
"d. c #BCD5DB",
"f. c #C9CCC2",
"g. c #C5C8CB",
"h. c #C7C9D2",
"j. c #C2D1D2",
"k. c #EAD1D6",
"l. c #D5E4E6",
"z. c #EDEAE8",
"x. c None",
/* pixels */
"x.x.x.x.x.x.x.x.x.x.x.x.x.x.x.x.x.x.x.",
"x.x.x.x.x.x.x.x.x.x.x.x.x.x.x.x.x.x.x.",
"x.x.x.x.x.x.x.x.x.r.~ ( { x.x.x.x.x.x.",
"x.x.x.x.x.x.x.x.h.e r m _ / e.x.x.x.x.",
"x.x.x.x.x.x.x.x.5.0 9 g  .^ ) [ x.x.x.",
"x.x.x.x.x.x.x.3.9.c w a d X...o.z.x.x.",
"x.x.x.x.E U W ! ,.] C u p i q -.x.x.x.",
"x.x.x.O } l.1.@ ' s b :.=.t v g.x.x.x.",
"x.x.x.Y x.p.s.2.  # n f M *.4.x.x.x.x.",
"x.x.x.<.u.&.w.q.$.. o R | 7.j.x.x.x.x.",
"x.x.x.6.X + K I P L ` Q T #.x.x.x.x.x.",
"x.x.x.f.Z y 6 l D H J k.0.a.x.x.x.x.x.",
"x.x.x.t.G - * & < 2 k F @.d.x.x.x.x.x.",
"x.x.x.i.S 7 = : % $ h x >.x.x.x.x.x.x.",
"x.x.x.x.%.A 8 , > ; 3 N x.x.x.x.x.x.x.",
"x.x.x.x.x.;.j 5 1 4 z y.x.x.x.x.x.x.x.",
"x.x.x.x.x.x.8.+.V B O.x.x.x.x.x.x.x.x.",
"x.x.x.x.x.x.x.x.x.x.x.x.x.x.x.x.x.x.x.",
"x.x.x.x.x.x.x.x.x.x.x.x.x.x.x.x.x.x.x."
};
