/* XPM */
static char *result[] = {
/* columns rows colors chars-per-pixel */
"19 19 252 2 ",
"   c #222520",
".  c #232323",
"X  c #1E1E1E",
"o  c gray12",
"O  c #242523",
"+  c #1F251C",
"@  c #1E221B",
"#  c #161813",
"$  c #141612",
"%  c #0E0F0B",
"&  c #0F110D",
"*  c #161812",
"=  c #1F221C",
"-  c #22261F",
";  c #242322",
":  c #202020",
">  c #1C1D1B",
",  c #10160D",
"<  c #0B0D0A",
"1  c #0B0E0A",
"2  c #0D110B",
"3  c #10130F",
"4  c #222222",
"5  c #232221",
"6  c #232220",
"7  c #252320",
"8  c #25221E",
"9  c #1F211C",
"0  c #1D2019",
"q  c #1D2119",
"w  c #221F1A",
"e  c #24221F",
"r  c #252422",
"t  c #1B1B1B",
"y  c #090D08",
"u  c #0D1B0A",
"i  c #060C04",
"p  c #070C04",
"a  c #091005",
"s  c #0D140B",
"d  c gray13",
"f  c #2F291E",
"g  c #3E3226",
"h  c #5D4227",
"j  c #24341F",
"k  c #213C1B",
"l  c #223D1C",
"z  c #1E1B15",
"x  c #201E1A",
"c  c #252525",
"v  c #181818",
"b  c #040803",
"n  c #0D1A09",
"m  c #081006",
"M  c #070D04",
"N  c #0D130A",
"B  c #22201F",
"V  c #2B2723",
"C  c #382E25",
"Z  c #242C20",
"A  c #24321E",
"S  c #24311E",
"D  c #2A241C",
"F  c #26221E",
"G  c #242423",
"H  c #1A1A1C",
"J  c #080813",
"K  c #090C15",
"L  c #070914",
"P  c #080A15",
"I  c #0C0D16",
"U  c #212122",
"Y  c #252524",
"T  c #292926",
"R  c #20201F",
"E  c #212120",
"W  c #252423",
"Q  c #242321",
"!  c #1F1F23",
"~  c #212126",
"^  c #212125",
"/  c #222226",
"(  c #212224",
")  c #242524",
"_  c #272826",
"`  c #2F2C28",
"'  c #23221F",
"]  c #21201C",
"[  c #22211F",
"{  c #262421",
"}  c #21201E",
"|  c #1D1C1A",
" . c #21211F",
".. c #23221D",
"X. c #24221D",
"o. c #24221C",
"O. c #222220",
"+. c #242320",
"@. c #25231E",
"#. c #24211C",
"$. c #262219",
"%. c #26231B",
"&. c #272318",
"*. c #26231D",
"=. c #25221B",
"-. c #24231E",
";. c #363026",
":. c #362F25",
">. c #352F25",
",. c #372F26",
"<. c #373025",
"1. c #362F26",
"2. c #352F24",
"3. c #352F26",
"4. c #383024",
"5. c #372F24",
"6. c #362F24",
"7. c #362F23",
"8. c #2F2A19",
"9. c #312A1C",
"0. c #2E271B",
"q. c #30291D",
"w. c #2C2519",
"e. c #2E261A",
"r. c #2D281A",
"t. c #2F2A1B",
"y. c #2D2A18",
"u. c #302C1C",
"i. c #2F2B1A",
"p. c #2E2B1A",
"a. c #2F2B1B",
"s. c #2E2A1A",
"d. c #2E2B19",
"f. c #2F2C1A",
"g. c #27231E",
"h. c #2C261C",
"j. c #191916",
"k. c #1D1D1B",
"l. c #161514",
"z. c #0F0E0C",
"x. c #11100E",
"c. c #1C1B1A",
"v. c #272625",
"b. c #232320",
"n. c #242522",
"m. c #242422",
"M. c #262620",
"N. c #2B2A20",
"B. c #282720",
"V. c #242421",
"C. c #22271F",
"Z. c #202F1C",
"A. c #21301C",
"S. c #23311E",
"D. c #23321D",
"F. c #212F1C",
"G. c #22301E",
"H. c #222420",
"J. c #1B1A18",
"K. c #201F1D",
"L. c #181716",
"P. c #141315",
"I. c #1A1919",
"U. c #232D20",
"Y. c #233E1C",
"T. c #25431D",
"R. c #253F1E",
"E. c #24411D",
"W. c #26461F",
"Q. c #233C1D",
"!. c #233F1C",
"~. c #212421",
"^. c #171615",
"/. c #1D1D1C",
"(. c #1D1D1D",
"). c #131313",
"_. c #101018",
"`. c #121215",
"'. c #242221",
"]. c #252322",
"[. c #232120",
"{. c #22201D",
"}. c #22201B",
"|. c #202217",
" X c #202216",
".X c #202116",
"XX c #211F19",
"oX c #1C1914",
"OX c #17140F",
"+X c #1C1913",
"@X c #353535",
"#X c gray26",
"$X c #282827",
"%X c #33302C",
"&X c #282623",
"*X c #1F1D1B",
"=X c #1B1914",
"-X c #262217",
";X c gray14",
":X c #222521",
">X c #254A1D",
",X c #29541F",
"<X c #27501D",
"1X c #23431A",
"2X c #1E211C",
"3X c #282826",
"4X c #211F1B",
"5X c #2F2F2F",
"6X c gray22",
"7X c #2E2B27",
"8X c #212020",
"9X c #1F221E",
"0X c #2A5321",
"qX c #2D5E24",
"wX c #2B5921",
"eX c #26491E",
"rX c #1C1F1A",
"tX c #2A2A29",
"yX c #282622",
"uX c #1B1A1A",
"iX c #262521",
"pX c #26241E",
"aX c #262524",
"sX c #252523",
"dX c #252421",
"fX c #272420",
"gX c #252420",
"hX c #262522",
"jX c #27241F",
"kX c #262420",
"lX c #27241E",
"zX c #2A2722",
"xX c #2B271E",
"cX c #2A2823",
"vX c #2A2620",
"bX c #2A2723",
"nX c #292621",
"mX c #2B2720",
"MX c #292724",
"NX c #2A2721",
"BX c #2B271F",
"VX c #2A2621",
"CX c #2B261E",
"ZX c #2A2720",
"AX c #3D3220",
"SX c #3B301F",
"DX c #3E3321",
"FX c #3C311F",
"GX c #3F3321",
"HX c #3D3221",
"JX c #3C3120",
"KX c #3E3220",
/* pixels */
"  . X X X X X o O + + @ # $ % & * = - ",
"; : > , < 1 2 3 4 5 6 7 8 9 0 q w e r ",
"; t y u i p a s d 5 f g h j k l z x c ",
"5 v b n m p M N d B ; V C Z A S D F ; ",
"G H J K L L P I U Y T G R E ; W 5 Q Q ",
"c 4 ! ~ ~ ^ / ( ) _ ` ' ] [ { } |  .; ",
". 4 4 4 4 4 4 4 4 4 ..X.[ o.X.' 4 ' O.",
"+.' r @.X.@.Q #.@.Q $.%.Q &.$.*.=.X.-.",
";.:.>.,.:.<.1.2.1.3.4.5.1.6.7.:.:.:.:.",
"8.9.0.q.w.e.e.r.t.y.u.i.p.a.s.s.d.f.a.",
"g.h.j.k.l.z.x.c.v.b.n.m.; M.N.B.r V.r ",
"C.Z.A.S.D.F.G.A.F.H.; J.J.K.W W L.P.I.",
"U.Y.T.R.E.W.Q.!.T.~.. ^./.(.c c )._.`.",
"'.].[.[ [.B [ B [ {.}.|.|. X.XXXoXOX+X",
"@X#X$X%X&X*X=X-X5 ;X:X>X,X<X1X2X3X4Xc.",
"5X6X; 7X5 c.J.J.8Xd 9X0XqXwXeXrXtXyXuX",
"iXpXaXr { r sXdXfXY gXhXc jXkXhXjXlXkX",
"zXxXcXzXvXzXbXnXmXMXNXNXMXBXVXzXBXCXZX",
"AXAXSXDXFXGXAXSXHXFXGXAXAXJXFXAXAXKXAX"
};
