/* XPM */
static char *result[] = {
/* columns rows colors chars-per-pixel */
"19 19 141 2 ",
"   c #2C6126",
".  c #366A25",
"X  c #316238",
"o  c #3F6638",
"O  c #437B45",
"+  c #49704B",
"@  c #547443",
"#  c #4B7C52",
"$  c #567D5A",
"%  c #445A71",
"&  c #8A4018",
"*  c #8B4822",
"=  c #8B4E25",
"-  c #8B583B",
";  c #955A34",
":  c #9E5E3A",
">  c #A25323",
",  c #AA5523",
"<  c #AE5620",
"1  c #A95F2E",
"2  c #AE622E",
"3  c #BA6324",
"4  c #BE6E2F",
"5  c #B2693B",
"6  c #B4783E",
"7  c #8D6952",
"8  c #9C785F",
"9  c #A6774F",
"0  c #B27440",
"q  c #B67F50",
"w  c #B17F58",
"e  c #B17F64",
"r  c #C47F40",
"t  c #67AF3E",
"y  c #5E8F5B",
"u  c #5C8D5C",
"i  c #63845C",
"p  c #649A53",
"a  c #638F6B",
"s  c #6B857E",
"d  c #BE824A",
"f  c #BA804C",
"g  c #B8804F",
"h  c #B58154",
"j  c #B78456",
"k  c #909767",
"l  c #A78165",
"z  c #B58761",
"x  c #BC8E61",
"c  c #A48A78",
"v  c #C58546",
"b  c #CB8E4D",
"n  c #C08953",
"m  c #C58D55",
"M  c #2525B9",
"N  c #3E5496",
"B  c #4144B7",
"V  c #4148B4",
"C  c #787BB6",
"Z  c #3B3CC6",
"A  c #2121D1",
"S  c #2727DF",
"D  c #3030D2",
"F  c #3F3FD4",
"G  c #3030D9",
"H  c #0605FB",
"J  c #0404FD",
"K  c #0404FE",
"L  c #1313F2",
"P  c #1A1AF0",
"I  c #1B1BF0",
"U  c #1C1DF0",
"Y  c #1D1DF4",
"T  c #2322ED",
"R  c #2727EF",
"E  c #3634E5",
"W  c #3939E7",
"Q  c #3636E8",
"!  c #3333ED",
"~  c #3939EE",
"^  c #3F3FEE",
"/  c #2221F0",
"(  c #2321F3",
")  c #3838F1",
"_  c #4A48C8",
"`  c #5551CA",
"'  c #5051CE",
"]  c #4040DF",
"[  c #5150D6",
"{  c #5852D3",
"}  c #5E60C6",
"|  c #6866D4",
" . c #6462DE",
".. c #6B6BDA",
"X. c #4343E9",
"o. c #4443EC",
"O. c #4444EC",
"+. c #4545EC",
"@. c #4040F3",
"#. c #4A4AF1",
"$. c #6766E1",
"%. c #6B9E8A",
"&. c #7A8DBD",
"*. c #7D89C9",
"=. c #9A928E",
"-. c #A4968D",
";. c #A39A8F",
":. c #AF998D",
">. c #AE9D98",
",. c #93B195",
"<. c #98B693",
"1. c #A7B094",
"2. c #9A8FB3",
"3. c #8E94B4",
"4. c #8FA7BF",
"5. c #A6A5A1",
"6. c #B9A9A8",
"7. c #A5BCAD",
"8. c #A2A6BC",
"9. c #A6AFBF",
"0. c #A6BDB7",
"q. c #AFB5BB",
"w. c #ACB9BD",
"e. c #CFB5A0",
"r. c #AEC7BB",
"t. c #8C87C8",
"y. c #B0ACC5",
"u. c #A5BDC7",
"i. c #AEBCC4",
"p. c #BFB7C6",
"a. c #8C86EB",
"s. c #A0C4C8",
"d. c #BDC6CD",
"f. c #B2C8C9",
"g. c #C4D1C4",
"h. c #CCD6D9",
"j. c #D6E1D2",
"k. c #D9E4D7",
"l. c #CBC5E5",
"z. c #CCDDE1",
"x. c None",
/* pixels */
"x.x.x.x.x.x.x.x.x.x.x.x.x.x.x.x.x.x.x.",
"x.x.x.x.x.x.x.x.x.x.x.x.x.x.x.x.x.x.x.",
"x.x.x.x.x.x.x.x.x.x.q g z e.x.x.x.x.x.",
"x.x.x.x.x.x.x.x.x.>.= 0 f j w x.x.x.x.",
"x.x.x.x.x.x.x.x.d.7 & 2 v d n h x.x.x.",
"x.x.x.x.x.x.k.7.i.=.* , 4 r b m x.x.x.",
"x.x.x.x.<.t y # w.9 -.: < 3 > ; x.x.x.",
"x.x.x.,.X j.s.%.+ x 1 c :.e - ;.x.x.x.",
"x.x.x.O g.z.u.f.$ o 8 5 6 l 5.q.x.x.x.",
"x.x.x.p x.&...$. .%   @ k 1.0.x.x.x.x.",
"x.x.x.x.i . N +.#.@.' s u a r.x.x.x.x.",
"x.x.x.x.3.B V W X.O.o.a.l.9.x.x.x.x.x.",
"x.x.x.x.C G T J Y ~ ^ ( E 4.x.x.x.x.x.",
"x.x.x.x.2./ P L H K ! F Z x.x.x.x.x.x.",
"x.x.x.x.6.{ ) R U I ] M *.x.x.x.x.x.x.",
"x.x.x.x.x.y.[ D Q S A _ h.x.x.x.x.x.x.",
"x.x.x.x.x.x.p.t.| ` } 8.x.x.x.x.x.x.x.",
"x.x.x.x.x.x.x.x.x.x.x.x.x.x.x.x.x.x.x.",
"x.x.x.x.x.x.x.x.x.x.x.x.x.x.x.x.x.x.x."
};
