/* XPM */
static char *result[] = {
/* columns rows colors chars-per-pixel */
"19 19 112 2 ",
"   c #101010",
".  c #181414",
"X  c #1C1414",
"o  c #191919",
"O  c #1E1818",
"+  c #1F1D1C",
"@  c #271F18",
"#  c #301B1B",
"$  c #351D1D",
"%  c #1C2112",
"&  c #222618",
"*  c #2B2319",
"=  c #262B1B",
"-  c #222222",
";  c #292222",
":  c #2F2422",
">  c #2A2B26",
",  c #2B2B27",
"<  c #2E2B24",
"1  c #2E2929",
"2  c #332820",
"3  c #322C23",
"4  c #322F2F",
"5  c #342E2E",
"6  c #3F2D2D",
"7  c #3C2F2F",
"8  c #353433",
"9  c #373434",
"0  c #3B3331",
"q  c gray22",
"w  c #3A3A3A",
"e  c #3F3939",
"r  c #47110D",
"t  c #4B1818",
"y  c #5C1510",
"u  c #521E1B",
"i  c #621E1E",
"p  c #76201F",
"a  c #562C2A",
"s  c #41352A",
"d  c #453432",
"f  c #433636",
"g  c #4E3531",
"h  c #523634",
"j  c #662121",
"k  c #602422",
"l  c #622929",
"z  c #762726",
"x  c #782A27",
"c  c #6B3D25",
"v  c #683F2A",
"b  c #643333",
"n  c #713130",
"m  c #4C463E",
"M  c #574031",
"N  c #504137",
"B  c #55483F",
"V  c #434040",
"C  c #484848",
"Z  c #4C4C4C",
"A  c #5F5F5F",
"S  c #684C4A",
"D  c #675A53",
"F  c #6D5F5D",
"G  c #71665D",
"H  c gray38",
"J  c #686662",
"K  c #6E6661",
"L  c #706A6A",
"P  c #746F68",
"I  c #7C7671",
"U  c #813D1B",
"Y  c #8B2D2A",
"T  c #8C3937",
"R  c #923C35",
"E  c #82433A",
"W  c #85514E",
"Q  c #9A5443",
"!  c #91664A",
"~  c #956B4F",
"^  c #826157",
"/  c #8E6A51",
"(  c #996D55",
")  c #B07C58",
"_  c #897E6E",
"`  c #B07C77",
"'  c #C27656",
"]  c #C07A55",
"[  c #E3890B",
"{  c #CA8739",
"}  c #E6982A",
"|  c #BC875D",
" . c #C0825D",
".. c #C9885D",
"X. c #C1876B",
"o. c #D68572",
"O. c #C49B7F",
"+. c #E4A17E",
"@. c #EFA87D",
"#. c #808080",
"$. c #8A8989",
"%. c gray57",
"&. c gray64",
"*. c #ACA8A3",
"=. c #AFB2A9",
"-. c gray72",
";. c gray",
":. c #C39A9A",
">. c #E8C8B3",
",. c #C1C1C1",
"<. c #C3C3C3",
"1. c None",
/* pixels */
"1.1.1.1.1.1.[ >.>.>.[ 1.1.1.1.1.1.1.1.",
"1.1.1.1.1.1.[ O.@...[ 1.1.1.1.1.1.1.1.",
"1.1.1.1.1.[ [ | +. .[ [ [ 1.1.1.1.1.1.",
"1.1.1.1.[ -.I ! ' ] G *.[ [ [ [ [ 1.1.",
"1.1.1.[ H C V g U c 8 q A <.<.<.[ 1.1.",
"1.1.1.[ D B 0 b p z 5 s N K $.<.[ 1.1.",
"1.1.1.[ X.) @ # u d w M E ` [ [ } 1.1.",
"1.1.1.[ / ~ * 2 m Z q ^ T :.[ 1.1.1.1.",
"1.1.1.[ ( o.Q R a < = =.[ [ [ 1.1.1.1.",
"1.1.1.[ _ v x y r 3 > %.[ 1.1.1.1.1.1.",
"1.1.1.[ [ P , & % 9 7 J [ 1.1.1.1.1.1.",
"1.1.1.[ [ ,.6 t + k i &.[ 1.1.1.1.1.1.",
"1.1.1.1.[ [ h $ ; n l [ [ 1.1.1.1.1.1.",
"1.1.1.1.1.[ L X O e f [ 1.1.1.1.1.1.1.",
"1.1.1.1.1.[ [ #.  - : [ 1.1.1.1.1.1.1.",
"1.1.1.1.1.1.[ #.o 1 4 [ 1.1.1.1.1.1.1.",
"1.1.1.1.1.1.[ ;.. j S [ 1.1.1.1.1.1.1.",
"1.1.1.1.1.1.[ [ F Y W [ 1.1.1.1.1.1.1.",
"1.1.1.1.1.1.1.[ [ [ { [ 1.1.1.1.1.1.1."
};
