/* XPM */
static char *result[] = {
/* columns rows colors chars-per-pixel */
"19 19 255 2 ",
"   c #1D251A",
".  c #20251E",
"X  c #1D1F19",
"o  c #1D1D1D",
"O  c #161615",
"+  c #11100F",
"@  c #141311",
"#  c #1C1F19",
"$  c #242821",
"%  c #21251E",
"&  c #222522",
"*  c #1B1D30",
"=  c #141637",
"-  c #171933",
";  c #262521",
":  c #24261C",
">  c #1E261A",
",  c #1E251B",
"<  c #232523",
"1  c #272727",
"2  c #212120",
"3  c #21201E",
"4  c #1F1E1C",
"5  c #1A1918",
"6  c #1E1D1A",
"7  c #201F1D",
"8  c #242321",
"9  c #252522",
"0  c #242322",
"q  c #1A1920",
"w  c #171622",
"e  c #171620",
"r  c #1E1B19",
"t  c #201E1A",
"y  c #22221E",
"u  c #23231F",
"i  c #353535",
"p  c #434343",
"a  c #242423",
"s  c #3A3329",
"d  c #282218",
"f  c #251F15",
"g  c #352C1D",
"h  c #221C14",
"j  c #251E14",
"k  c #262420",
"l  c #282720",
"z  c #211F19",
"x  c #171613",
"c  c #11110F",
"v  c #121210",
"b  c #0F0E0C",
"n  c #161511",
"m  c #222018",
"M  c #24221D",
"N  c #2C2C2B",
"B  c #353434",
"V  c #222220",
"C  c #282621",
"Z  c #23221F",
"A  c #2A221D",
"S  c #252421",
"D  c #252320",
"F  c #2A2720",
"G  c #24221C",
"H  c #292721",
"J  c #1C1B19",
"K  c #191816",
"L  c #191815",
"P  c #1B1914",
"I  c #1F1C17",
"U  c #231F16",
"Y  c #242019",
"T  c #2A2A2A",
"R  c #323232",
"E  c #252525",
"W  c #282726",
"Q  c #262524",
"!  c #222120",
"~  c #201F1C",
"^  c #25231D",
"/  c #201F1E",
"(  c #232322",
")  c #252524",
"_  c #272624",
"`  c #2A2827",
"'  c #232220",
"]  c #211F1C",
"[  c #393939",
"{  c #484848",
"}  c #292726",
"|  c #3B352D",
" . c #282623",
".. c #1C1714",
"X. c #15140E",
"o. c #1B1810",
"O. c gray14",
"+. c gray10",
"@. c #131313",
"#. c #1B1B1B",
"$. c #282826",
"%. c #2B2823",
"&. c #22201C",
"*. c #191712",
"=. c #1D1C1A",
"-. c #242523",
";. c #242622",
":. c #222222",
">. c #20221F",
",. c #232423",
"<. c #222221",
"1. c #23221E",
"2. c #242421",
"3. c #2A271F",
"4. c #27261E",
"5. c #242320",
"6. c #24231F",
"7. c #21211B",
"8. c #23221B",
"9. c #24231E",
"0. c #242323",
"q. c #272318",
"w. c #262219",
"e. c #26231D",
"r. c #26221B",
"t. c #25221C",
"y. c #25231E",
"u. c #363025",
"i. c #383126",
"p. c #363026",
"a. c #362F26",
"s. c #352F25",
"d. c #373025",
"f. c #362F25",
"g. c #352F23",
"h. c #352F26",
"j. c #362F24",
"k. c #362F23",
"l. c #372F24",
"z. c #2F2C1B",
"x. c #302C1C",
"c. c #2F2B1B",
"v. c #312C1D",
"b. c #2E2C18",
"n. c #2E2B19",
"m. c #2C2A17",
"M. c #312B1E",
"N. c #322B1F",
"B. c #302B1C",
"V. c #322C1F",
"C. c #1E1E1E",
"Z. c #151515",
"A. c #11111E",
"S. c #101025",
"D. c #0D101E",
"F. c #0E1016",
"G. c #11130F",
"H. c #1F221E",
"J. c #252424",
"K. c gray11",
"L. c gray5",
"P. c #010148",
"I. c #00003C",
"U. c #00004E",
"Y. c #00003F",
"T. c #060606",
"R. c #232120",
"E. c #373736",
"W. c #28231D",
"Q. c #211E19",
"!. c #231F19",
"~. c #25211B",
"^. c #1F1C18",
"/. c #22211F",
"(. c #191919",
"). c #010108",
"_. c #000040",
"`. c #000042",
"'. c #000052",
"]. c #000037",
"[. c gray13",
"{. c #505050",
"}. c #2E2B26",
"|. c #322B20",
" X c #2A2218",
".X c #30271B",
"XX c #2C2720",
"oX c #221C16",
"OX c #24211E",
"+X c #181819",
"@X c #010118",
"#X c #00001F",
"$X c #000012",
"%X c #000021",
"&X c #06060A",
"*X c #222223",
"=X c #22201E",
"-X c #262523",
";X c #252422",
":X c #201F21",
">X c #201E21",
",X c #201F20",
"<X c #22201F",
"1X c #1E1E20",
"2X c #14141F",
"3X c #141422",
"4X c #151522",
"5X c #171721",
"6X c #232424",
"7X c #232323",
"8X c gray28",
"9X c #3E3327",
"0X c #4C3929",
"qX c #14133A",
"wX c #0C0C3D",
"eX c #11112F",
"rX c #26201A",
"tX c #25221E",
"yX c #202020",
"uX c #222322",
"iX c gray24",
"pX c #2C2C2C",
"aX c #312A24",
"sX c #3C3027",
"dX c #161532",
"fX c #101035",
"gX c #13132A",
"hX c #231E1A",
"jX c #272521",
"kX c #26241F",
"lX c #262421",
"zX c #252523",
"xX c #24241D",
"cX c #26241E",
"vX c #252423",
"bX c #2B2721",
"nX c #2A2823",
"mX c #2A2721",
"MX c #2A261F",
"NX c #2A2722",
"BX c #28261E",
"VX c #2B271E",
"CX c #292723",
"ZX c #2B271F",
"AX c #292724",
"SX c #2A2620",
"DX c #2A2724",
"FX c #3D3220",
"GX c #3B301F",
"HX c #3E3321",
"JX c #3C311F",
"KX c #3F3321",
"LX c #3D3221",
"PX c #3C3120",
"IX c #3E3220",
/* pixels */
"  . X o O + @ # $ % % & * = - ; : > , ",
"< 1 2 3 4 5 6 7 8 8 9 0 q w e r t y u ",
"i p a s d f g h j k l z x c v b n m M ",
"N B V C Z A S D F G H Z J K L P I U Y ",
"T R E W Q ! ~ ^ D a ! / ( ) _ ` ' ] ' ",
"[ { } |  ...X.o.! O.+.@.#.1 $.%.&.*.=.",
"-.;.( :.>.,.O.O.:.:.<.' 1.1.1.M G G Z ",
"2.3.4.5.Z 6.5.7.8.0 8.9.0.q.w.e.r.t.y.",
"u.i.p.a.s.d.f.g.f.h.d.f.p.j.k.f.j.l.f.",
"z.x.c.v.c.b.n.m.n.m.x.M.N.M.c.B.M.V.c.",
"a C.Z.A.S.D.F.G.H.( ( J.J.) J.J.J.J.a ",
"0 K.L.P.I.U.Y.T.:.R.E.N S W.Q.!.~.^./.",
"0 (.)._.`.'.].T.[.! {.i }.|. X.XXXoXOX",
"0 +X@X#X$X%X%X&X*X=X-X;X/.! :X>X,X=X<X",
"O.1X2X3X4X4X4X5X6X7X8Xi 9X0XqXwXeXrXtX",
"[.yXyX[.:.:.:.<.uXyXiXpXaXsXdXfXgXhX] ",
"jXkXQ lXS lXzXxXcXvXkX; O.vXvXJ.vXa a ",
"bXF nXmXMXbXNXBXVXCXZXbXAXmXSXDXmXSXNX",
"FXFXGXHXJXKXFXGXLXJXKXFXFXPXJXFXFXIXFX"
};
