/* XPM */
static char *result[] = {
/* columns rows colors chars-per-pixel */
"19 19 69 1 ",
"  c #1F190F",
". c #171513",
"X c #1C1A14",
"o c #1F1D19",
"O c #221D0F",
"+ c #211E12",
"@ c #211F1B",
"# c #29220F",
"$ c #262213",
"% c #2A2414",
"& c #2F2917",
"* c #26231B",
"= c #2A251A",
"- c #2D291C",
"; c #302615",
": c #352B16",
"> c #31271B",
", c #332A1C",
"< c #3B2D1B",
"1 c #252421",
"2 c #2C2720",
"3 c #2E2C23",
"4 c #2D2B28",
"5 c #342C22",
"6 c #312E28",
"7 c #2F3328",
"8 c #353325",
"9 c #3A3124",
"0 c #35332B",
"q c #38312A",
"w c #36392A",
"e c #363531",
"r c #383531",
"t c #393933",
"y c #434036",
"u c #44423A",
"i c #51493F",
"p c #4C4945",
"a c #4A4A4A",
"s c #514B42",
"d c #575655",
"f c #5D5955",
"g c #5E5E5E",
"h c #635C54",
"j c #615E59",
"k c #64635C",
"l c #68665D",
"z c #646260",
"x c #6F7268",
"c c #707167",
"v c #717069",
"b c #7E7A75",
"n c #7E7E7E",
"m c #817D7A",
"M c #83807D",
"N c #88837E",
"B c #838281",
"V c #949491",
"C c #9A9694",
"Z c #9B9B99",
"A c #A09F9E",
"S c #A7A7A5",
"D c #ACA9A6",
"F c #AAA9A8",
"G c #B0B0AE",
"H c #B6B5B4",
"J c #BCBBBA",
"K c #CBCAC9",
"L c gray84",
/* pixels */
"*=*$$$=##$%=$#$*$#+",
"*-*$%$@&&o*3=+%=@%=",
"=&2==4-&2&=-=--2=%=",
"#,4,,6,>8,<>,,5545=",
"=<=&&**43,5-=*--52=",
"=8=,wwtttttww7w8,,+",
"=82,kbnDdHzCCzAu,,*",
"=,,6xBnKaLfFFgJu,,=",
"*835cMMKpLjDFgJy5<$",
"2<>4cMMKpLfFFkJy5,$",
"-6>,cNMKpLfDDhJy<>#",
"=5,3cBMKsLfDDhJu5-$",
"%:,5cNnKaLhFFhJu,,*",
";9-:kbbSfFzVVkZu5,=",
",,=&88ettttw8rw8>5=",
"&6*==+.==1-=*.=%-,$",
"1,6q5q959900895q8-$",
"-21=-$*&=**21*%-*%=",
"*=o$=#X$#O==*+$$o$+"
};
