/* XPM */
static char *result[] = {
/* columns rows colors chars-per-pixel */
"19 19 201 2 ",
"   c #7B611F",
".  c #A77E1B",
"X  c #816B28",
"o  c #976D29",
"O  c #887324",
"+  c #9C7321",
"@  c #957C21",
"#  c #A27C20",
"$  c #A47F3A",
"%  c #857141",
"&  c #967C4F",
"*  c #A98F29",
"=  c #AE8C2F",
"-  c #B3922D",
";  c #B9992F",
":  c #BB9D2C",
">  c #A28336",
",  c #A48036",
"<  c #AD8B35",
"1  c #A28A3D",
"2  c #B08B36",
"3  c #A8913A",
"4  c #B59630",
"5  c #BE973F",
"6  c #BDA123",
"7  c #C69F10",
"8  c #C89E1D",
"9  c #C2A01B",
"0  c #C3A21E",
"q  c #CCAA1C",
"w  c #D5A415",
"e  c #D0AC1E",
"r  c #DDB412",
"t  c #E8B60E",
"y  c #E1B611",
"u  c #E6B61E",
"i  c #E4B81A",
"p  c #C18E2D",
"a  c #C79525",
"s  c #CB9723",
"d  c #CC9926",
"f  c #CB982B",
"g  c #D39F2E",
"h  c #D1A027",
"j  c #D1AE26",
"k  c #DDAE23",
"l  c #DBA826",
"z  c #D0A12C",
"x  c #D1A12C",
"c  c #D5A62E",
"v  c #D4B324",
"b  c #DDBB22",
"n  c #D4B32F",
"m  c #DCB329",
"M  c #DFB62A",
"N  c #CCAE30",
"B  c #CDA03B",
"V  c #D0A037",
"C  c #D8AA30",
"Z  c #D6A63C",
"A  c #D2B437",
"S  c #D8B332",
"D  c #DBB738",
"F  c #DDB73B",
"G  c #E1BD21",
"H  c #E2BB2B",
"J  c #E6BC3A",
"K  c #E9BF38",
"L  c #FBC905",
"P  c #FBC906",
"I  c #FDCD04",
"U  c #FECD06",
"Y  c #F2C40A",
"T  c #FBCF17",
"R  c #F4C919",
"E  c #EEC623",
"W  c #EFC924",
"Q  c #EDCA2E",
"!  c #F2C922",
"~  c #F3C924",
"^  c #F6CA24",
"/  c #F8CB20",
"(  c #F4CD2B",
")  c #F5CA2F",
"_  c #FCD627",
"`  c #F9D62A",
"'  c #EEC336",
"]  c #E4C03E",
"[  c #EEC63D",
"{  c #F1CB34",
"}  c #EFD039",
"|  c #F9DB37",
" . c #FDD738",
".. c #F8DC3A",
"X. c #FDD93D",
"o. c #FEDD3F",
"O. c #A68544",
"+. c #A18B42",
"@. c #AF9846",
"#. c #B79F44",
"$. c #B89D45",
"%. c #A88C5A",
"&. c #B69E53",
"*. c #B09E57",
"=. c #B69F59",
"-. c #BBA24B",
";. c #BCA555",
":. c #A08960",
">. c #A79862",
",. c #AC9C62",
"<. c #AA9F73",
"1. c #A3927A",
"2. c #A59C7F",
"3. c #B4A361",
"4. c #BEAD69",
"5. c #BBAA72",
"6. c #B9AC78",
"7. c #C3A944",
"8. c #D8AE46",
"9. c #D8B041",
"0. c #DDB443",
"q. c #DEB745",
"w. c #DDB546",
"e. c #D6B844",
"r. c #DBB248",
"t. c #C1AC5C",
"y. c #E7BE46",
"u. c #D0BE7B",
"i. c #DDC157",
"p. c #EDCD41",
"a. c #F2D340",
"s. c #F0D243",
"d. c #F3D644",
"f. c #F6D649",
"g. c #FCDA4A",
"h. c #E3C550",
"j. c #E9C950",
"k. c #EFCF54",
"l. c #F1D355",
"z. c #F2D356",
"x. c #F9E048",
"c. c #FEE149",
"v. c #FDE14A",
"b. c #FEE14A",
"n. c #FEE24B",
"m. c #FEE14D",
"M. c #FAE351",
"N. c #E7CB66",
"B. c #EAD26F",
"V. c #F9DD65",
"C. c #F2D86E",
"Z. c #EBD27D",
"A. c #FDE271",
"S. c #B7AC85",
"D. c #B9AD85",
"F. c #BCB290",
"G. c #BDB591",
"H. c #B8B29B",
"J. c #B4AFA1",
"K. c #B9B3A3",
"L. c #C9B687",
"P. c #C3B78E",
"I. c #C4BEA7",
"U. c #F4DD8B",
"Y. c #EAD990",
"T. c #E8D29D",
"R. c #FEE680",
"E. c #FDEB84",
"W. c #F2E08F",
"Q. c #FDEA8B",
"!. c #FDE88E",
"~. c #F6E69C",
"^. c #F8E79E",
"/. c #F9EC9F",
"(. c #C7C3B7",
"). c #CFC9B4",
"_. c #CEC9B7",
"`. c #E3D0AD",
"'. c #EAD7AD",
"]. c #EBDAB3",
"[. c #ECDAB5",
"{. c #E9D8B8",
"}. c #E8DFBD",
"|. c #FCEDAB",
" X c #F3EBB7",
".X c #FDF2B8",
"XX c #FDF1BC",
"oX c #FCF3BC",
"OX c #EFE0C1",
"+X c #EFE0C2",
"@X c #F0E2C5",
"#X c #F9EFC0",
"$X c #F6EEC9",
"%X c #FDF2C0",
"&X c #FDF5C8",
"*X c #FEF5C9",
"=X c #FDF4CB",
"-X c #F7F0D1",
";X c #FEFAE5",
":X c #FEFBEA",
">X c None",
/* pixels */
">X>X>X>X>X2.K.>X>X>X>X>X>X>X>X>X>X>X>X",
">X>X>X>X,.Z.i._.>XF.D.>X>X>X>X>X>X>X>X",
">X>X>X(.Q T.V.&.J.D U.;.>X>X>X>X>X>X>X",
">X>X>Xt.f.'.A.S * q.|.H ).>X>X>X>X>X>X",
">X>X>Xn z.].R.' : r.%X^ 5.>X>X>X>X>X>X",
">X>X>XG k.[.!.[ ; 8.=X/ $.>X>X>X>X>X>X",
">X>XH.b h.`.W.] - 5 $X! 4 >X>X>X>X>X>X",
">X>X>._ j.{.^.{ M O.-X( m P.>X>X>X>X>X",
">X>Xe o.0.OXXXT J 1 ;X .K -.>X>X>X>X>X",
">X>Xy c.Z @X*XI y.3 :XX.F @.>X>X>X>X>X",
">X>Xy c.Z +X}.7 > @ 7.0 q N *.4.I.>X>X",
">X>Xy v.Z L.#.j 8 . e.Q..X&X#XY.B.S.>X",
">X>Xy v.B 9 ..a.x.R $ u.g.) u h x =.>X",
">X>Xy b.2 Y k p C U w + l g V 9.N.G.>X",
">X>Xy m.= d.d L s ~ E o w.l.E. X3.>X>X",
">X>Xr n.< } z t a s.W , /.oX~.6.>X>X>X",
">X>XX O   6 p.f c M.i %.C.A <.>X>X>X>X",
">X>X1.:.& % v P | ` # +.>X>X>X>X>X>X>X",
">X>X>X>X>X>X>X>X>X>X>X>X>X>X>X>X>X>X>X"
};
