/* XPM */
static char *result[] = {
/* columns rows colors chars-per-pixel */
"19 19 144 2 ",
"   c #102108",
".  c #122E0A",
"X  c #194111",
"o  c #13330B",
"O  c #122B0A",
"+  c #14330C",
"@  c #205318",
"#  c #1E4E16",
"$  c #112F09",
"%  c #122C0A",
"&  c #16360E",
"*  c #183E10",
"=  c #14340C",
"-  c #102408",
";  c #112509",
":  c #15390D",
">  c #102008",
",  c #132F0B",
"<  c #194211",
"1  c #14320C",
"2  c #13310B",
"3  c #112809",
"4  c #13320B",
"5  c #255A1C",
"6  c #22551A",
"7  c #102208",
"8  c #132E0B",
"9  c #215319",
"0  c #204C17",
"q  c #142F0C",
"w  c #16380E",
"e  c #1D4A14",
"r  c #122D0A",
"t  c #14380C",
"y  c #102308",
"u  c #132A0B",
"i  c #1D4B15",
"p  c #173F0F",
"a  c #1E4D15",
"s  c #225519",
"d  c #183F0F",
"f  c #347726",
"g  c #2B6620",
"h  c #225319",
"j  c #1F4F17",
"k  c #163D0E",
"l  c #1A4112",
"z  c #102508",
"x  c #122F0A",
"c  c #14350C",
"v  c #183D10",
"b  c #1D4915",
"n  c #15330D",
"m  c #15360D",
"M  c #255B1C",
"N  c #193D11",
"B  c #112409",
"V  c #112709",
"C  c #16350E",
"Z  c #183F10",
"A  c #205117",
"S  c #225418",
"D  c #23581B",
"F  c #255B1D",
"G  c #12290A",
"H  c #15370D",
"J  c #205218",
"K  c #112609",
"L  c #132C0B",
"P  c #1B4612",
"I  c #132D0B",
"U  c #102808",
"Y  c #16390E",
"T  c #183C0F",
"R  c #112309",
"E  c #1A4612",
"W  c #13340B",
"Q  c #112B09",
"!  c #12280A",
"~  c #173A0F",
"^  c #112C09",
"/  c #163B0E",
"(  c #17400F",
")  c #15350D",
"_  c #153A0D",
"`  c #102908",
"'  c #13300B",
"]  c #23561A",
"[  c #1A4412",
"{  c #12300A",
"}  c #183B10",
"|  c #112D09",
" . c #102C08",
".. c #102708",
"X. c #1A4312",
"o. c #163C0E",
"O. c #173B0F",
"+. c #153B0D",
"@. c #132B0B",
"#. c #113209",
"$. c #103108",
"%. c #14300C",
"&. c #184010",
"*. c #163A0E",
"=. c #1F4F16",
"-. c #1C4A14",
";. c #13350B",
":. c #194311",
">. c #24591B",
",. c #2B6621",
"<. c #1C4614",
"1. c #2C6922",
"2. c #285F1E",
"3. c #112A09",
"4. c #17390F",
"5. c #112909",
"6. c #122A0A",
"7. c #275E1E",
"8. c #1D4C15",
"9. c #102D08",
"0. c #12340A",
"q. c #14310C",
"w. c #1D4A15",
"e. c #14370C",
"r. c #205118",
"t. c #1A3F11",
"y. c #102608",
"u. c #22541A",
"i. c #215218",
"p. c #1B4513",
"a. c #102F08",
"s. c #12330A",
"d. c #2A6420",
"f. c #2D6A23",
"g. c #22561A",
"h. c #1E4D16",
"j. c #15380D",
"k. c #1F4D17",
"l. c #1A4512",
"z. c #1E4A16",
"x. c #1E4C16",
"c. c #113109",
"v. c #1B4613",
"b. c #215519",
/* pixels */
"  . X o O   + @ # $ % & * = - ; : % > ",
", o < 1 2 3 4 5 6 O > 7 8 9 0 q w e + ",
". r t y u i p a s + 7 > 7 d f g h j k ",
"l ; z x . c   - v b n m m k M N B V C ",
"X Z * A S 8 7   3 D F 1 G H J &   > K ",
"7 L H w P O 3 I U Y T H R V E W , Q U ",
"K ! ~ K Q U ^ / ( R > V W ) _ ` 7 r ' ",
"t j ] [ O   > { p } x z | t  .7 >   ..",
"X.J o.O.K 3 z 1 +.- @.W #.$.- > > > ! ",
"%.1 &.*.- > n s =.-.;.O ' ' {   z ^ %.",
"> - ....z - R :.V K 2 ! N >.,.<.Y ,   ",
"z 7   ' 1 ' + W z > K I X 1.2.C u 3.^ ",
"{ ..V v 4.5.` ` ` B r 6.m 7.<.  >   r ",
"#.k Z i 8.O >   9.r y > 3.i v G   > ` ",
"0.;.y z Y o B B { q.Q   K w.@.7 K q.e.",
"/ o - > w W ..G < r.t.3 K 9 ) y.w u.i.",
", 7 > V p.j 0.a.s.q d.f.5 m   > & g.h.",
". ..- ..j.k.l.;.| ; z.7.x.4 ; 7 G H q.",
"y | / c.z @.i h.v.< b.i r   3.r ..y.  "
};
