/* XPM */
static char *result[] = {
/* columns rows colors chars-per-pixel */
"19 19 29 1 ",
"  c #390000",
". c #420000",
"X c #5F0000",
"o c #600000",
"O c #6D0000",
"+ c #710000",
"@ c #730000",
"# c #780000",
"$ c #8B0000",
"% c #8E0000",
"& c #930000",
"* c #940000",
"= c #970000",
"- c #9A0000",
"; c #9D0000",
": c #A20000",
"> c #A50000",
", c #B40000",
"< c #C00000",
"1 c #C70000",
"2 c #CD0000",
"3 c #D20000",
"4 c #E40000",
"5 c #F20000",
"6 c #F80000",
"7 c #FA0000",
"8 c #FE0000",
"9 c red",
"0 c None",
/* pixels */
"0000000O$*%# 000000",
"0000.-5999997,o0000",
"000+69999999999;000",
"00+8999999999999>00",
"0.699999999999999@0",
"0-99999999999999920",
"059999999999999999X",
"O99999999999999999=",
"$99999999999999999<",
"*999999999999999993",
"%999999999999999991",
"#99999999999999999:",
" 79999999999999999+",
"0,99999999999999940",
"0o999999999999999&0",
"00;9999999999999200",
"000>999999999992000",
"0000@299999994&0000",
"000000X=<31:+000000"
};
