/* XPM */
static char *result[] = {
/* columns rows colors chars-per-pixel */
"19 19 139 2 ",
"   c #3B2414",
".  c #352C14",
"X  c #3D2D18",
"o  c #3D2F18",
"O  c #353029",
"+  c #3D3937",
"@  c #3A3939",
"#  c #3C3838",
"$  c #3E3E3E",
"%  c #4D2F1C",
"&  c #592A1A",
"*  c #44311D",
"=  c #66271D",
"-  c #442E22",
";  c #502C20",
":  c #572F28",
">  c #453624",
",  c #423828",
"<  c #533524",
"1  c #523725",
"2  c #583A28",
"3  c #742520",
"4  c #673E2F",
"5  c #683E30",
"6  c #46402F",
"7  c #4B4229",
"8  c #4C4A30",
"9  c #49423A",
"0  c #4B463F",
"q  c #504530",
"w  c #5B4037",
"e  c #554F36",
"r  c #584B3B",
"t  c #56553A",
"y  c #5A503D",
"u  c #7C4026",
"i  c #604832",
"p  c #60553C",
"a  c #7F5937",
"s  c #7A5B3E",
"d  c #444343",
"f  c #474645",
"g  c #4C4E46",
"h  c #4B4A48",
"j  c #55534F",
"k  c #575350",
"l  c #575654",
"z  c #5E5954",
"x  c #625946",
"c  c #61574C",
"v  c #6A644B",
"b  c #766E5E",
"n  c #716262",
"m  c #7A7672",
"M  c #7A7972",
"N  c #7B7B7B",
"B  c #873A31",
"V  c #933B38",
"C  c #983E3B",
"Z  c #FF001A",
"A  c #FF061F",
"S  c #FF0620",
"D  c #F40F24",
"F  c #FC0C23",
"G  c #FD0B24",
"H  c #FE0B24",
"J  c #FF0B24",
"K  c #FF0C25",
"L  c #F11023",
"P  c #F71328",
"I  c #FE122A",
"U  c #F61F34",
"Y  c #FC1B31",
"T  c #E92530",
"R  c #ED2537",
"E  c #F12031",
"W  c #F32133",
"Q  c #F62336",
"!  c #85463C",
"~  c #88443A",
"^  c #96413F",
"/  c #94503C",
"(  c #FF2B41",
")  c #824D42",
"_  c #8B4B45",
"`  c #825C4D",
"'  c #8E5D49",
"]  c #8E5D54",
"[  c #A9524E",
"{  c #926C4B",
"}  c #98704A",
"|  c #8C6350",
" . c #8E7559",
".. c #947B5F",
"X. c #B27043",
"o. c #B37747",
"O. c #BC714F",
"+. c #906E63",
"@. c #9A7965",
"#. c #9A7A69",
"$. c #807D7B",
"%. c #AD7F71",
"&. c #82826E",
"*. c #8D8479",
"=. c #89837F",
"-. c #95887A",
";. c #AC8060",
":. c #A58B6F",
">. c #B1956A",
",. c #AA9177",
"<. c #C6865E",
"1. c #CD8766",
"2. c #C09966",
"3. c #D39E7F",
"4. c #CBAB79",
"5. c #979084",
"6. c #99928C",
"7. c #9F9D8D",
"8. c gray59",
"9. c #AC9A83",
"0. c #AA9D91",
"q. c #A7A690",
"w. c #B1AB96",
"e. c #BDA79F",
"r. c #ACACAC",
"t. c #B1B3A2",
"y. c gray75",
"u. c #C89292",
"i. c #C79A97",
"p. c #E5A884",
"a. c #CAC2BD",
"s. c #D4D5D1",
"d. c gray83",
"f. c #E1DFDB",
"g. c #E3DFDC",
"h. c #E2E1DE",
"j. c #E2E2E2",
"k. c #E6E6E6",
"l. c None",
/* pixels */
"l.l.l.l.l.l.G q.w.t.I l.l.l.l.l.l.l.l.",
"l.l.l.l.l.l.F 2.4.>.Z l.l.l.l.l.l.l.l.",
"l.l.l.l.l.l.Z O.<.1.Z Z l.l.l.J J Z l.",
"l.l.l.l.Q P ^ o.X.} 9.W Y S H j.d.Z l.",
"l.l.l.E :.,.@./ u ' .. .0.y.8.N r.Z l.",
"l.l.l.D ;.s | [ V ) r 9 m $.=.k.Z Z l.",
"l.l.l.T p.a > : w k l h i _ i.Z l.l.l.",
"l.l.l.L 3.{ 0 j z d f M #.u.Z l.l.l.l.",
"l.l.l.R %.n $ # + O g s.Z Z Z l.l.l.l.",
"l.l.l.Z U @ - 3 ; , 6 6.Z l.l.l.l.l.l.",
"l.l.l.l.( c 2   * 5 1 *.Z l.l.l.l.l.l.",
"l.l.l.l.Z 5.= X < C ] g.Z l.l.l.l.l.l.",
"l.l.l.l.Z a.& o 4 ! +.Z l.l.l.l.l.l.l.",
"l.l.l.l.l.Z y . e v -.Z l.l.l.l.l.l.l.",
"l.l.l.l.l.Z h.x 8 t &.A l.l.l.l.l.l.l.",
"l.l.l.l.l.l.Z b 7 p 7.K l.l.l.l.l.l.l.",
"l.l.l.l.l.l.Z q % ~ e.Z l.l.l.l.l.l.l.",
"l.l.l.l.l.l.Z f.` B Z l.l.l.l.l.l.l.l.",
"l.l.l.l.l.l.l.Z Z Z l.l.l.l.l.l.l.l.l."
};
