/* XPM */
static char *result[] = {
/* columns rows colors chars-per-pixel */
"19 19 63 1 ",
"  c #2B2109",
". c #31270E",
"X c #392A0F",
"o c #3E2E13",
"O c #433115",
"+ c #4E3819",
"@ c #553B1C",
"# c #5B3E1F",
"$ c #5F3F21",
"% c #5E4222",
"& c #644423",
"* c #6B4926",
"= c #6F4D2C",
"- c #714B27",
"; c #734D29",
": c #76502A",
"> c #7A512C",
", c #7C5431",
"< c #81552E",
"1 c #845630",
"2 c #855932",
"3 c #8C5C34",
"4 c #905E35",
"5 c #8B603B",
"6 c #946036",
"7 c #95633A",
"8 c #9C653A",
"9 c #9E683C",
"0 c #A1673C",
"q c #A36A3D",
"w c #A96D3F",
"e c #9C6A41",
"r c #9E6F49",
"t c #A56D42",
"y c #A96E41",
"u c #AE7245",
"i c #A6724A",
"p c #AC7449",
"a c #B37446",
"s c #B37649",
"d c #BA7749",
"f c #B6794C",
"g c #BB7B4C",
"h c #A97750",
"j c #B37C53",
"k c #BB7E51",
"l c #C17E4E",
"z c #C17F51",
"x c #BD8055",
"c c #C38253",
"v c #CA8657",
"b c #C58659",
"n c #C88658",
"m c #CE895A",
"M c #D38D5C",
"N c #C78C62",
"B c #CC8D61",
"V c #D59264",
"C c #DD9565",
"Z c #E59C6A",
"A c #E9A272",
"S c #E1A278",
"D c #E7AC84",
/* pixels */
"0g3;hwy>9cy=3l3<ad8",
"l7=jNw=f9t&6x3&<2qx",
"&%kcu%5D,==cgO7MvMM",
";ppu>+axs%9VVbZZM8%",
"si3>o#2m7u30lacl3#:",
"u3&&**#6pCfxsawq82<",
"-2c0au9,=a8fV1nmww6",
">3ey68uy<;33waslwc8",
"4:*@81csq;.X@;8a0cx",
"6@#6xM6q8w073#O#wxx",
"3*:4w3>=w0ayad0;wwA",
"*@@#@>6cb0cc0duacww",
"*$#X=x8g3<>88dudMww",
"01@39S8:*8q68-0q4q1",
"6*:xu52gcMMvd24-&&6",
":rtS6=mVuxacsd6O.-w",
"pxf9,mZp*;**8m6%@wx",
"VB64xui2588&<Zd::xc",
"u26xf*;s8:s,*Cc;:wc"
};
