/* XPM */
static char *result[] = {
/* columns rows colors chars-per-pixel */
"19 19 130 2 ",
"   c #150909",
".  c #140F0F",
"X  c #180E0E",
"o  c #12130B",
"O  c #15150B",
"+  c #13160E",
"@  c #1D180D",
"#  c #191212",
"$  c #230707",
"%  c #2D0907",
"&  c #220808",
"*  c #2C0909",
"=  c #3B0505",
"-  c #390706",
";  c #350909",
":  c #390909",
">  c #2B1910",
",  c #291C1C",
"<  c #361212",
"1  c #371412",
"2  c #311D11",
"3  c #311C1C",
"4  c #381F1F",
"5  c #1C200B",
"6  c #23240E",
"7  c #242510",
"8  c #2C2114",
"9  c #282119",
"0  c #29261A",
"q  c #302612",
"w  c #372A12",
"e  c #34271B",
"r  c #2B2722",
"t  c #282525",
"y  c #2C2B27",
"u  c #282828",
"i  c #2D2D2D",
"p  c #352623",
"a  c #352626",
"s  c #362E21",
"d  c #343532",
"f  c #3F3C38",
"g  c #4D0606",
"h  c #420A0A",
"j  c #480808",
"k  c #4B0A0A",
"l  c #4E0F0B",
"z  c #550D0C",
"x  c #5C0A0A",
"c  c #5A0C0C",
"v  c #5F0F0F",
"b  c #43130C",
"n  c #421B16",
"m  c #640A06",
"M  c #640A0A",
"N  c #690F0F",
"B  c #60100F",
"V  c #64100F",
"C  c #641717",
"Z  c #691414",
"A  c #7E1D1D",
"S  c #54260E",
"D  c #5E2717",
"F  c #54201D",
"G  c #5A2518",
"H  c #53281A",
"J  c #57341D",
"K  c #603E0F",
"L  c #4A2626",
"P  c #4D2726",
"I  c #523A21",
"U  c #6D2727",
"Y  c #682E2E",
"T  c #7B2626",
"R  c #683F23",
"E  c #7D3737",
"W  c #7B4A19",
"Q  c #524330",
"!  c #5C4B3D",
"~  c #6F4124",
"^  c #694729",
"/  c #74472B",
"(  c #724D2B",
")  c #7C522E",
"_  c #6B4938",
"`  c #734938",
"'  c #6C5A3D",
"]  c #785839",
"[  c #7B5A38",
"{  c #7B5D3F",
"}  c #4D4842",
"|  c #704E4E",
" . c #765F44",
".. c #6B5F5F",
"X. c #6A6967",
"o. c #813B0D",
"O. c #813C11",
"+. c #834814",
"@. c #8D5E26",
"#. c #814343",
"$. c #884343",
"%. c #885C59",
"&. c #887056",
"*. c #8A705F",
"=. c #9D7750",
"-. c #8F6363",
";. c #9B7F7F",
":. c #A17C7C",
">. c #A67D7D",
",. c #AD7D7D",
"<. c #B17676",
"1. c #B07C7C",
"2. c #FFE51A",
"3. c #BD9C76",
"4. c #BC9A7D",
"5. c #818181",
"6. c #A2978A",
"7. c #B19C8A",
"8. c #BFB3A6",
"9. c #BCB4AA",
"0. c #C8ABAB",
"q. c #C6BBAF",
"w. c #C2B3B3",
"e. c #CABFB4",
"r. c #CEC59F",
"t. c #DFCDBE",
"y. c #D3CDC5",
"u. c gray82",
"i. c #DDD8D2",
"p. c None",
/* pixels */
"p.p.p.p.p.p.p.2.2.2.2.p.p.p.p.p.p.p.p.",
"p.p.p.p.p.p.2.2.q.7.e.2.2.p.p.p.p.p.p.",
"p.p.p.p.p.p.2.y.] ) { i.2.p.p.p.p.p.p.",
"p.p.p.p.2.2.2.6.~ ( / 9.2.2.2.p.p.p.p.",
"p.p.p.2.2.>.$.F G m H p E 0.2.p.p.p.p.",
"p.p.p.2.-.V z c B - 1 3 x #.2.p.p.p.p.",
"p.p.2.2.` R 2 j l 8 X * b _ 2.2.p.p.p.",
"p.p.2.%.D I 9 . + 6 : % q J t.2.p.p.p.",
"p.p.2.*.^ s r o O @ > e ' @.=.2.p.p.p.",
"p.p.2.r.Q ! } w 5 7 y d 8.[  .2.p.p.p.",
"p.p.2.2.X.i f W K 0 P L &.4.2.2.p.p.p.",
"p.p.p.2.5.u t n S o.O.+.3.2.2.p.p.p.p.",
"p.p.p.p.2.u..., # < 4 a 2.2.p.p.p.p.p.",
"p.p.p.p.2.2.w.; & h Z C 2.p.p.p.p.p.p.",
"p.p.p.p.p.2.2.|   g N v 2.p.p.p.p.p.p.",
"p.p.p.p.p.p.2.;.$ = M U 2.p.p.p.p.p.p.",
"p.p.p.p.p.p.2.:.Y k A T 2.p.p.p.p.p.p.",
"p.p.p.p.p.p.2.2.2.,.<.1.2.p.p.p.p.p.p.",
"p.p.p.p.p.p.p.p.2.2.2.2.2.p.p.p.p.p.p."
};
