/* XPM */
static char *result[] = {
/* columns rows colors chars-per-pixel */
"19 19 102 2 ",
"   c #10100F",
".  c #141412",
"X  c #171816",
"o  c #1A1B16",
"O  c #1D1D1A",
"+  c #1F201D",
"@  c #22221D",
"#  c #2D2C1C",
"$  c #252521",
"%  c #272921",
"&  c #2A2B24",
"*  c #2C2C29",
"=  c #2E3025",
"-  c #313327",
";  c #32332C",
":  c #36392E",
">  c #393B2E",
",  c #373631",
"<  c #373832",
"1  c #3B3B34",
"2  c #3E3E39",
"3  c #463D34",
"4  c #3E4033",
"5  c #424335",
"6  c #464936",
"7  c #44453B",
"8  c #4A473D",
"9  c #454939",
"0  c #4A4A3D",
"q  c #504833",
"w  c #4D543D",
"e  c #54563D",
"r  c #454541",
"t  c #484744",
"y  c #4C4C43",
"u  c #4E4F48",
"i  c #5C4F40",
"p  c #4E5143",
"a  c #525544",
"s  c #5A5546",
"d  c #555846",
"f  c #5D5C46",
"g  c #53534B",
"h  c #5A564C",
"j  c #575B4A",
"k  c #595B4D",
"l  c #575750",
"z  c #575951",
"x  c #5C5C54",
"c  c #625C4B",
"v  c #635E52",
"b  c #5E6052",
"n  c #65614E",
"m  c #616353",
"M  c #686356",
"N  c #656955",
"B  c #63635C",
"V  c #696659",
"C  c #67695A",
"Z  c #696B5D",
"A  c #72695B",
"S  c #74705D",
"D  c #676761",
"F  c #6C6C63",
"G  c #6D6E6A",
"H  c #726F67",
"J  c #736F6B",
"K  c #74746B",
"L  c #7D746B",
"P  c #76796B",
"I  c #7E7B6C",
"U  c #777672",
"Y  c #777873",
"T  c #7A7B73",
"R  c #7E7E7B",
"E  c #837E6E",
"W  c #817C75",
"Q  c #807F7F",
"!  c #7F8079",
"~  c #90806B",
"^  c #858174",
"/  c #81827C",
"(  c #938976",
")  c #948D7E",
"_  c #9B8C7B",
"`  c #868682",
"'  c #8A8982",
"]  c #908F8A",
"[  c #959086",
"{  c #9F9587",
"}  c #92918B",
"|  c #9B9688",
" . c #9E9A8E",
".. c #989790",
"X. c #9D9A93",
"o. c #A29886",
"O. c #AB9E90",
"+. c #A6A29C",
"@. c #B5A99C",
"#. c #BAAEA3",
"$. c #BEB0A3",
"%. c #B3B3AF",
/* pixels */
"I M B 1 ; b B a ) [ B Y / I a 9 * O , ",
"A L * O y b Z P @.O.{ } ` / 9 9 9 O 3 ",
"S W 2 @ t } +.( #.#.o.^ R R c ~ , X O ",
"I E 7 & b } N w e n f k T R v s @ & t ",
"V 8 * k ` +.k a w d o 1 g I 0 o + : a ",
"V 7 $ J X.%.m j d Z   * x N - + + & b ",
"E c o v T X.C N & ;   & Y x & ; g & * ",
"_ q # I X.| a 6 : < * + u ` 9 6 : O & ",
"s m > B ) [ V W & D B s Z  .7 O . X @ ",
"N p # 3 K x 2 a k 9 k 0 7 J $ + ; j b ",
"F < $ . $ * 6 u a 9 & t 5 * = > F K ' ",
"/ x G * X o o 4 ; g x y 0 y a 3 R D z ",
"Z b / G @ + X # & x g 4 n V e 1 Z t 4 ",
"F x r J @ . 7   & z < @ & > k * $ X $ ",
"v 7 + * o @ x   : ] & ; 4 ; y a : % * ",
"$ @   X o & x O & ! < 3 Z 7 5 7 y 9 ; ",
"$ @ ; & 1 D & h o < x Z j @ = 6 B ; X ",
"> 2 p O z Q g y O < l T g * & 6 D 1 X ",
"v v G , * U W h h G v J P > 6 5 r o X "
};
