/* XPM */
static char *result[] = {
/* columns rows colors chars-per-pixel */
"19 19 77 1 ",
"  c #000020",
". c #000019",
"X c #000027",
"o c #000047",
"O c #000028",
"+ c #00001E",
"@ c #000025",
"# c #000015",
"$ c #00001A",
"% c #000021",
"& c #000012",
"* c #000010",
"= c #000011",
"- c #00003A",
"; c #00003D",
": c #00002B",
"> c #000024",
", c #00003C",
"< c #000077",
"1 c #00006D",
"2 c #000016",
"3 c #00002A",
"4 c #00001D",
"5 c #000026",
"6 c #000018",
"7 c #00005F",
"8 c #00006F",
"9 c #000031",
"0 c #00001F",
"q c #000023",
"w c #000041",
"e c #00001C",
"r c #000022",
"t c #000014",
"y c #000034",
"u c #000050",
"i c #000053",
"p c #000029",
"a c #00002D",
"s c #000013",
"d c #000037",
"f c #000036",
"g c #000035",
"h c #00002C",
"j c #000064",
"k c #00005A",
"l c #00001B",
"z c #000038",
"x c #000078",
"c c #000042",
"v c #00002E",
"b c #000017",
"n c #000045",
"m c #000043",
"M c #000044",
"N c #000030",
"B c #000052",
"V c #000054",
"C c #00003F",
"Z c #000069",
"A c #00003B",
"S c #00003E",
"D c #00005E",
"F c #00005D",
"G c #000073",
"H c #000046",
"J c #00004E",
"K c #000074",
"L c #000040",
"P c #00002F",
"I c #00004A",
"U c #000039",
"Y c #000032",
"T c #000061",
"R c #000059",
"E c #00004F",
"W c #00005B",
/* pixels */
" .XoO+@X+#$%%&*=-;:",
".>,<1,:@$=*2X34$556",
"*&57892#40#*qwOe0r.",
"et+yu;$**$O9;ip=*#4",
"ap>aaX54ssp>+9dq#s2",
"dpe>0=&@fr3%&+gpphg",
"jkf62l=&Xd@XO3z *2O",
",x1c 0r>:vb*&%nm6&2",
"MizaNdq64ql**=3BVvq",
"dC%==%:#*=44t*#9ZBg",
"==rAdq z 62aS3rpDVv",
"%s=OFGmu,5aMHlt6zJo",
"3r$6;KVnL bPdl=*#O-",
"0.N;Icl*&aaq9Nl&=65",
"re#%Cn:l&&OSUndPX>>",
"bq>0:>e>q#t,Y+lrO3e",
"PO%r5%=*#OmTR5t*=0d",
"gP2s6r+#&+EWL:>e0:p",
"= 4**sX@qyiy2=$PMSl"
};
