/* XPM */
static char *result[] = {
/* columns rows colors chars-per-pixel */
"19 19 119 2 ",
"   c #656565",
".  c gray38",
"X  c #535353",
"o  c #939393",
"O  c gray62",
"+  c #929292",
"@  c gray57",
"#  c gray48",
"$  c gray33",
"%  c #8E8E8E",
"&  c #8B8B8B",
"*  c #808080",
"=  c gray27",
"-  c #606060",
";  c #7B7B7B",
":  c #6C6C6C",
">  c #676767",
",  c gray60",
"<  c #909090",
"1  c gray66",
"2  c #A7A7A7",
"3  c #979797",
"4  c gray47",
"5  c gray36",
"6  c #989898",
"7  c #888888",
"8  c #444444",
"9  c gray52",
"0  c gray70",
"q  c #ACACAC",
"w  c gray64",
"e  c #9F9F9F",
"r  c #959595",
"t  c gray50",
"y  c #393939",
"u  c #A2A2A2",
"i  c #A0A0A0",
"p  c gray61",
"a  c #3C3C3C",
"s  c #555555",
"d  c gray35",
"f  c #484848",
"g  c #2F2F2F",
"h  c #7C7C7C",
"j  c #434343",
"k  c gray21",
"l  c #323232",
"z  c #A4A4A4",
"x  c #9D9D9D",
"c  c gray49",
"v  c #313131",
"b  c #727272",
"n  c gray31",
"m  c #6A6A6A",
"M  c #5F5F5F",
"N  c #4B4B4B",
"B  c gray28",
"V  c gray37",
"C  c #585858",
"Z  c gray26",
"A  c gray63",
"S  c gray58",
"D  c gray59",
"F  c gray34",
"G  c gray67",
"H  c #5B5B5B",
"J  c gray45",
"K  c #6D6D6D",
"L  c #2D2D2D",
"P  c #797979",
"I  c gray43",
"U  c gray29",
"Y  c gray44",
"T  c gray68",
"R  c #565656",
"E  c gray32",
"W  c #686868",
"Q  c #353535",
"!  c #AFAFAF",
"~  c gray46",
"^  c gray74",
"/  c gray65",
"(  c #767676",
")  c #5D5D5D",
"_  c #505050",
"`  c #B2B2B2",
"'  c #9B9B9B",
"]  c gray42",
"[  c #A5A5A5",
"{  c #4E4E4E",
"}  c #494949",
"|  c gray56",
" . c #4C4C4C",
".. c #8D8D8D",
"X. c #898989",
"o. c #777777",
"O. c gray30",
"+. c gray24",
"@. c gray39",
"#. c #646464",
"$. c #464646",
"%. c #818181",
"&. c #B6B6B6",
"*. c gray71",
"=. c #838383",
"-. c #AEAEAE",
";. c #AAAAAA",
":. c #A9A9A9",
">. c gray55",
",. c #515151",
"<. c #3E3E3E",
"1. c gray20",
"2. c DimGray",
"3. c gray40",
"4. c #6F6F6F",
"5. c #9A9A9A",
"6. c gray23",
"7. c #3A3A3A",
"8. c #343434",
/* pixels */
"  . X o O + @ # $ % & * = - * ; : >   ",
", < X 1 2 3 3 4 5 6 6 7 8 9 0 q w e e ",
"r t y u i 3 p 4 a s d f g h u e 3 o @ ",
"j k l + z O x c v b 9 c n d m M N B = ",
"V C Z t A 3 S 4 v e q D F C X s M V V ",
"G A 5 H t J K 5 L d P I U z Y + T T G ",
"A , R E W $ Q E - m m F a ! W 7 x x i ",
"4 ~ j P ! w d ^ / e u ( U G V ) I K b ",
"f s H J i z _ ` p S ' Y B 2 M X 8 a Q ",
", e u ] O [ { z ' S 6 K } z : 1 1 | M ",
"p r @ ] A i  .c O ..7 R Z P s X.% o.$ ",
"O p & : w e O.N 5  .j +.N @.W W #.H $.",
"e x %.] i x U $.< D , , x ! &.&.*.O ) ",
"X.=.H @., , } 8 -.;.! :.;.[ i i x >.,.",
"M H <.B X X k 1.; X.>.o D 6 | ..% * { ",
"X.i X.#.} B $.B s B f   ] ] W W 2.M j ",
"S e e 1 G T 2 2 ! P n ~ J N 5 m m M E ",
"3.4.Y : 4.4.m 3.> { } | D K | 5., & M ",
"8 6.a 7.k 8.l l l l 6.= } = C d d F O."
};
