/* XPM */
static char *result[] = {
/* columns rows colors chars-per-pixel */
"19 19 199 2 ",
"   c #4E2121",
".  c #4F2121",
"X  c #502222",
"o  c #462828",
"O  c #4C3A3A",
"+  c #512020",
"@  c #4D2020",
"#  c #502323",
"$  c #522424",
"%  c #4B2424",
"&  c #4A3939",
"*  c #562323",
"=  c #4F2222",
"-  c #4A2020",
";  c #481B1B",
":  c #4E2222",
">  c #4D2121",
",  c #4B1F1F",
"<  c #560000",
"1  c #590000",
"2  c #570000",
"3  c #450C0C",
"4  c #553333",
"5  c #5D0000",
"6  c #580000",
"7  c #510707",
"8  c #523030",
"9  c #610101",
"0  c #550000",
"q  c #540000",
"w  c #520000",
"e  c #510000",
"r  c #4C0000",
"t  c #4F0000",
"y  c #460100",
"u  c #380C0B",
"i  c #4A2F2F",
"p  c #510101",
"a  c #500000",
"s  c #4B0000",
"d  c #4E0000",
"f  c #490707",
"g  c #503333",
"h  c #540202",
"j  c #4D0000",
"k  c #4B0100",
"l  c #470100",
"z  c #481C1C",
"x  c #491C1C",
"c  c #451919",
"v  c #4F3030",
"b  c #604A4A",
"n  c #4C1D1D",
"m  c #471A1A",
"M  c #4A1D1D",
"N  c #491B1B",
"B  c #4D1F1F",
"V  c #592C2C",
"C  c #4D2222",
"Z  c #442929",
"A  c #530000",
"S  c #4C1212",
"D  c #5E3232",
"F  c #460D0D",
"G  c #5E0000",
"H  c #480100",
"J  c #3E1211",
"K  c #512D2D",
"L  c #490100",
"P  c #4A0000",
"I  c #430100",
"U  c #390C0B",
"Y  c #5A2D2D",
"T  c #540101",
"R  c #532C2C",
"E  c #572A2A",
"W  c #491D1D",
"Q  c #471C1C",
"!  c #473D3D",
"~  c #562F2F",
"^  c #461A1A",
"/  c #4A1E1E",
"(  c #4C1E1E",
")  c #5B3030",
"_  c #462727",
"`  c #5B1212",
"'  c #3F2D2D",
"]  c #5F1515",
"[  c #420B0B",
"{  c #541515",
"}  c #4A0100",
"|  c #440100",
" . c #382A2A",
".. c #521313",
"X. c #480000",
"o. c #512424",
"O. c #4A4141",
"+. c #502020",
"@. c #4C2222",
"#. c #4F2323",
"$. c #4B2C2C",
"%. c #544545",
"&. c #531D1D",
"*. c #481A1A",
"=. c #433333",
"-. c #5B1313",
";. c #491010",
":. c #543535",
">. c #5F0000",
",. c #481010",
"<. c #440F0E",
"1. c #42100F",
"2. c #443A3A",
"3. c #4E1F1F",
"4. c #4B0E0E",
"5. c #4A1010",
"6. c #480F0F",
"7. c #470D0D",
"8. c #491211",
"9. c #441110",
"0. c #3E1C1B",
"q. c #513E3E",
"w. c #4C0E0E",
"e. c #4C1111",
"r. c #491111",
"t. c #470E0E",
"y. c #512929",
"u. c #532727",
"i. c #4A3737",
"p. c #512F2F",
"a. c #4E1E1E",
"s. c #592D2D",
"d. c #471B1B",
"f. c #512222",
"g. c #4B1D1D",
"h. c #452525",
"j. c #5A1010",
"k. c #421D1D",
"l. c #5C1919",
"z. c #4A0C0C",
"x. c #4B1B1B",
"c. c #4B0F0F",
"v. c #4B1212",
"b. c #4E1515",
"n. c #4A1111",
"m. c #430E0D",
"M. c #45100F",
"N. c #3D2827",
"B. c #532929",
"V. c #4A0F0F",
"C. c #490F0F",
"Z. c #490E0E",
"A. c #450B0B",
"S. c #480D0D",
"D. c #431A1A",
"F. c #4B1E1E",
"G. c #4A1F1F",
"H. c #4F2020",
"J. c #502424",
"K. c #4E2323",
"L. c #4D4444",
"P. c #532B2B",
"I. c #522525",
"U. c #552929",
"Y. c #482222",
"T. c #443232",
"R. c #4F1D1D",
"E. c #431616",
"W. c #3D2B2B",
"Q. c #5A1111",
"!. c #480505",
"~. c #482727",
"^. c #4F0505",
"/. c #4B0505",
"(. c #470605",
"). c #460605",
"_. c #3B2D2D",
"`. c #541717",
"'. c #4E0505",
"]. c #4C0505",
"[. c #4A0505",
"{. c #490505",
"}. c #410B0A",
"|. c #452929",
" X c #550707",
".X c #4A0404",
"XX c #423232",
"oX c #413534",
"OX c #403433",
"+X c #464343",
"@X c #4D4141",
"#X c #463636",
"$X c #453535",
"%X c #403232",
"&X c #3C3130",
"*X c #403635",
"=X c #484343",
"-X c #403030",
";X c #433232",
/* pixels */
"  . X o O + @ # $ . % & * = - ; : > , ",
"< 1 2 3 4 5 2 2 6 < 7 8 9 6 0 6 q w e ",
"r t y u i p a s d d f g h a j d j k l ",
"z x z c v b n m M N B V @ C : o Z + @ ",
"A A A w S D 1 < 0 q 0 q w w w F * G 2 ",
"r r H y J K d t t e j L r P I U Y T e ",
"R n z M M E W Q ! ~ B ^ / ( M @ ) > _ ",
"` < A q e a t t ' ] 0 q w A w a t e [ ",
"{ d r s r } y |  ...w e r r L r X.I u ",
"o.W ^ O.~ +.@., o.#.z $.%.&.( ^ *.n , ",
"a t e =.-.1 A w e e d ;.:.>.0 e 0 6 e ",
",.<.1.2.3.4.5.6.7.8.9.0.q.w.e.r.7.4.t.",
"y.n M u.  z B , ^ i.p.a.s.d.X f.*.g.h.",
"j.< A w A t a a a k.l.0 w A 0 6 A 2 z.",
"x.c.5.v.e.b.n.m.M.N.B.V.C.6.Z.Z.A.S.D.",
"F.G.H.J.K.L.P.N , I.U.( M Y.T.R.E.c > ",
"< t e t d W.Q.< w q t t e !.~.G 0 w e ",
"^././.(.)._.`.'.].].[.{.(.}.|. X^..X].",
"XXXX=.oXOX+X@X#X#X$XXX%X&X*X=X#X=.-X;X"
};
