/* XPM */
static char *result[] = {
/* columns rows colors chars-per-pixel */
"32 32 143 2 ",
"   c #102008",
".  c #102A08",
"X  c #1A4512",
"o  c #184210",
"O  c #103108",
"+  c #102D08",
"@  c #205218",
"#  c #1C4914",
"$  c #13370B",
"%  c #12350A",
"&  c #173F0F",
"*  c #1E4E16",
"=  c #163D0E",
"-  c #12310A",
";  c #102408",
":  c #14350C",
">  c #102E08",
",  c #102608",
"<  c #142F0C",
"1  c #1B4413",
"2  c #14320C",
"3  c #173E0F",
"4  c #15370D",
"5  c #153B0D",
"6  c #23581B",
"7  c #1E4D16",
"8  c #102708",
"9  c #22551A",
"0  c #194411",
"q  c #122B0A",
"w  c #1A4612",
"e  c #13300B",
"r  c #122F0A",
"t  c #163A0E",
"y  c #16370E",
"u  c #14300C",
"i  c #13330B",
"p  c #255C1D",
"a  c #2C6823",
"s  c #275E1E",
"d  c #2E6D24",
"f  c #204E18",
"g  c #122E0A",
"h  c #29621E",
"j  c #183D10",
"k  c #153C0D",
"l  c #184110",
"z  c #1C4A14",
"x  c #2B6622",
"c  c #173B0F",
"v  c #2C6924",
"b  c #357B27",
"n  c #1B4313",
"m  c #15340D",
"M  c #24591C",
"N  c #1B4813",
"B  c #102B08",
"V  c #22561A",
"C  c #163E0E",
"Z  c #24581B",
"A  c #102308",
"S  c #2B6720",
"D  c #3D892D",
"F  c #2F6F24",
"G  c #2C6721",
"H  c #265C1D",
"J  c #1D4C15",
"K  c #112B09",
"L  c #17380F",
"P  c #327527",
"I  c #14340C",
"U  c #112509",
"Y  c #12280A",
"T  c #173C0F",
"R  c #193E11",
"E  c #14390C",
"W  c #15350D",
"Q  c #1B4713",
"!  c #29641F",
"~  c #143A0C",
"^  c #1F4F17",
"/  c #2F6F27",
"(  c #296421",
")  c #2C6922",
"_  c #296320",
"`  c #16390E",
"'  c #102808",
"]  c #14330C",
"[  c #112D09",
"{  c #183A10",
"}  c #102908",
"|  c #113409",
" . c #17400F",
".. c #16340E",
"X. c #142C0C",
"o. c #13340B",
"O. c #194311",
"+. c #1C4614",
"@. c #285F1F",
"#. c #255A1C",
"$. c #215419",
"%. c #1D4B15",
"&. c #1A4112",
"*. c #215519",
"=. c #132D0B",
"-. c #194011",
";. c #132F0B",
":. c #183B10",
">. c #205118",
",. c #183E10",
"<. c #12320A",
"1. c #1C4814",
"2. c #13310B",
"3. c #112909",
"4. c #2A6622",
"5. c #2E6C23",
"6. c #1F4E16",
"7. c #16350E",
"8. c #1A4212",
"9. c #388029",
"0. c #367D29",
"q. c #275F1F",
"w. c #14360C",
"e. c #38812B",
"r. c #255B1D",
"t. c #2A6521",
"y. c #16380E",
"u. c #112F09",
"i. c #132C0B",
"p. c #215218",
"a. c #23571B",
"s. c #14310C",
"d. c #317327",
"f. c #347927",
"g. c #27601F",
"h. c #1E4A16",
"j. c #327629",
"k. c #296220",
"l. c #1A3E12",
"z. c #28601F",
"x. c #13280B",
"c. c #1F5017",
"v. c #2A6421",
/* pixels */
"    . X o O +       . X @ @ # $ O % & * = - .   ;   : X > ;     ",
"  , O < 1 2 3 4 ,   ; 5 @ 6 7 8 8       4 9 0 %       q w -     ",
"e r e t w y u i -   ; # p a @ q           - s d f g     X h X g ",
"j k l % X q   ; z - . $ 6 x @ X ;           c v b p n m M @ N B ",
"> ; ; i % ;     # V o C C Z @ & A ;       , O S D F G H @ @ 0 % ",
"& ;     8 q     & C A   ; - @ J q   K L > 8 O 6 P Z I U Y 8 T X ",
"a R ;   , = O t $ A         4 6 @ # E W T Q 3 Q Z C           L ",
"5 * * Q Q 9 S ! ~           , ^ a / o 8   ; : * ( X           . ",
"8 ; l 0 N o ) F J 4 . ; ,   > @ s _ @ +       4 V J ` Y       ' ",
"      5 q ; ] C [   q A {   } | 8 q $  .Y     & * | 8 q = . > A ",
"      ..X.    o.+     . o.o E A       } E - , O.5 O B ; ; : O.; ",
". g   +.0 g . B 8 B O % l l 0 Y         B T = Q 5 A       ; O U ",
"- & ^ @.#.$.& ;         + & O.%.&.> ; ; , O ~ | O A         ; 8 ",
"% O.p *.C = W =.Y       , # $   ; -.g   > E O 8 A             + ",
"L V V X $ * 8     ;.. ; m 5 E .     : & O O O -               < ",
":.& { k %.>.8       q %.%.V %.$.# % O < g   ; = +         . ,.y ",
"    . <.~ | |         : H V 1.@ 5 ~ A   : & 4 l % ;   . . O U   ",
"    ; Y 8 . ; 8   ,     * 2.A ; 3.= .     @ @ 4.5.6.L 4 4 =.    ",
"    A   ; ' ; ;   } } 7.$ 8         W ` 8.@ p 9.0.q.1.Q ~ % ;   ",
", ;       Y y t w.t t W t <.;       8   4 ^ a e.r.e A   ; . O + ",
"- } A     g O...; > . } + 8       , C   . Q x t.J A         Y $ ",
"E B . , o.T * y.u ; B , A } O , g B e A 8 l V *.N             O ",
"O O w 5 N ^ Z @ l         ; O r u.        % 7 * N :           O ",
"O 5 O.B A B % z z q         +     i ;     < %.[     8 ;     , O ",
"O $ | 8     ; 8.% u.i.      > + e . A     + >.4         K g > $ ",
"5 <.k 8       c N B 8 A =.e 6.V &.m       , 9 6 4 .   , o.p.p & ",
"# E q 3.,     & N + 8 ;   , %.*.#.6 X + ; o.a.X 8 A 8 5 9 a H 6.",
"s.;       8 e Q V l O + . $ $ q * d.f.g.p V C A       ; @ x #.* ",
",.8         ; * p V l O O O B     h.d j.k.V $           X *.w w ",
"[ + ;       . % * V @ c B O ;   , l.s z.Z N 5 -         g E x.B ",
"8 ; O - > > O A ; j * @ z T 4 > w.* V N W 8   ; u.B     > 8   ; ",
"    . X %.$ B       5 @ V @ V c.@ V v.@ + ;       4 g   B       "
};
