/* XPM */
static char *result[] = {
/* columns rows colors chars-per-pixel */
"32 32 75 1 ",
"  c #020202",
". c #00000E",
"X c #0D0D0B",
"o c #100D07",
"O c #100F0E",
"+ c #0F120D",
"@ c #13120E",
"# c #19160F",
"$ c #000015",
"% c #0A0A16",
"& c #01011D",
"* c #141413",
"= c #1A1713",
"- c #1D1B15",
"; c #17171F",
": c #1D1C1C",
"> c #22170A",
", c #231D0F",
"< c #221D15",
"1 c #201E1B",
"2 c #1B2515",
"3 c #1E241B",
"4 c #29230E",
"5 c #262116",
"6 c #292215",
"7 c #2D2812",
"8 c #24221D",
"9 c #29251D",
"0 c #21281D",
"q c #2D281F",
"w c #352712",
"e c #392D15",
"r c #32261A",
"t c #362C1D",
"y c #3C2E18",
"u c #3E311B",
"i c #000021",
"p c #00002A",
"a c #1B1B22",
"s c #1B1B2A",
"d c #000032",
"f c #00003A",
"g c #0B0B3D",
"h c #1E212F",
"j c #1E2131",
"k c #242423",
"l c #292723",
"z c #262925",
"x c #2B2A24",
"c c #222229",
"v c #2E262C",
"b c #272A2B",
"n c #2C2C2C",
"m c #322D24",
"M c #3C3224",
"N c #32312B",
"B c #2A2431",
"V c #333333",
"C c gray24",
"Z c #413526",
"A c #413F38",
"S c #5F452C",
"D c #4C4030",
"F c #46413A",
"G c #664726",
"H c #64482F",
"J c #6A4928",
"K c #000044",
"L c #0B0B43",
"P c #00004A",
"I c #000056",
"U c #000063",
"Y c #00006A",
"T c #4E4E4E",
"R c #515151",
/* pixels */
"2332:k:==--:-2332328bhjjhbx80222",
"33kk=:**   X:zNkkkkksLggL:<<883k",
"kkkkkkkkkkk88kk1kkk8:111:1118kk8",
":VVV::8-1o88-*-kklxl*X=@X**O-85k",
"kTTV:FZ-r6uM<>9889-<*@X%@*XX-85k",
"kRTV8ql89rkbxqV9lNNl==O***=*<588",
"-:k:-k8h:a51115-:<8:1111-<<1<<,:",
"knVnkk8lkkkkkkbkkblbbbklkblblbkz",
"kTTVkF8bt#,o4-kkkkXX-lkCbVA:*XXk",
"hTTNkDlk8OO@@58kka*=*kknk6989=-k",
":zkk:1:::k1kh::-:::-:::::---<:-:",
"k338bkk2kkklckkkkkbkzk899lkl99kk",
"k8l7kk8kk8k8318kk888k86856k8885k",
"k8mxkk808kk8868kk8k8kk5868k8588k",
"MZMZMZMMMZMZMZMMMZMZMZMMMZMZMZMM",
"eueuwuyywueueuyyeueyeuyyeueueuyy",
"2z330h382223233223kkkkzkk88kzbk2",
"k8h*@****++*+-kkkkkkkkkkkkkkkkkk",
"8k-;=%UUKIP  -k1k888k111k8881kk8",
"8k;*XPI.pKY& ;kkaVCn1911-@81-*-k",
"8k;X fUfIYY$ -kkkTTV:AZ<r<tM<><k",
"8k; $&PddKd& :kakRTVkmlklrlzk:kk",
"3k- &&& iiii -k1111:1111111::111",
"kk-$$$$$$$$$$akkkNVVkzzcssssa98k",
"kkaassssssssskbkkTTVkJGvLggga<<k",
"kkkkkkkkkklkkzkkaTTVkSHBPPPP%w<k",
"::::::::::::::3::lkka1k:1k:1a1::",
"b99kbkkllzkk89kkbkklbkkkkzkckkkk",
"88k6kk6k88k8818k8816kk181kk9kk8k",
"k888kk888kkk868kk8k8kk888kk8881k",
"MZMZMZMMuZMZMZMMMZMZMZMMMZMZMZMM",
"eueyeuyyeueuwuyyeueueuyyeueueuyy"
};
