/* XPM */
static char *result[] = {
/* columns rows colors chars-per-pixel */
"32 32 190 2 ",
"   c #7E542C",
".  c #664624",
"X  c #5D4021",
"o  c #533B1C",
"O  c #5E4321",
"+  c #5B3F20",
"@  c #573D1F",
"#  c #5D3F20",
"$  c #604222",
"%  c #614222",
"&  c #5A3D1F",
"*  c #5E4021",
"=  c #624322",
"-  c #4F391B",
";  c #664723",
":  c #4A3118",
">  c #714C27",
",  c #7B5229",
"<  c #634523",
"1  c #754D2A",
"2  c #54391C",
"3  c #604221",
"4  c #5D3D1F",
"5  c #56391D",
"6  c #543B1D",
"7  c #5C3D1F",
"8  c #5A3E20",
"9  c #4F361B",
"0  c #604422",
"q  c #6B4824",
"w  c #52391C",
"e  c #624321",
"r  c #5C4020",
"t  c #754F27",
"y  c #7E532B",
"u  c #5D4121",
"i  c #694625",
"p  c #4C3319",
"a  c #684725",
"s  c #7A5129",
"d  c #563D1E",
"f  c #5F4121",
"g  c #6C4926",
"h  c #563A1D",
"j  c #583A1E",
"k  c #724C27",
"l  c #6A4825",
"z  c #674724",
"x  c #644323",
"c  c #51381C",
"v  c #5F4322",
"b  c #6C4925",
"n  c #50371B",
"m  c #784F29",
"M  c #52381C",
"N  c #674824",
"B  c #734D27",
"V  c #4E351A",
"C  c #573C1E",
"Z  c #795029",
"A  c #6D4826",
"S  c #4D341A",
"D  c #664724",
"F  c #6E4B25",
"G  c #614021",
"H  c #734C28",
"J  c #4B3219",
"K  c #644523",
"L  c #774E29",
"P  c #744E28",
"I  c #614422",
"U  c #694624",
"Y  c #5F3E20",
"T  c #654423",
"R  c #5A3E1F",
"E  c #774F29",
"W  c #6F4B27",
"Q  c #634423",
"!  c #5A3F20",
"~  c #614522",
"^  c #614321",
"/  c #624122",
"(  c #674424",
")  c #744D28",
"_  c #573D1E",
"`  c #6E4A26",
"'  c #684824",
"]  c #543A1D",
"[  c #5E4121",
"{  c #5C3F20",
"}  c #734D28",
"|  c #4D3419",
" . c #573A1E",
".. c #754D28",
"X. c #594020",
"o. c #694825",
"O. c #7C512B",
"+. c #654624",
"@. c #583D1F",
"#. c #694725",
"$. c #553C1D",
"%. c #4F351A",
"&. c #593F1F",
"*. c #573E1F",
"=. c #51381B",
"-. c #6D4926",
";. c #583C1F",
":. c #6A4725",
">. c #644623",
",. c #714B27",
"<. c #6E4926",
"1. c #553B1D",
"2. c #6C4725",
"3. c #674624",
"4. c #5C3E20",
"5. c #5D4221",
"6. c #6B4825",
"7. c #583F1F",
"8. c #6B4925",
"9. c #614323",
"0. c #5E4221",
"q. c #5A3B1F",
"w. c #614221",
"e. c #654523",
"r. c #5F3F21",
"t. c #573E1E",
"y. c #4F361A",
"u. c #614121",
"i. c #704B27",
"p. c #563C1E",
"a. c #654524",
"s. c #563B1E",
"d. c #6F4A27",
"f. c #654623",
"g. c #764E28",
"h. c #533A1D",
"j. c #614322",
"k. c #6C4A26",
"l. c #7D522B",
"z. c #4B3218",
"x. c #724D27",
"c. c #634322",
"v. c #5B3E20",
"b. c #583B1E",
"n. c #785029",
"m. c #5B3D20",
"M. c #6C4825",
"N. c #674523",
"B. c #54391D",
"V. c #59401F",
"C. c #624423",
"Z. c #583D1E",
"A. c #684625",
"S. c #644524",
"D. c #5B4120",
"F. c #764E29",
"G. c #704A27",
"H. c #764F29",
"J. c #664523",
"K. c #604322",
"L. c #533A1C",
"P. c #6D4825",
"I. c #754E28",
"U. c #634522",
"Y. c #6A4925",
"T. c #634422",
"R. c #593D1F",
"E. c #6C4A25",
"W. c #5E4322",
"Q. c #724C28",
"!. c #694724",
"~. c #6B4926",
"^. c #6E4927",
"/. c #51361B",
"(. c #684624",
"). c #704B26",
"_. c #714B28",
"`. c #664524",
"'. c #6B4826",
"]. c #634222",
"[. c #734E28",
"{. c #784E2A",
"}. c #674524",
"|. c #6C4826",
" X c #7A502B",
".X c #5B4020",
"XX c #624323",
"oX c #614423",
"OX c #553A1D",
"+X c #794E2B",
/* pixels */
"                                                                ",
". . . X o O + @ # X X X $ o O X X o O + @ + o O % & * + . = - ; ",
": > , # < 1 2 : 3 4 5 5 6 < 1 7 . < 1 8 9 0 < 1 q w e r t y u i ",
"p a s d < 1 f : g h 5 5 6 < 1 j . < 1 k l z < 1 q w e r t y u x ",
"5 c v w < 1 b n m M 5 5 6 < 1 M . < 1 , , N < 1 q w e r B y u x ",
"= : V C < 1 Z A Z S 5 5 6 < 1 c D < 1 Z , D < 1 q w e r F y u G ",
"H V J K < 1 s s L J 5 5 6 < 1 w D < 1 P , I < 1 q w e r U y u Y ",
"> T R * < 1 E , W : 5 5 6 < 1 Q < < 1 U m ! < 1 q w e ~ ^ y u / ",
"( , ) _ < 1 ` , ' : 5 5 6 < 1 B v < 1 ] [ 6 < 1 q w e ~ { y u x ",
"C Z } w < 1 T , . |  .5 6 < 1 ..X.< 1 : J 6 < 1 q w e o.c O.u o.",
"S l +.w < 1 @.s + w 5 5 6 < 1 #.$.< 1 %.: &.< 1 q w e ` S } u o.",
"V *.V d < 1 =.-.w ;.5 5 6 < 1 _ 6 < 1 :.X >.< 1 q w e ,.9 <.u o.",
"2 : : X.< 1 p X.p * 2 5 6 < 1 p 6 < 1 , Z N < 1 q w e ` 1.2.u 3.",
"4.: | 5.< 1 : : : 6.c j 6 < 1 : 7.< 1 , , = < 1 q w e 8.u 2.u G ",
"9.: M 0.< 1 : : : 8.c q.6 < 1 : 5.< 1 P , r < 1 q w w.e.K 2.u G ",
"9.9 r.t.< 1 p : : ,.y.q.6 < 1 w K < 1 6., 8 < 1 q w u.3 b i.u x ",
"p.a.Q 6 < 1 s.: n d.y.q.6 < 1 . f.< 1 r g.h.< 1 q w u.C m P u x ",
"p j.1.6 < 1 8.p + k.6  .6 < 1 g.f < 1 =.[ =.< 1 q w = n s l.u o.",
"z.V z.6 < 1 , + x.c.v.5 6 < 1 s b.< 1 : | 6 < 1 q w . y.Z y u o.",
"9 : : 7.< 1 n.s , m.f 5 6 < 1 ..n < 1 p : $.< 1 q 9 z p P y u x ",
"C : V 5.< 1 M., s M N.2 6 < 1 #.9 < 1 B.: V.< 1 q S a : 6.y u x ",
"C.p Z.v < 1 u., ..V l V 6 < 1 X y.< 1 . d j.< 1 q S D S % l.u Y ",
"A.d S.D.< 1 w F.a.z.d.S 6 < 1 V 6 < 1 E G.D < 1 q S 8.9 9 H.u Y ",
"J.K.,.7.< 1 : [ L.y.-.J d < 1 : 7.< 1 Z , . < 1 q S l s.: P.u Y ",
"C m I.t.< 1 V z.z.6 #.: t.< 1 | 5.< 1 E , X < 1 q S % U.: 2.u / ",
"n } Y.t.< 1 s.: : * T.V t.< 1 + z < 1 k Z R.< 1 q S @.E.S 2.u 3.",
": e.W.6 < 1 K z.: 8.& w t.< 1 ) N < 1 3.Q.h.< 1 !.9 6 F.d 2.u ~.",
": $.w 6 < 1 ^.c 9 H /.;.t.< 1 , z < 1 @.. c < 1 (.n =.> j.).u _.",
"p | J d < 1 `.'.$ > J { t.< 1 , . < 1 =.*.y.< 1 ].n z.a.E.[.u {.",
"n : : D.< 1 ] m s $ : }.t.< 1 s v < 1 : J y.< 1 v.;.: _ |.[.u  X",
".X: y.j.< 1 z.XXA 9 J -.6 < 1 _.7.< 1 : : w < 1 $.% : V W.[.u  X",
"Q | d oX< 1 z.| c : w Q 6 < 1 OX6 < 1 | : d < 1 c D.p : n [.u +X"
};
