/* XPM */
static char *result[] = {
/* columns rows colors chars-per-pixel */
"32 32 172 2 ",
"   c #0B0B0B",
".  c #180F0F",
"X  c #170B0B",
"o  c #171F07",
"O  c #181F0A",
"+  c #131212",
"@  c #1E1515",
"#  c #1C1B1B",
"$  c #301E0C",
"%  c #201E1C",
"&  c #361511",
"*  c #3A1B18",
"=  c #1C2112",
"-  c #252011",
";  c #252A19",
":  c #332414",
">  c #39201D",
",  c #342D1A",
"<  c #3C2B19",
"1  c #33231A",
"2  c #242322",
"3  c #2B2424",
"4  c #2C2C2C",
"5  c #2C2925",
"6  c #3C2A25",
"7  c #342D2D",
"8  c #3B2B29",
"9  c #3F2424",
"0  c #2E3224",
"q  c #33322E",
"w  c #343433",
"e  c #3B3B37",
"r  c #3C3B3B",
"t  c #3D3333",
"y  c #4E0C0C",
"u  c #5F0808",
"i  c #401714",
"p  c #4A1010",
"a  c #461E18",
"s  c #4E1C1A",
"d  c #5E1A1A",
"f  c #551514",
"g  c #660D0D",
"h  c #6A1D1C",
"j  c #611313",
"k  c #751C1C",
"l  c #751616",
"z  c #402E1A",
"x  c #68281A",
"c  c #673E13",
"v  c #432423",
"b  c #47392A",
"n  c #513A24",
"m  c #403737",
"M  c #4E3C3C",
"N  c #453E37",
"B  c #503636",
"V  c #583C3C",
"C  c #692626",
"Z  c #6B2929",
"A  c #7E2424",
"S  c #7A2D2D",
"D  c #733329",
"F  c #663333",
"G  c #7E4011",
"H  c #5C452E",
"J  c #404732",
"K  c #4D4239",
"L  c #564337",
"P  c #5D4C3F",
"I  c #614424",
"U  c #694D37",
"Y  c #714035",
"T  c #434342",
"R  c #4D4D4D",
"E  c #4B4141",
"W  c #584E49",
"Q  c #545454",
"!  c #5C5C5C",
"~  c #5C5656",
"^  c #675041",
"/  c #6E5B46",
"(  c #615C54",
")  c #705353",
"_  c #706155",
"`  c #7C6F5E",
"'  c #626161",
"]  c DimGray",
"[  c #6D6763",
"{  c #727272",
"}  c #7E7E7E",
"|  c #831F1F",
" . c #822020",
".. c #8D2A2A",
"X. c #942F2F",
"o. c #89382F",
"O. c #873330",
"+. c #9E3939",
"@. c #973333",
"#. c #A53E3E",
"$. c #884239",
"%. c #92443C",
"&. c #9D423B",
"*. c #885339",
"=. c #885D39",
"-. c #815B3F",
";. c #94613C",
":. c #844541",
">. c #875D47",
",. c #945143",
"<. c #A54543",
"1. c #B0504C",
"2. c #896349",
"3. c #986743",
"4. c #9E7554",
"5. c #A86748",
"6. c #A06D48",
"7. c #A27047",
"8. c #A77349",
"9. c #B1774F",
"0. c #B87053",
"q. c #827673",
"w. c #9E7C74",
"e. c #AD6767",
"r. c #C17443",
"t. c #C76759",
"y. c #C77A5A",
"u. c #D47D75",
"i. c #BC8259",
"p. c #AC886E",
"a. c #B38564",
"s. c #BE977B",
"d. c #CF875F",
"f. c #C9875D",
"g. c #C68367",
"h. c #D38F62",
"j. c #C6996E",
"k. c #D9916C",
"l. c #D5966B",
"z. c #E19377",
"x. c #EAA478",
"c. c #898686",
"v. c #928A81",
"b. c #9A9A9A",
"n. c #BB9393",
"m. c #A5A89F",
"M. c #A7A7A7",
"N. c #AEACA9",
"B. c #B3B6AD",
"V. c #B4B4B4",
"C. c #BEBBB5",
"Z. c #BBBBBA",
"A. c #D5A585",
"S. c #E2A784",
"D. c #F2AB87",
"F. c #F3B088",
"G. c #F9B58B",
"H. c #ECB897",
"J. c #FAB890",
"K. c #D0B6A3",
"L. c #CBBDB3",
"P. c #C9BAB8",
"I. c #C4C0BC",
"U. c #CDCDCD",
"Y. c #C7C5C2",
"T. c #DECEC3",
"R. c gray85",
"E. c #E6CFC1",
"W. c #F9E6D9",
"Q. c gray92",
"!. c #F3ECE8",
"~. c None",
/* pixels */
"~.~.~.~.~.~.~.~.~.~.~.~.~.~.~.~.~.~.~.~.~.~.~.~.~.~.~.~.~.~.~.~.",
"~.~.~.~.~.~.~.~.~.~.~.~.K.i.h.h.s.!.~.~.~.~.~.~.~.~.~.~.~.~.~.~.",
"~.~.~.~.~.~.~.~.~.~.~.~.a.l.F.x.8.T.~.~.~.~.~.~.~.~.~.~.~.~.~.~.",
"~.~.~.~.~.~.~.~.~.~.~.W.7.l.J.G.8.A.~.~.~.~.~.~.~.~.~.~.~.~.~.~.",
"~.~.~.~.~.~.~.~.~.~.~.E.d.t.j.y.f.H.~.~.~.~.~.~.~.~.~.~.~.~.~.~.",
"~.~.~.~.~.~.~.~.~.R.M.W ;.k.f.k.9.) } U.Q.~.~.~.~.~.~.~.~.~.~.~.",
"~.~.~.~.~.~.~.V.! Q R r U r.&.5.=.q e R { Q.~.~.~.~.~.~.~.~.~.~.",
"~.~.~.~.~.~.M.4 T R R e 8 x c c v w e T 4 ] ~.~.V.Z.~.~.~.~.~.~.",
"~.~.~.~.~.~.M.e R T r M F h s s C m q 4 4 Q Y.c.T ' Q.~.~.~.~.~.",
"~.~.~.~.~.~.N.b ^ L ; w S ..| ..Z 7 5 n U b K [ V.~.~.~.~.~.~.~.",
"~.~.~.~.~.~.p.g.F.f.< # v d f a v 2 ; N M :.,.L.~.~.~.~.~.~.~.~.",
"~.~.~.~.~.~.4.g.S.3.1 + % * 8 e Q ! r H &.+.e.~.~.~.~.~.~.~.~.~.",
"~.~.~.~.~.~./ P p.2.< = 6 H Q Q T w r c. .A n.~.~.~.~.~.~.~.~.~.",
"~.~.~.~.~.~.T >.D.z.,.n %.Y e 4 2 2 0 m.~.~.~.~.~.~.~.~.~.~.~.~.",
"~.~.~.~.~.~.V.>.0.u.t.1.X.A x 8 , ; J B.~.~.~.~.~.~.~.~.~.~.~.~.",
"~.~.~.~.~.~.~.` I *.<.X.g u y > , ; r b.~.~.~.~.~.~.~.~.~.~.~.~.",
"~.~.~.~.~.~.~.C.b < & * $ : % 4 e q 4 w ~.~.~.~.~.~.~.~.~.~.~.~.",
"~.~.~.~.~.~.~.~.C.( 2 w O o O q e w 4 w ~.~.~.~.~.~.~.~.~.~.~.~.",
"~.~.~.~.~.~.~.~.~.b.w 7 v @ # 8 C C 8 e ~.~.~.~.~.~.~.~.~.~.~.~.",
"~.~.~.~.~.~.~.~.~.~.r v p + 3 v k l B N.~.~.~.~.~.~.~.~.~.~.~.~.",
"~.~.~.~.~.~.~.~.~.~.W i * # w F X.A ) ~.~.~.~.~.~.~.~.~.~.~.~.~.",
"~.~.~.~.~.~.~.~.~.~.c.& 2 + v V M E ~ ~.~.~.~.~.~.~.~.~.~.~.~.~.",
"~.~.~.~.~.~.~.~.~.~.U.7 + X 2 w T w ' ~.~.~.~.~.~.~.~.~.~.~.~.~.",
"~.~.~.~.~.~.~.~.~.~.~.c.#   + % 5 > q.~.~.~.~.~.~.~.~.~.~.~.~.~.",
"~.~.~.~.~.~.~.~.~.~.~.~.Z.w + # 3 % R ~.~.~.~.~.~.~.~.~.~.~.~.~.",
"~.~.~.~.~.~.~.~.~.~.~.~.~.{ % 2 4 2 R ~.~.~.~.~.~.~.~.~.~.~.~.~.",
"~.~.~.~.~.~.~.~.~.~.~.~.~.' # 5 7 3 b.~.~.~.~.~.~.~.~.~.~.~.~.~.",
"~.~.~.~.~.~.~.~.~.~.~.~.~.+ + j C v P.~.~.~.~.~.~.~.~.~.~.~.~.~.",
"~.~.~.~.~.~.~.~.~.~.~.~.~.R % j A h Z.~.~.~.~.~.~.~.~.~.~.~.~.~.",
"~.~.~.~.~.~.~.~.~.~.~.~.~.~.w.o.#.O.I.~.~.~.~.~.~.~.~.~.~.~.~.~.",
"~.~.~.~.~.~.~.~.~.~.~.~.~.~.L.$.@.D I.~.~.~.~.~.~.~.~.~.~.~.~.~.",
"~.~.~.~.~.~.~.~.~.~.~.~.~.~.~.~.~.~.~.~.~.~.~.~.~.~.~.~.~.~.~.~."
};
