/* XPM */
static char *result[] = {
/* columns rows colors chars-per-pixel */
"32 32 106 2 ",
"   c #5A4129",
".  c #5C452D",
"X  c #5F4B33",
"o  c #524131",
"O  c #5D472F",
"+  c #604E35",
"@  c #5D482F",
"#  c #5F4C33",
"$  c #625239",
"%  c #625237",
"&  c #625236",
"*  c #614F34",
"=  c #614F36",
"-  c #584734",
";  c #68553F",
":  c #695540",
">  c #625235",
",  c #5F4F38",
"<  c #625234",
"1  c #6C573D",
"2  c #564533",
"3  c #5E4A31",
"4  c #6C573B",
"5  c #6F583F",
"6  c #6C5743",
"7  c #66543A",
"8  c #68553D",
"9  c #69553C",
"0  c #6C5741",
"q  c #735A40",
"w  c #66543D",
"e  c #735A43",
"r  c #735A4A",
"t  c #735A46",
"y  c #735A44",
"u  c #735A3C",
"i  c #6E5B42",
"p  c #766048",
"a  c #6C5739",
"s  c #6F583C",
"d  c #6C573F",
"f  c #57412C",
"g  c #5A4732",
"h  c #997B67",
"j  c #977B65",
"k  c #8D715C",
"l  c #685539",
"z  c #62503B",
"x  c #5C4B36",
"c  c #594530",
"v  c #AE957D",
"b  c #B79F86",
"n  c #B39A81",
"m  c #B8A087",
"M  c #B19980",
"N  c #B49C83",
"B  c #B9A188",
"V  c #B49B83",
"C  c #B59C83",
"Z  c #B59D84",
"A  c #9C846B",
"S  c #BCA38A",
"D  c #BDA48B",
"F  c #BAA188",
"G  c #BBA289",
"H  c #A1886F",
"J  c #735A39",
"K  c #B89F86",
"L  c #66543C",
"P  c #5B442C",
"I  c #6F5844",
"U  c #70593C",
"Y  c #6C5740",
"T  c #65533A",
"R  c #55412E",
"E  c #574532",
"W  c #5E4E37",
"Q  c #695539",
"!  c #665439",
"~  c #69553D",
"^  c #5F4D39",
"/  c #584834",
"(  c #564430",
")  c #5E4931",
"_  c #69553B",
"`  c #65533C",
"'  c #735A47",
"]  c #B29A81",
"[  c #9F866D",
"{  c #9A8169",
"}  c #9E856C",
"|  c #A0876E",
" . c #9C836A",
".. c #977E65",
"X. c #735A3D",
"o. c #6F5842",
"O. c #66523E",
"+. c #876D56",
"@. c #705941",
"#. c #6D5741",
"$. c #735A3F",
"%. c #6D573C",
"&. c #6D573D",
"*. c #624D36",
"=. c #604932",
"-. c #5C4A33",
/* pixels */
"  .     X X . o   X   O O O O o   X   O . X O o     . .   O   o ",
"X + X @ # $ $ o @ $ X % & * = - + $ + $ $ $ $ o X X @ + @ $ @ o ",
"X $ = $ + $ ; - : $ $ $ % > ; , : $ < $ $ $ 1 2 $ + @ 3 @ $   o ",
"X + + @ + & 4 $ 5 6 6 7 6 8 4 $ 5 8 8 6 7 7 4 $ 9 $ @ X $ +   o ",
"X + $ $ $ 0 q w e r t y t t q w e t q r y r u w 5 % @ X $ +   o ",
". . X ; 1 u i p p p p p p p p p p p p p p p p p a s d X @ .   o ",
"f f g ; 1 a p h j j j j j j j j j j j j j j j k l a 1 z x c f o ",
"  . $ $ r q p j v b b n m b M M N B V C B Z A k d r & + X     o ",
"  + $ $ r r p j N S D D D D F G D D D D D Z H k 1 r & $ .   . o ",
"O + $ $ r J p j N S D D D D D S D D D D D K H k a r L #   O P o ",
"X # $ < I J p j N D D D D D D D D D D D D K H k 6 r : @ = X   o ",
". P = 6 U J p j N D D D D D D D D D D D D K H k 1 q s 6 # . P o ",
"f g , 8 1 a p j N D D D D D D D D D D D D K H k l a d z x c f o ",
"X . $ $ Y t p j N D D D D D D D D D D D D K H k 1 r : $ $ . . o ",
"X + $ $ r t p j N D D D D D D D D D D D D K H k a r & $ # @ @ o ",
"X @ + $ Y r p j N D D D D D D D D D D D D K H k 6 r T $ @ + @ o ",
"X @ $ $ r t p j N D D D D D D D D D D D D K H k 6 r : $ @ @ @ o ",
"  $ $ $ I e p j N D D D D D D D D D D D D K H k 1 r T $ X X @ o ",
"R E W : Q Q p j N D D D D D D D D D D D D K H k ! Q ~ ^ / ( R o ",
"  ) $ : e e p j N D D D D D D D D D D D D K H k d e _ ` $ X   o ",
"    $ $ r e p j N D D D D D D D D D D D D K H k 1 r : $ @ $   o ",
"O   + $ r t p j N D D D D D D D D D D D D K H k 1 r : $ P $ . o ",
"X 3 X $ r e p j N G D D D D D G D D D D D Z H k a r : $ + $ P o ",
"X X X $ r ' p j ] G D D D D Z K m D D D D Z [ k a r T $ # $ . o ",
"  . = 4 U q p j A H [ { } H } } } |  .A H [ ..k a X.o.w $ # P o ",
"f g x O.a 1 p k k k k k k k k k k k k k k k k +.; a d x x f f o ",
". $ ) $ w o.1 w a 6 a 1 d 1 a ; d d 6 d d a 1 ; @.#.# @ O @ @ o ",
"  $ @ $ + % s $ $.t t r ' e X.w X.X.r ' r q u $ %.$ $ $ = @   o ",
"O + + $ = $ 6 W #.: : : : : o.$ &.: : : : : o.$ ~ # + $ = @   o ",
"X @ # $ @ + w o ` $ $ # $ + + 2 *.$ @ $ $ $ w o =.P $ = + @ . o ",
"X # # $   + @ o @ + $ + # X $ o # X   @ # # # o -.  + X @ @ @ o ",
"R R R R R R R o R R R R R R R o R R R R R R R o R R R R R R R o "
};
