/* XPM */
static char *result[] = {
/* columns rows colors chars-per-pixel */
"32 32 186 2 ",
"   c #100E0D",
".  c #0F110D",
"X  c #12120E",
"o  c #18160F",
"O  c #1B190F",
"+  c #121212",
"@  c #161914",
"#  c #1B1B15",
"$  c #1C1C1A",
"%  c #221E1C",
"&  c #1F211C",
"*  c #1F2216",
"=  c #222115",
"-  c #22231C",
";  c #28261F",
":  c #262A1D",
">  c #292B1E",
",  c #2B2713",
"<  c #322B17",
"1  c #30321F",
"2  c #252521",
"3  c #292723",
"4  c #262921",
"5  c #2B2B23",
"6  c #2D2D2A",
"7  c #322E25",
"8  c #312F2C",
"9  c #2E3124",
"0  c #2F312A",
"q  c #333325",
"w  c #3A3C24",
"e  c #33342B",
"r  c #3C352B",
"t  c #363B2B",
"y  c #3A3C2C",
"u  c #353432",
"i  c #393634",
"p  c #3B3C33",
"a  c #3C3D3A",
"s  c #423F2C",
"d  c #403E36",
"f  c #423F3A",
"g  c #3C422F",
"h  c #3E4233",
"j  c #3F4239",
"k  c #43442E",
"l  c #414535",
"z  c #454A34",
"x  c #4A4B34",
"c  c #43443C",
"v  c #4A453B",
"b  c #46493A",
"n  c #4B4D3C",
"m  c #594E39",
"M  c #475136",
"N  c #4A5037",
"B  c #4C513B",
"V  c #51553C",
"C  c #51593F",
"Z  c #444442",
"A  c #4A4640",
"S  c #4A4B42",
"D  c #4D4D49",
"F  c #514D44",
"G  c #4E5242",
"H  c #525345",
"J  c #5B5741",
"K  c #535944",
"L  c #5A5D45",
"P  c #53544C",
"I  c #5B554D",
"U  c #565A4A",
"Y  c #5A5B4B",
"T  c #565652",
"R  c #585654",
"E  c #565852",
"W  c #5C5D53",
"Q  c #5C5C5A",
"!  c #615F44",
"~  c #625D4E",
"^  c #6B5746",
"/  c #635D53",
"(  c #6F5E51",
")  c #605F5E",
"_  c #5D614D",
"`  c #5F6055",
"'  c #64644F",
"]  c #66674E",
"[  c #626553",
"{  c #6B6453",
"}  c #656955",
"|  c #6A6E56",
" . c #62635B",
".. c #69655B",
"X. c #666A5A",
"o. c #6A6C5C",
"O. c #736954",
"+. c #736B5A",
"@. c #6D715D",
"#. c #72735C",
"$. c #7B715C",
"%. c #656563",
"&. c #676961",
"*. c #6B6C65",
"=. c #6E6E6A",
"-. c #716E67",
";. c #7A6E60",
":. c #726F68",
">. c #6E7162",
",. c #6F706E",
"<. c #757464",
"1. c #777863",
"2. c #73736C",
"3. c #79756B",
"4. c #777A6B",
"5. c #7B7B6D",
"6. c #7B7966",
"7. c #757573",
"8. c #7B7C73",
"9. c #7C7C7A",
"0. c #797672",
"q. c #82785F",
"w. c #817767",
"e. c #857F6D",
"r. c #887463",
"t. c #8A7E72",
"y. c #877C73",
"u. c #7F8179",
"i. c #89836D",
"p. c #9B846F",
"a. c #848174",
"s. c #8A8573",
"d. c #84847C",
"f. c #88867C",
"g. c #89887C",
"h. c #9D8972",
"j. c #908679",
"k. c #958B7C",
"l. c #988F7C",
"z. c #9F907D",
"x. c #A48B73",
"c. c #AA9179",
"v. c #848482",
"b. c #8B8B84",
"n. c #8D8C8A",
"m. c #938E84",
"M. c #918F8C",
"N. c #8F908B",
"B. c #929087",
"V. c #9C9284",
"C. c #93928D",
"Z. c #9C958B",
"A. c #9E988F",
"S. c #959593",
"D. c #999795",
"F. c #9A9A95",
"G. c #999999",
"H. c #A69987",
"J. c #AB9985",
"K. c #A59789",
"L. c #A29B8D",
"P. c #A29683",
"I. c #A89E91",
"U. c #A39C90",
"Y. c #B7A38D",
"T. c #ABA396",
"R. c #A0A09A",
"E. c #A7A399",
"W. c #B8A899",
"Q. c #A7A6A4",
"!. c #A8A7A4",
"~. c #AFA8A2",
"^. c #BEAFA2",
"/. c #B3B1AD",
"(. c #C1B7AF",
"). c #C7B9AE",
"_. c #CAB5A5",
"`. c #C5BBB1",
"'. c #CBBEB4",
"]. c #C8C1BA",
"[. c #D9C9C0",
"{. c #D8CFC9",
"}. c #D3D1CF",
"|. c #E5D7CC",
" X c #E7E6E5",
".X c #E8E6E6",
/* pixels */
"z b.s l :.0.$ t q ` `.& g #.L.M.f.o.S d.v.4.@.| _ H 6 # + + S u ",
"L.K.y.d >.8 @ 9 C 1.E S Y [ H.T.B.2.i n.v.C.S.G g j V [ @   e 7 ",
"( H _.+ +   - 4.b G ` <.<.L.).H.Y.W.].C.v.v.n.D g j g #.6 + % p.",
"+.F V.) @ @ + 7.,.g.Z.b.8.^.].].V.s.W.B.v.u.n.D k  .+.C 3 + # r ",
"} s.6.L.3 f   6 Q.N.A.`.i.z._.].J.P.i.1.4.v.n.D ~ h.c.i @ + $ + ",
"3.i.5.m.S # -   /.d.} a.p w ' O.$.q.#.[ u.n.v.T z.x.r.+ @ @ f 6 ",
"5.i.l.S + i c v.}.a.K E L B C B z w 9 6 2.d.b.W 1 O # p - : ,.Z ",
"c / q + a W / W  Xv.` z K B M [ p + o [ % &.>.4.U & + + 3 6 [ 7 ",
"<.%.$ + i S.2.R. XZ.2.Y G K H #.P   X b e L @.@.6 > @   + $ ` o.",
";.I W $ 2 3./ m. XR._ [ ` B K 2.W X + $ ` X.@.N - - $ Z   # } ` ",
"U P.m & + n [ ..{.A.` X.} b & j H   + $ n.v.L 6 5 $ a X.a & e Z ",
"*.J.V y . &.u.u.a.a._ 4.@.P + + @ + + + i G.:.b - - _ G E + + 4 ",
"T.h.< w = 2.g.D.].i.L b t l t & e 6 + + % 2.C.E 0 j B N 0 + @ b ",
"^ q.s , y / 3.n.I.s.X.H 0.Y $  .2.e I n # !.v.} _ B 5 + + + & b ",
"7 1.>.K 1 n g.n.k.B.V.p U.- 2 S v.*.+.V I f.!.8.4 + + + + $ $ & ",
"Y o.o.2 5 O 8.f.B.g.n q H X Y u ) o.5 a ;.P E.D + + + - 0 U T v ",
"[ | j % 2 # Z 8.P $ 0 n [ c X.x v l +.J 3 > Q 2 + a - y N #.f.X.",
"u.z t 2 2 o + $ D e q ' j o.C B t $ 3 ..a l 3 + @ _ @ [ 2.X.b.S.",
"G.Q y % u     + - + O x ..+.# } 5 9 f $ ] > q 3.x q l 6.9.3.5.d.",
"n.G.U Q n.i + @ # + X = p 5 6 u n.W F.6 / $ e M.x w W v.v.p Z S ",
"` @.W v.v.v.2 + # 5 + + & 4 t b I =.S.# #.w.~ e.k ; G a.d. .=.P ",
"[ >.p Q v.v.w.+ + @ + 5 5 . : H 5.6 c & y ~ ..{ l 5 U [ h # @ X ",
"} *.o.  %.G.F   X X 3 Y + $ e t &.c X ; 3 > y W *.- : 0 + @ + i ",
"2.0.V.  3 v.2 + @ o y W . + Z b !.6 + 5 g ; > v ` D 6 Z 2 4 + a ",
"9.R a   u 2 +   4 - b 2.  . S n./.u @ u y 5 6 - U S &.a > = $ i ",
"a $ y   X @ -   t 7 X.3.+ # d G.M.# 7 u E 0.b 4 ` _ Y S ; z c e ",
"* $ -   + + @ + 2 - P e e @ 0 D.a U b y *.@.B t 5 - e  .U B 9 $ ",
"# & # + e l 3 + *.D 8 ; k.$ - a 5 P S @.] U 4 - - = K | E $ + # ",
"9 - 6 e l - X T v.0.$ u v & + y e T 0.>.} e - - g H N ` 7.2 @ $ ",
"q e 6 H b # $ n.v.v.7.i b - @ y u Z ,.G.G e 5 $ @ j N &.7.a + $ ",
"c y.c o.0.y + 6 0.9.(.Z t.$ r R l [ S v.D.H y o > q B 8.Z + + @ ",
"x M.v U 2.=.@ > 8 v.|.2 l Y V.F.d.' S *.2.*.h _ | L 0 0 + + + & "
};
