/* XPM */
static char *result[] = {
/* columns rows colors chars-per-pixel */
"32 32 78 1 ",
"  c #040403",
". c #060B04",
"X c #090E06",
"o c #0C0C0B",
"O c #100D07",
"+ c #0A1206",
"@ c #0D110B",
"# c #0D1B09",
"$ c #12120E",
"% c #1B160E",
"& c #11180E",
"* c #1C180F",
"= c #000015",
"- c #08081A",
"; c #131312",
": c #1A1711",
"> c #161913",
", c #1B1B16",
"< c #17171F",
"1 c #1C1C1C",
"2 c #221E15",
"3 c #201E1B",
"4 c #172412",
"5 c #1B2416",
"6 c #172B10",
"7 c #192B13",
"8 c #1D241A",
"9 c #1D2E18",
"0 c #1A3314",
"q c #1E3219",
"w c #252217",
"e c #292315",
"r c #24221D",
"t c #29251E",
"y c #392D15",
"u c #372D1E",
"i c #3C2E19",
"p c #21351C",
"a c #223C1B",
"s c #3F311A",
"d c #060623",
"f c #1C1C23",
"g c #1B1B2A",
"h c #242423",
"j c #282724",
"k c #252924",
"l c #2C2A23",
"z c #2B2B2A",
"x c #322E29",
"c c #253621",
"v c #3C3224",
"b c #33332D",
"n c #3E3228",
"m c #333333",
"M c #42331E",
"N c #413526",
"B c #42362B",
"V c #45392B",
"C c #4B3C2E",
"Z c #413F38",
"A c #24411D",
"S c #274C1F",
"D c #29561D",
"F c #2B5A1F",
"G c #274320",
"H c #284521",
"J c #294A22",
"K c #2B5B20",
"L c #2E6323",
"P c #306725",
"I c #316825",
"U c #36752B",
"Y c #38772D",
"T c #4C4030",
"R c #664626",
"E c #6B4928",
"W c #4E4E4E",
"Q c #515151",
/* pixels */
"5kjzzhhzkzzhhzh55588:1,;$>:,,585",
"hh1;;;;;;;;;;<hh8rhh$$oo   o>hzr",
"3k<zf&X  XX+X1hhrhrr3hhhhrhr3rrh",
"rh11@##X ++++<hrhrrznncppaa,i1hh",
"3h1 X##  .+.X1hrhuhBERcaaAa,:1kh",
"rh1 .### X..+<hhhkhxVCcHAcG3N3jh",
"3h1 X##X .+X+1h31331333133f33133",
"hh1==========<hhjmzzjjzhkzhzjzjh",
"hhffgggggggggfhhjhhro$;rr1j3,333",
"hzhfhhhhhhhzhkhhzxzrrzjjj1331hhh",
"1111f1111f<1111<11,11,,,11111111",
"zhkhhhkhjhhkhkkhkjtjjhhttjhkhtjh",
"h3hrhheh3hhw3hrhr3tehrehwehe3rhr",
"hrhrhhwhrthrrrrhhr3ehhwwewhhtrrh",
"vNvNvNvvvNvNvNnvuNvNvNnvvNvNvBnv",
"yiyiyyiyyMyiyiiiyMyMysiiyiyiyiyy",
"5rth1h1::1:,f8885r58r8r585h855h8",
"heu3$f;$   o1hjhrkhkhjhlllkhhhkh",
"rh33rhhhhhhh3hr83hhr333trh333t3w",
"h8pppp9aa5pqqpqkhh>;;$1hkkh:$o;1",
"kpaacpJaaGpaqAa8hh3,zf1hhzkjod-f",
"hpHaHcAGaJpHHcJhhh>o$3fkhhh< j 1",
"1333333333333331,3322222232:::%2",
"kmmxhhhhhhhhhhhhhj>060666,hz:o h",
"rWWmhZjju;eOeehhhh4LFLFDD1hhbt:h",
"hQWmhClh3$$$$3hhhk7YLUPLP5hhxj;k",
"<jh1fr11f31f3111<14JASAaA>11mr$1",
"khjjhhhhhkkhhjjhkjhkkkjjrkkkjjhh",
"r3wwhh3rwhhw33whhrrrhhw3hrhw3teh",
"khtwhhrhhrhhhhrhh3hrhhwhrrhre3hr",
"vNvNvNvvuNvNvNvvvNvNvNvvvNvNvNnv",
"yMyiyMiiyMyiyMyiyiyMyiiiyiyiyMiy"
};
