/* XPM */
static char *result[] = {
/* columns rows colors chars-per-pixel */
"32 32 173 2 ",
"   c #0C0C0C",
".  c #130B0B",
"X  c #1B0A0A",
"o  c #0F1006",
"O  c #191A07",
"+  c #121609",
"@  c #15190B",
"#  c #1A1B0D",
"$  c #111111",
"%  c #1D1C1C",
"&  c #1D1813",
"*  c #2C0606",
"=  c #260B0A",
"-  c #290F0E",
";  c #2A0A07",
":  c #320505",
">  c #3B0404",
",  c #310B07",
"<  c #350F0F",
"1  c #3B0C0C",
"2  c #221D0C",
"3  c #351C0F",
"4  c #221010",
"5  c #2A1010",
"6  c #241D10",
"7  c #2D1E11",
"8  c #261D1D",
"9  c #281F19",
"0  c #301111",
"q  c #3A1513",
"w  c #381C18",
"e  c #311B1B",
"r  c #1D2013",
"t  c #29220F",
"y  c #25220D",
"u  c #37280B",
"i  c #272213",
"p  c #292311",
"a  c #252C14",
"s  c #272518",
"d  c #2D261C",
"f  c #3C2E16",
"g  c #362018",
"h  c #3C2518",
"j  c #35281E",
"k  c #252524",
"l  c #292222",
"z  c #262820",
"x  c gray17",
"c  c #2D2A25",
"v  c #3B2525",
"b  c #342C2B",
"n  c #392C2C",
"m  c #3B3123",
"M  c #323A20",
"N  c #38342E",
"B  c #313131",
"V  c #3B3B3B",
"C  c #450101",
"Z  c #4D0504",
"A  c #400C06",
"S  c #4F0806",
"D  c #4B0909",
"F  c #530404",
"G  c #500D06",
"H  c #550D0C",
"J  c #5D0B0B",
"K  c #49170C",
"L  c #451514",
"P  c #461D1D",
"I  c #561510",
"U  c #5D1515",
"Y  c #600101",
"T  c #6D0000",
"R  c #630B0B",
"E  c #690E0E",
"W  c #6E1212",
"Q  c #651F1F",
"!  c #631F15",
"~  c #7A1A1A",
"^  c #721712",
"/  c #522108",
"(  c #542D18",
")  c #522915",
"_  c #4B311A",
"`  c #4E391C",
"'  c #41331E",
"]  c #553119",
"[  c #5E3F1E",
"{  c #792F0B",
"}  c #632415",
"|  c #63241A",
" . c #633711",
".. c #79391F",
"X. c #73351D",
"o. c #5D2929",
"O. c #522B2B",
"+. c #5E3F22",
"@. c #533E26",
"#. c #433A30",
"$. c #612D27",
"%. c #632323",
"&. c #702525",
"*. c #6C3322",
"=. c #7D3434",
"-. c #3D4034",
";. c #7A480F",
":. c #704510",
">. c #564227",
",. c #5D4122",
"<. c #594A3A",
"1. c #644425",
"2. c #6D4A29",
"3. c #6C4923",
"4. c #734C2B",
"5. c #794C2B",
"6. c #714625",
"7. c #7D532F",
"8. c #63563F",
"9. c #6E563A",
"0. c #705030",
"q. c #484747",
"w. c #564A41",
"e. c #764744",
"r. c #60564E",
"t. c #766147",
"y. c #726A5C",
"u. c #606060",
"i. c #6C6864",
"p. c #777674",
"a. c #833E12",
"s. c #892424",
"d. c #873939",
"f. c #8B3B3B",
"g. c #91510F",
"h. c #8D4B12",
"j. c #8A5315",
"k. c #965A13",
"l. c #A36D1E",
"z. c #855720",
"x. c #8A5B20",
"c. c #84582E",
"v. c #845632",
"b. c #97642B",
"n. c #A46C33",
"m. c #8F5656",
"M. c #935656",
"N. c #806043",
"B. c #AB7C44",
"V. c #AE7C4C",
"C. c #AB7D5D",
"Z. c #8B6666",
"A. c #837766",
"S. c #8E7861",
"D. c #947C65",
"F. c #967070",
"G. c #A47B6D",
"H. c #9E8879",
"J. c #A98A6F",
"K. c #8E8E8E",
"L. c #AF8E8E",
"P. c #A98383",
"I. c #A39187",
"U. c #B19595",
"Y. c #ABA091",
"T. c #ABA79E",
"R. c #A6A4A4",
"E. c #B6B6B6",
"W. c #BBBBBB",
"Q. c #CDAF8B",
"!. c #D3BCAC",
"~. c #D2CAC1",
"^. c None",
/* pixels */
"^.^.^.^.^.^.^.^.^.^.^.^.^.^.^.^.^.^.^.^.^.^.^.^.^.^.^.^.^.^.^.^.",
"^.^.^.^.^.^.^.^.^.^.^.^.^.^.^.^.^.^.^.^.^.^.^.^.^.^.^.^.^.^.^.^.",
"^.^.^.^.^.^.^.^.^.^.^.^.^.^.H.D.D.^.^.^.^.^.^.^.^.^.^.^.^.^.^.^.",
"^.^.^.^.^.^.^.^.^.^.^.^.^.S.4.v.7.0.~.^.^.^.^.^.^.^.^.^.^.^.^.^.",
"^.^.^.^.^.^.^.^.^.^.^.^.^.9.4.7.4.2.Y.^.^.^.^.^.^.^.^.^.^.^.^.^.",
"^.^.^.^.^.^.^.^.^.^.^.^.^.,.X.2.,...t.^.^.^.^.^.^.^.^.^.^.^.^.^.",
"^.^.^.^.^.^.^.^.^.^.^.^.i.1.5.1.1.7.y.R.^.^.^.^.^.^.^.^.^.^.^.^.",
"^.^.^.^.^.^.^.^.^.P.=.R L ` | T G *.j 9 E =.^.^.^.^.^.^.^.^.^.^.",
"^.^.^.^.^.^.^.U.! R W R F H H Y A I l v W E m.^.^.^.^.^.^.^.^.^.",
"^.^.^.^.^.^.^.%.R W D * J ~ J ; , 0 % q F F R ^.^.^.^.^.^.^.^.^.",
"^.^.^.^.^.^.^.$.( ( e * J E J ; 5 $ = C F S K ^.^.^.^.^.^.^.^.^.",
"^.^.^.^.^.^.H.6.v.4.f X : : 3 M & . ; X 7 _ ,.^.^.^.^.^.^.^.^.^.",
"^.^.^.^.^.L.H ) 1.` d X . $ # a @ 1 > X t f ) G.^.^.^.^.^.^.^.^.",
"^.^.^.^.^.e.+.+.h ' N % $     o = D H s p ` z.l.Q.^.^.^.^.^.^.^.",
"^.^.^.^.^.I.2.2.d f c $ + + # 2 6 6 i a y.x.b.c.J.^.^.^.^.^.^.^.",
"^.^.^.^.^.^.>.>.#.<.V m 2 + y t i s k -.^.B.3.1.N.^.^.^.^.^.^.^.",
"^.^.^.^.^.^.R.w.w.r.q.8.:.# r a z B B x K.!.6.A.^.^.^.^.^.^.^.^.",
"^.^.^.^.^.^.^.u.V x -.<.k.;.u r k O.o.b p.V.C.^.^.^.^.^.^.^.^.^.",
"^.^.^.^.^.^.^.q.x % k b } g.k. .f ! ^ v [ n.^.^.^.^.^.^.^.^.^.^.",
"^.^.^.^.^.^.^.p.B k x l L h / { a.h.h.j.B.^.^.^.^.^.^.^.^.^.^.^.",
"^.^.^.^.^.^.^.^.W.K.q.q k % X Z < q g j ^.^.^.^.^.^.^.^.^.^.^.^.",
"^.^.^.^.^.^.^.^.^.^.E.& 8 5 $ < n n n l ^.^.^.^.^.^.^.^.^.^.^.^.",
"^.^.^.^.^.^.^.^.^.^.^.P = X X ; R ~ ~ R ^.^.^.^.^.^.^.^.^.^.^.^.",
"^.^.^.^.^.^.^.^.^.^.^.F.C : X * J E R F ^.^.^.^.^.^.^.^.^.^.^.^.",
"^.^.^.^.^.^.^.^.^.^.^.^.Z..   > R E R F ^.^.^.^.^.^.^.^.^.^.^.^.",
"^.^.^.^.^.^.^.^.^.^.^.^.^.: X > J E R Q ^.^.^.^.^.^.^.^.^.^.^.^.",
"^.^.^.^.^.^.^.^.^.^.^.^.^.; X X F E J e.^.^.^.^.^.^.^.^.^.^.^.^.",
"^.^.^.^.^.^.^.^.^.^.^.^.^.F C ; R ~ ~ &.^.^.^.^.^.^.^.^.^.^.^.^.",
"^.^.^.^.^.^.^.^.^.^.^.^.^.^.^.D ~ s.s.E ^.^.^.^.^.^.^.^.^.^.^.^.",
"^.^.^.^.^.^.^.^.^.^.^.^.^.^.^.P.f.f.f.M.^.^.^.^.^.^.^.^.^.^.^.^.",
"^.^.^.^.^.^.^.^.^.^.^.^.^.^.^.^.^.^.^.^.^.^.^.^.^.^.^.^.^.^.^.^.",
"^.^.^.^.^.^.^.^.^.^.^.^.^.^.^.^.^.^.^.^.^.^.^.^.^.^.^.^.^.^.^.^."
};
