/* XPM */
static char *result[] = {
/* columns rows colors chars-per-pixel */
"32 32 155 2 ",
"   c #3F3F3F",
".  c gray27",
"X  c gray26",
"o  c gray28",
"O  c gray23",
"+  c #4B4B4B",
"@  c #464646",
"#  c #3A3A3A",
"$  c #353535",
"%  c #444444",
"&  c #434343",
"*  c #3C3C3C",
"=  c #560000",
"-  c #5D0000",
";  c #620000",
":  c #530000",
">  c #5E0000",
",  c #570000",
"<  c #3B2121",
"1  c gray34",
"2  c #6D0303",
"3  c #600000",
"4  c #590000",
"5  c #5C0000",
"6  c #5B0000",
"7  c #3E2525",
"8  c gray30",
"9  c #500000",
"0  c #540000",
"q  c #580000",
"w  c #550000",
"e  c #520000",
"r  c #4E0000",
"t  c #4F0000",
"y  c #331919",
"u  c #5F5F5F",
"i  c #630000",
"p  c #5A0000",
"a  c #3A2020",
"s  c #515151",
"d  c #510000",
"f  c gray36",
"g  c #565656",
"h  c #470000",
"j  c #4A0000",
"k  c #3D0200",
"l  c #3A0200",
"z  c #2B1B1B",
"x  c #510303",
"c  c #490000",
"v  c #4B0000",
"b  c #382222",
"n  c #480000",
"m  c #450100",
"M  c #410100",
"N  c #430000",
"B  c gray24",
"V  c #343434",
"C  c #3E3E3E",
"Z  c gray22",
"A  c #323232",
"S  c #484848",
"D  c #656565",
"F  c gray33",
"G  c gray20",
"H  c #6C6C6C",
"J  c #494949",
"K  c gray25",
"L  c #2F2F2F",
"P  c #4F0303",
"I  c #732A2A",
"U  c #610000",
"Y  c #432929",
"T  c #662121",
"R  c #4D0000",
"E  c #341A1A",
"W  c #641F1F",
"Q  c #460000",
"!  c #450000",
"~  c #3F0100",
"^  c #3E0100",
"/  c #400100",
"(  c #310503",
")  c #522020",
"_  c #4C0000",
"`  c #420100",
"'  c #440100",
"]  c #3D0100",
"[  c #3C0200",
"{  c #550303",
"}  c #393939",
"|  c #4E4E4E",
" . c gray21",
".. c #414141",
"X. c #717171",
"o. c #500505",
"O. c #742A2A",
"+. c #5F0000",
"@. c #402525",
"#. c #601B1B",
"$. c #682323",
"%. c #562323",
"&. c gray32",
"*. c #505050",
"=. c #535353",
"-. c gray29",
";. c #373737",
":. c #6D0404",
">. c #752828",
",. c #6C0000",
"<. c #6D2121",
"1. c #332423",
"2. c #4D0303",
"3. c #572626",
"4. c gray38",
"5. c #5D5D5D",
"6. c #5B5B5B",
"7. c #313131",
"8. c #6A2020",
"9. c #651F1F",
"0. c #422929",
"q. c #601A1A",
"w. c #631A1A",
"e. c #361C1C",
"r. c #5F1A1A",
"t. c #351B1B",
"y. c #501D1D",
"u. c #531F1F",
"i. c #331D1D",
"p. c #585858",
"a. c #2A2A2A",
"s. c #681E1E",
"d. c #442626",
"f. c #6C0202",
"g. c #5D1A1A",
"h. c #410000",
"j. c #651C1C",
"k. c #480100",
"l. c #301919",
"z. c #2D1A19",
"x. c #2E1919",
"c. c #291C1B",
"v. c #483A3A",
"b. c #311919",
"n. c #2F1919",
"m. c #2C1A19",
"M. c #301C1B",
"N. c #2D2726",
"B. c #3D2525",
"V. c #2F1515",
"C. c #2D1313",
"Z. c #371A1A",
"A. c #5A5A5A",
"S. c gray35",
"D. c gray31",
/* pixels */
"  . X X . X X o O X X X o + + . X X X X @ @ @ @ X # $ % + & X * ",
"= - ; : > , < 1 2 - ; : , 3 4 5 6 6 7 8 2 - > 9 0 - = = q w = , ",
"e 6 4 r q t y u i = 4 r w p w e = w a s i = 4 r w p 0 : e t t r ",
"e : 6 = t d y f ; w 6 = : w 0 : q w a g ; w 6 = : w : : : 0 d r ",
"h h j j k l z 8 x c j j h v c c j j b 1 x c j j h v j n c m M N ",
"B V # C Z A $ S D F C Z V   * G B C S H J # % F @ K C L $ S C S ",
"4 , 5 = = , = P g I U - = = q , > - , p , 4 = e p = Y * 2 - ; : ",
"d 9 9 d r d t h % T p w e e 0 R : 0 d 0 9 v e h : d E X i = 4 r ",
"e w e d = j w h & W 4 = 6 e = 0 9 e R R = t : v r t y 8 ; w 6 = ",
"Q c c ! ~ ^ / ( & ) c c j c R e _ v ` ! j ' n ] k [ z f { v t v ",
"o Z C O } X $ V g F C Z Z Z + | C &  .A C C ..G C C S X.s   X   ",
"I U - = = q 4 , 5 = = , = o.J O.U - = = q w - q +.w 4 = w p , @.",
"#.p w e e q d 9 9 d r d t h K $.p w e e 0 r 0 d 0 d v e c = t y ",
"T 4 = 6 e : e w e d = j w h B W 4 = 6 e = r e R R = t 0 j : d y ",
"%.c c j h h Q c c ! ~ ^ / ( Z ) c t e t c ' v ` ! j ' n ^ k l z ",
"&.& B $ $ o &.+ X & S @ K B s *.B } K & =.S O -.B G O ;. .  B . ",
"4 = w p , Y *.:.- ; : , 4 , 5 = = , = o.&.>.,.i , = q 0 3 +.p 0 ",
"v e c = t a -.i = 4 r w d 9 9 0 r d t h & <.U p e r 0 r 6 4 0 R ",
"t : j : d a S U w 6 = : e w e w = j w h & T 4 4 6 r 0 : w q 0 v ",
"' n M k l 1.S 2.c j j h Q c c ! ~ ^ / ( X 3.r c j Q Q h j v c h ",
"% O # * O C 4.O G C C % X Z  .% s @ $ G 5.6.;.O -.s C 7.B C # # ",
"8.U - = = q 0 p p w q 3 = , = P 8 9.; +.= = q 0 5 3 4 4 5 p +.0.",
"q.p w e e 0 r : w R r 9 r d t h B w.6 : 9 e 0 r = p 0 : e = > e.",
"r.4 = 6 e 0 : = = d d d = j w h Z r.4 e w e 0 : = w : : : q 4 t.",
"y.c c j h Q h j h h n ' ~ ^ / ( } u.c c j h Q h c v j c n c v i.",
"B } K % X @ &.. B 5.8 # V C K * 5.p.K B B B C X Z Z B 7.a.V C + ",
"- = w q 3 = , = o.o s.U - = = 5 = : 4 - w p , d.. f.- ; : , 4 , ",
"4 e _ t e d 9 r n * q.p w e e p _ _ : t j q r y % i = 4 r w d 9 ",
"4 9 t d 9 9 r 9 h B g.5 q w 9 : e d 0 r j e t y X U , - 9 e t : ",
"4 q e d e 0 _ 0 h.B j.= w 4 d d : r 4 d R e k.y X ; 0 q q e 9 0 ",
"y y y y l.z.z.x.c.C v.E y y y y y y y b.n.m.M.N.. B.E y V.C.C.Z.",
"s =.*.&.F F g s F g A.p.1 S.1 p.=.*.F D.D.8 F *.1 =.F F F D.=.F "
};
