/* XPM */
static char *result[] = {
/* columns rows colors chars-per-pixel */
"32 32 164 2 ",
"   c gray29",
".  c gray37",
"X  c #959595",
"o  c #8D8D8D",
"O  c #8E8E8E",
"+  c #888888",
"@  c #8B8B8B",
"#  c #868686",
"$  c gray25",
"%  c #393939",
"&  c #767676",
"*  c #818181",
"=  c gray50",
"-  c #808080",
";  c #7B7B7B",
":  c #555555",
">  c gray17",
",  c #414141",
"<  c gray27",
"1  c gray49",
"2  c DimGray",
"3  c gray34",
"4  c #A0A0A0",
"5  c #B7B7B7",
"6  c #AAAAAA",
"7  c #A4A4A4",
"8  c #979797",
"9  c gray59",
"0  c gray61",
"q  c #929292",
"w  c #494949",
"e  c gray48",
"r  c #989898",
"t  c #6C6C6C",
"y  c #282828",
"u  c #BCBCBC",
"i  c gray73",
"p  c gray66",
"a  c gray58",
"s  c gray53",
"d  c gray47",
"f  c #4B4B4B",
"g  c gray69",
"h  c gray54",
"j  c gray22",
"k  c gray42",
"l  c #9D9D9D",
"z  c #9A9A9A",
"x  c gray60",
"c  c gray39",
"v  c gray45",
"b  c gray78",
"n  c #B2B2B2",
"m  c #AFAFAF",
"M  c #B4B4B4",
"N  c #AEAEAE",
"B  c gray57",
"V  c #646464",
"C  c #9B9B9B",
"Z  c gray56",
"A  c gray55",
"S  c #373737",
"D  c #4C4C4C",
"F  c #484848",
"G  c #2C2C2C",
"H  c #BBBBBB",
"J  c gray62",
"K  c #9F9F9F",
"L  c gray52",
"P  c gray18",
"I  c #3A3A3A",
"U  c gray26",
"Y  c #444444",
"T  c #2A2A2A",
"R  c #2D2D2D",
"E  c gray40",
"W  c #5D5D5D",
"Q  c #565656",
"!  c #3E3E3E",
"~  c gray14",
"^  c #2F2F2F",
"/  c gray71",
"(  c #3C3C3C",
")  c #4E4E4E",
"_  c #626262",
"`  c #353535",
"'  c #838383",
"]  c #797979",
"[  c #676767",
"{  c #686868",
"}  c #656565",
"|  c gray38",
" . c #323232",
".. c gray63",
"X. c gray24",
"o. c #6F6F6F",
"O. c #DFDFDF",
"+. c #CBCBCB",
"@. c #343434",
"#. c #434343",
"$. c gray23",
"%. c #272727",
"&. c gray32",
"*. c #B1B1B1",
"=. c gray76",
"-. c #C0C0C0",
";. c gray75",
":. c gray30",
">. c #464646",
",. c #898989",
"<. c gray51",
"1. c gray15",
"2. c gray44",
"3. c #909090",
"4. c #7C7C7C",
"5. c #606060",
"6. c gray36",
"7. c gray74",
"8. c #A5A5A5",
"9. c #5B5B5B",
"0. c gray21",
"q. c gray35",
"w. c gray67",
"e. c gray65",
"r. c #A7A7A7",
"t. c gray33",
"y. c #252525",
"u. c gray13",
"i. c gray19",
"p. c #A2A2A2",
"a. c #A9A9A9",
"s. c gray64",
"d. c gray20",
"f. c gray31",
"g. c #C6C6C6",
"h. c #535353",
"j. c gray70",
"k. c #505050",
"l. c #B9B9B9",
"z. c #3F3F3F",
"x. c gray16",
"c. c #5F5F5F",
"v. c gray77",
"b. c gray43",
"n. c #939393",
"m. c #747474",
"M. c #6D6D6D",
"N. c #7E7E7E",
"B. c #6A6A6A",
"V. c #848484",
"C. c #313131",
"Z. c #585858",
"A. c #717171",
"S. c #5A5A5A",
"D. c #515151",
"F. c gray46",
"G. c #D7D7D7",
"H. c LightGray",
"J. c gray82",
"K. c #CDCDCD",
"L. c gray",
"P. c gray72",
"I. c #777777",
"U. c gray28",
/* pixels */
"          . X o O + @ + # $ % & * = - ; : > , < < < <           ",
"- - 1 2 3 4 5 6 7 8 9 0 q w e 6 r 9 r r t y 2 u u i p a s # = = ",
"p 6 6 d f 4 g 7 4 a X 8 h j k l z x r r c y v b n m M n m N g g ",
"q B z V j 4 6 7 C Z x r A S D ; 8 x X @ F G v H l z J l 0 C z K ",
"B z L   P x p l 0 8 J 0 o I S U Y Y U j T R E M x K 4 8 a B A o ",
"W Q ! ~ ^ = / 0 0 l l J X ( ^ % $ , ) _ : ` W C + ' ] [ E { } | ",
"R T P  .% . / ..0 K l l B X.G o.O.+.5 7 = @.#.f   < $.@.T %.%.%.",
"w < U X.% &.*.J 4 r q z @ U R ' =.p 7 0 e  .,   w #.#.#.F F F F ",
"-.;.5 q :.>.X 0 9 + + ,.<.F 1.2.n 0 X 3.4. .+ / 5.6.7.-.-.-.-.-.",
"7 8...+ :.! t - o.2 E _ 9., 1.0.Q o.k [ q. .w.7 Q t u e.r.p 7 7 ",
"4 J K + w ( t.@.@.G P R y.u.> i.^ R R R R S N p.) k a.4 l 0 J K ",
"p.s.J ' #.d.# J O v U j ] X x z N p p.B X.f.H l   } 8.0 C z s.4 ",
"# + Z o.( d.=.n 8.p.} f.g.n e.8.l s.e.# ^ E g p.U h.& # * * - L ",
"D w F S ^ 0.j.4 z r.6.k.l.z J x 9 z K ; G } 6 l U 3 % P P ^ I F ",
"U f W c k z.r.0 K e.3 Y l.l C X B 0 9 - x.} 6 4 U q.: :.  ,  .^ ",
"A ..7 m 8.^ p 0 C 6 c., g r C X 9 x 9 d G } p z U # v.g 7 0 b.t.",
"0 x n.J C ^ r.r K e.E d.z r.r q n.9 K m.P E 6 n.#.K 5 p p.o o.f ",
"K r Z C n.^ r.4 l p.V  .m.g r a X x C W x.c X M.j # e.4 o N.B.>.",
"K l X O V.^ 6 K 4 J 2 C.t.6 r = o.Z.  I x.#.#.X.f.f.A.d A.2 S.% ",
"K l l K # ^ 7 s.4 ..k P #.( z.C.G G x.x.d.t.t.: : D., 0.0.0.@.( ",
"l K ..z # j 8.r.0 J t G I Q Z.Z.W 5.5.| V 1 l w.m m m m m p.F.f ",
"l ..l Z o.` C 0 l l { y i.z G.H.J.J.J.J.K.b ;.H L.-.H 7.i N 2.U ",
"h 8 A <.6. .9 0 r C k y R n.P.w.m j.n p M r.w.0 s.p.4 J 4 9 k S ",
"b.F.{ h. .$.* J x X } y x.N.l.s.p.8.C z J 4 ..C l l 0 r r ,.k S ",
"k.Y 0.d. .! < >.>.>.z.y 1.Y A J C l 8 8 8 C K C q ' a B o + k @.",
": X ..I.) , C.T T T T T T f :.F F :.A.s @ ' L <.N.- N.<.* = _ C.",
"s j.p g 7.6 v _ V } } 5.q.[ 9.  #.% X.f ) D.D.D.D.D.D.D.k.U.$.z.",
"s 4 K C K 6 i N M M *.N w.7.-.n t.f Y $.S 0.0.0.0.0.0.0.0.0.< t.",
"V.s.4 K ..z 4 r...r.4 J K l J o k.< L l.L.p.V Q h K l l l 3.3 Z.",
"Q b.I.F.& o.2.F.m.v A.b.[ M.{ c ( S = a.a.e.* <.g p p p e.p.] &.",
") 0.@.d.0.0.@.d.C.P T T T T T T T I < h.3 S.F E e e e ] ] e E ) ",
">.>., $ #.#.% % % % % % % % % % % % % % % % % $ $.j j j j j I Y "
};
