/* XPM */
static char *result[] = {
/* columns rows colors chars-per-pixel */
"32 32 109 2 ",
"   c #0C0C0C",
".  c #15130C",
"X  c #1A150B",
"o  c #1D1B0C",
"O  c #151514",
"+  c #1A1713",
"@  c #1D1B14",
"#  c #1D1C1C",
"$  c #211A0C",
"%  c #231E14",
"&  c #221F1A",
"*  c #1E2213",
"=  c #1F251C",
"-  c #26220F",
";  c #2D240C",
":  c #31260D",
">  c #32280F",
",  c #242314",
"<  c #2C2614",
"1  c #2F2915",
"2  c #24221C",
"3  c #2C251B",
"4  c #242819",
"5  c #2D291C",
"6  c #342514",
"7  c #322913",
"8  c #3B2B14",
"9  c #32271A",
"0  c #332B1C",
"q  c #3B2B1B",
"w  c #2C3018",
"e  c #36331D",
"r  c #252322",
"t  c #292622",
"y  c #252A23",
"u  c #2C2A23",
"i  c #2B2B2A",
"p  c #342C23",
"a  c #392E22",
"s  c #312E29",
"d  c #2F312D",
"f  c #333224",
"g  c #3D3022",
"h  c #3A3920",
"j  c #33352A",
"k  c #3C342D",
"l  c #34392A",
"z  c #3C3A2B",
"x  c #333333",
"c  c #3C3631",
"v  c #3D3B35",
"b  c #3C3C3C",
"n  c #402E15",
"m  c #403017",
"M  c #4D341F",
"N  c #463525",
"B  c #4B3522",
"V  c #493822",
"C  c #42362D",
"Z  c #44392D",
"A  c #4A3A2A",
"S  c #503B22",
"D  c #403630",
"F  c #433C33",
"G  c #493C30",
"H  c #443F3A",
"J  c #39412B",
"K  c #3D4134",
"L  c #3E403A",
"P  c #41432C",
"I  c #414735",
"U  c #4E4032",
"Y  c #44413C",
"T  c #484238",
"R  c #4C4D3C",
"E  c #504B36",
"W  c #5A4A31",
"Q  c #524B3C",
"!  c #414141",
"~  c #4D4D44",
"^  c #4D4D4B",
"/  c #514B47",
"(  c #514D4A",
")  c #575245",
"_  c #5A5143",
"`  c #54544B",
"'  c #5C544C",
"]  c #555555",
"[  c #5D5751",
"{  c #5B5854",
"}  c #5A5A5A",
"|  c #645546",
" . c #615A55",
".. c #695A50",
"X. c #625E58",
"o. c #666057",
"O. c #6E6455",
"+. c #6C635D",
"@. c #636363",
"#. c gray43",
"$. c #776D66",
"%. c #746E6A",
"&. c gray60",
"*. c #A09690",
"=. c gray65",
"-. c #ABA5A1",
";. c #C6C6C6",
":. c #DFDFDF",
">. c #EEEEEE",
/* pixels */
"# 2 - r $ % , & & $ 2 , < & , & & ; & & & & & & - 2 % , , & $ @ ",
"% u < 1 u 5 < ; < < < u 1 < ; 2 < < < u 1 < ; < < < u 3 , ; 4 + ",
", i q O O # ; t 7 X O @ 1 t < O O # p u q O O % ; ; r     > 8 # ",
"t u 5 5 i t 5 9 u t s < < 9 u u y 4 5 i 5 & 0 3 1 5 5 5 u 1 1 $ ",
"y > 1 5 5 3 - , s i < 5 u 7 u 7 1 < u 1 < 1 % u 1 u i u 5 > 4 & ",
", > < u s 0 8 5 p i q a 5 m i 8 0 8 q 8 < 0 n a p a q s p 5 5 * ",
"% > a x r 3 5 3 5 6 9 3 5 3 p 3 5 u 9 3 9 3 t t 3 5 t t j u 1 $ ",
", 1 5 A $ ; 7 5 9   O 5 i t p 7 u 0 i p 1 O O u 9 9 9 0 p u 3 , ",
"i 7 5 F @ 3 i , 7 d # 5 u 5 i u u p i , 7 d @ 3 i < < u p u 3 = ",
"& 9 t F % ; e K K v b J b Y ! J b J L J L l l v J v e 7 p p < o ",
"6 5 i b 3 5 e ` =.+.@.&.-.+.@.&.-.%.} *.-.$. .&.=.^ u q q 0 < # ",
"4 5 9 Y 9 < l ' >.] ! ;.>.] ! ;.>.} b ;.>.} b ;.>._ d g p 0 , & ",
"y 9 0 A 6 u j ` >.] ! ;.>.] ! ;.>.X.F ;.>.} b ;.>.( f g a 6 9 $ ",
", u 5 A 9 9 j _ >.' Y ;.>.] ! ;.>.} b ;.>.} b ;.>._ e q s 9 5 & ",
"% i q c i 5 j ) >.] Y ;.>.[ Y ;.>.X.A ;.>.} b ;.>.( f s q 8 q @ ",
", p ; F 0 3 j _ >.| T ;.>.{ H ;.>.X.H ;.>. .F ;.>.( d k q q < * ",
"u u t V 9 i l ` >.[ Y ;.>.' ! ;.>.} b ;.>.} b ;.>.^ e g 0 p 5 # ",
"& g t Z 6 < l ) >.] ! ;.>.[ ! ;.>.} S ;.>.O.F ;.>.~ 0 8 p u : @ ",
"6 u i b 6 < f ` >.] W ;.>.| T ;.>.X.C ;.>.} v ;.>.^ p g q 0 < $ ",
"2 u 0 G 9 3 l ) >.[ H ;.>.| G ;.>.} b ;.>.} A ;.>._ d g q u < % ",
"y < : F 6 t j ` >.] ! ;.>.] b ;.>...b ;.>. .S ;.>.( f g s 9 3 % ",
", 7 ; V 9 0 l _ >.| ! ;.>.] ! ;.>. .c ;.>.} x ;.>._ e q p 0 t * ",
", 8 p N 9 7 h ` :.o.[ ;.:.@.{ ;.:.#.^ ;.:.#.^ ;.>.^ f a q 0 1 $ ",
"< 0 9 B & 5 f I ( ~ / / ^ Q / ` ^ ^ ~ ~ ~ Q R R ~ b e q a p < & ",
"r 0 7 F & ; p u 1 5 L u d d i d f x j f 1 5 L u d 5 u 1 s s < # ",
"2 q t H 2 7 < 1 y o   & t < u a u p t < y @   # 1 5 7 n p u < $ ",
"7 0 i x o $ , $ % $ + # & r $ & # & % % = ; . r = ; & @ p s 1 # ",
"2 5 0 x x N b k N k c k k z B N C v c k F N C k g c C c x u , & ",
"r 0 7 0 u u < 9 5 i p 1 ; : i 0 , 2 u i , 5 5 i 3 3 t 5 1 < 7 $ ",
"2 i u + i @ 3 5 7 X i @ 5 i < O i @ u u a O i o > < u @ # < p @ ",
"% a : 2 O u ; u > < . < < 1 1 2 X t 8 t 3 r o r ; < < # & 7 9 @ ",
"+ 3 $ # & # $ & , $ o # @ # $ @ $ 2 o , % # $ # $ o $ # $ $ o @ "
};
