/* XPM */
static char *result[] = {
/* columns rows colors chars-per-pixel */
"32 32 92 1 ",
"  c #00001C",
". c #000010",
"X c #000014",
"o c #000035",
"O c #000036",
"+ c #000022",
"@ c #000028",
"# c #000029",
"$ c #000024",
"% c #000021",
"& c #000016",
"* c #000019",
"= c #000031",
"- c #000061",
"; c #000048",
": c #000037",
"> c #000027",
", c #00002E",
"< c #00001A",
"1 c #000025",
"2 c #000073",
"3 c #000060",
"4 c #000034",
"5 c #00002B",
"6 c #000013",
"7 c #00001E",
"8 c #00003B",
"9 c #00002C",
"0 c #00002D",
"q c #000041",
"w c #000056",
"e c #000079",
"r c #00008C",
"t c #000083",
"y c #00005C",
"u c #000033",
"i c #000020",
"p c #00003F",
"a c #000066",
"s c #000084",
"d c #000026",
"f c #000023",
"g c #000070",
"h c #000074",
"j c #00004C",
"k c #000038",
"l c #000045",
"z c #00004B",
"x c #000052",
"c c #00002F",
"v c #00001F",
"b c #000039",
"n c #000054",
"m c #00003A",
"M c #00001D",
"N c #000043",
"B c #000046",
"V c #000058",
"C c #000030",
"Z c #00003E",
"A c #000032",
"S c #000042",
"D c #000047",
"F c #00005E",
"G c #00008E",
"H c #00007F",
"J c #00005A",
"K c #000093",
"L c #00007D",
"P c #00004E",
"I c #00006E",
"U c #000055",
"Y c #00006C",
"T c #00005D",
"R c #000064",
"E c #000050",
"W c #000067",
"Q c #00006D",
"! c #000076",
"~ c #000063",
"^ c #000057",
"/ c #00006A",
"( c #000090",
") c #000082",
"_ c #00004F",
"` c #00005B",
"' c #00007A",
"] c #00003D",
"[ c #000044",
"{ c #000077",
"} c #000065",
"| c #00003C",
/* pixels */
" ..XoOX...+@#$%&*%#+$X....X=-;:o",
">,+<123o451>>$6...X7$1X....<89%7",
".&0qwerty8uu#+X.....+=0i<<<i5$&.",
"...7patsyd%&717X.....oq:=5fd+17.",
"...X1pghj$&..X7$+<...kloi&&&++iX",
" ...i#zyxc ....X>$1vobnm ....&$f",
">7XMf#ox;q$&.... >kmNBVjcX.....7",
"+q5f>90$$$C07...X1u&..+8q0<....&",
",:0115#&..X705<..19&..&4ZOA1i <f",
"S:d<&&5fX...70l51@o+X.<Amd$$0A:D",
"Fy8> ..*iX... 08uccoo Mmui&..&#p",
"nGHyz0X.XfX..&,80<&&7CAkz=&...X+",
"+JKLgn0X.i+7dc0C,&...X78Pz0X...<",
",DIUU;q81@#$+f$$d .....78Vnb7X&i",
"oJU0#$$#Zkd<6X 7$i......7l3YT51@",
";JR0&...*o0 ....X1 X.....1z2gEpk",
"<*#o7X...X0:7....Xi5i....i:VW;oi",
"...X0B01 <X0Z7XX..X$Bc5ff1czgPui",
"&...X0Q!~87i8l851+,Z^p,%i+0zeFz0",
"0X...X0/()z5J_c$CoDlV:&...&>pJ`l",
"00X...<b!s'Q-xZ7.*#Sl#&....X7c;k",
"$$55+<iA/`o$$CZb ..7uu$X.....7cu",
"$&&dZl]qwu$...X#q5 <18#iX....X1#",
"$&..Xdl3Yl>X....7pl:A:n8>7X.&<i#",
"#17X..+8Pj80<....7Z[[kPn[po5,1@>",
"&7>>7Xicu$$#k1X...1j:#d$$>:0Zd%&",
".X1>>$fc$<..XdA7X.MSp+&...&&7u$.",
"<<i>d@>@#&....75ok#~F0 ......<05",
"n]c$&&i1#1X....X0_a{{3b1X...&fAJ",
"#j0&...X7#>&....7Za}lc=Cc<.<fod$",
".XO0X....<@@17<ik`F=M..X7|o5::<.",
"...7+.....1d@@cbp_N=&....*o`Jn0X"
};
