/* XPM */
static char *result[] = {
/* columns rows colors chars-per-pixel */
"32 32 19 1 ",
"  c #000200",
". c #000A00",
"X c #001E00",
"o c #002F00",
"O c #003600",
"+ c #003D00",
"@ c #004000",
"# c #004700",
"$ c #005300",
"% c #00A200",
"& c #00BB00",
"* c #00BF00",
"= c #00D000",
"- c #00DF00",
"; c #00E300",
": c #00F700",
"> c #00FC00",
", c green",
"< c None",
/* pixels */
"<<<<<<<<<<<<XO#$$#OX<<<<<<<<<<<<",
"<<<<<<<<<.@%-:,,,,:-%@.<<<<<<<<<",
"<<<<<<< #*:,,,,,,,,,,:*# <<<<<<<",
"<<<<<<o&>,,,,,,,,,,,,,,>&o<<<<<<",
"<<<<<+;,,,,,,,,,,,,,,,,,,;+<<<<<",
"<<<<+=,,,,,,,,,,,,,,,,,,,,=+<<<<",
"<<<o;,,,,,,,,,,,,,,,,,,,,,,;o<<<",
"<< &,,,,,,,,,,,,,,,,,,,,,,,,& <<",
"<<#>,,,,,,,,,,,,,,,,,,,,,,,,>#<<",
"<.*,,,,,,,,,,,,,,,,,,,,,,,,,,*.<",
"<@:,,,,,,,,,,,,,,,,,,,,,,,,,,:@<",
"<%,,,,,,,,,,,,,,,,,,,,,,,,,,,,%<",
"X-,,,,,,,,,,,,,,,,,,,,,,,,,,,,-X",
"O:,,,,,,,,,,,,,,,,,,,,,,,,,,,,:O",
"#,,,,,,,,,,,,,,,,,,,,,,,,,,,,,,#",
"$,,,,,,,,,,,,,,,,,,,,,,,,,,,,,,$",
"$,,,,,,,,,,,,,,,,,,,,,,,,,,,,,,$",
"#,,,,,,,,,,,,,,,,,,,,,,,,,,,,,,#",
"O:,,,,,,,,,,,,,,,,,,,,,,,,,,,,:O",
"X-,,,,,,,,,,,,,,,,,,,,,,,,,,,,-X",
"<%,,,,,,,,,,,,,,,,,,,,,,,,,,,,%<",
"<@:,,,,,,,,,,,,,,,,,,,,,,,,,,:@<",
"<.*,,,,,,,,,,,,,,,,,,,,,,,,,,*.<",
"<<#>,,,,,,,,,,,,,,,,,,,,,,,,>#<<",
"<< &,,,,,,,,,,,,,,,,,,,,,,,,& <<",
"<<<o;,,,,,,,,,,,,,,,,,,,,,,;o<<<",
"<<<<+=,,,,,,,,,,,,,,,,,,,,=+<<<<",
"<<<<<+;,,,,,,,,,,,,,,,,,,;+<<<<<",
"<<<<<<o&>,,,,,,,,,,,,,,>&o<<<<<<",
"<<<<<<< #*:,,,,,,,,,,:*# <<<<<<<",
"<<<<<<<<<.@%-:,,,,:-%@.<<<<<<<<<",
"<<<<<<<<<<<<XO#$$#OX<<<<<<<<<<<<"
};
