/* XPM */
static char *result[] = {
/* columns rows colors chars-per-pixel */
"32 32 217 2 ",
"   c #120C05",
".  c #160F08",
"X  c #16120B",
"o  c #19130B",
"O  c #1F1A11",
"+  c #231C14",
"@  c #2E2214",
"#  c #2F2A1A",
"$  c #342C1D",
"%  c #312715",
"&  c #39321E",
"*  c #2E2720",
"=  c #392E23",
"-  c #3D3525",
";  c #3C362C",
":  c #3D3D2C",
">  c #44381C",
",  c #433623",
"<  c #463C25",
"1  c #4B3C24",
"2  c #433C2E",
"3  c #4D3E2C",
"4  c #42342C",
"5  c #493B30",
"6  c #44412D",
"7  c #4A462C",
"8  c #474126",
"9  c #504B2F",
"0  c #56452E",
"q  c #5E522F",
"w  c #4B4531",
"e  c #4D4C34",
"r  c #464936",
"t  c #554B33",
"y  c #514D3A",
"u  c #584834",
"i  c #4E533E",
"p  c #555136",
"a  c #5E5235",
"s  c #53523B",
"d  c #5B543D",
"f  c #545B3F",
"g  c #5A5A3E",
"h  c #645135",
"j  c #62523C",
"k  c #6A553D",
"l  c #685939",
"z  c #735C3E",
"x  c #6C623A",
"c  c #545342",
"v  c #5A5542",
"b  c #5D5D43",
"n  c #595847",
"m  c #5C5B51",
"M  c #645744",
"N  c #625C46",
"B  c #6E5C44",
"V  c #645D4B",
"C  c #6B5E4B",
"Z  c #6B5740",
"A  c #735E46",
"S  c #665E53",
"D  c #5C6144",
"F  c #626245",
"G  c #636449",
"H  c #6B624B",
"J  c #65694B",
"K  c #696D4D",
"L  c #686545",
"P  c #746345",
"I  c #73634B",
"U  c #7B664B",
"Y  c #746B4E",
"T  c #7D694C",
"R  c #666255",
"E  c #6C6354",
"W  c #6E6B52",
"Q  c #656259",
"!  c #69655D",
"~  c #6D6C5A",
"^  c #676B51",
"/  c #736554",
"(  c #736B55",
")  c #7B6B54",
"_  c #756C5C",
"`  c #7C6D5C",
"'  c #7D6753",
"]  c #6D7152",
"[  c #737054",
"{  c #7C7355",
"}  c #75755B",
"|  c #7B755B",
" . c #7C785C",
".. c #76785D",
"X. c #6E6B64",
"o. c #736D65",
"O. c #7A6F63",
"+. c #706F6C",
"@. c #767461",
"#. c #7B7264",
"$. c #7A7964",
"%. c #75726C",
"&. c #7A746C",
"*. c #7A796C",
"=. c #7A7671",
"-. c #7F7973",
";. c #7E7C79",
":. c #826B48",
">. c #846D53",
",. c #806E5A",
"<. c #886F57",
"1. c #837255",
"2. c #84725B",
"3. c #8A745A",
"4. c #84795E",
"5. c #8C7A5E",
"6. c #897252",
"7. c #947C5D",
"8. c #907857",
"9. c #817464",
"0. c #847C63",
"q. c #8B7D63",
"w. c #847C6B",
"e. c #867665",
"r. c #937D62",
"t. c #947F6A",
"y. c #997F65",
"u. c #847C73",
"i. c #837F7A",
"p. c #8C826C",
"a. c #888066",
"s. c #948166",
"d. c #9A8267",
"f. c #94836B",
"g. c #9B846B",
"h. c #9F8A6F",
"j. c #8D8475",
"k. c #87827C",
"l. c #8C857C",
"z. c #918574",
"x. c #9B8671",
"c. c #958973",
"v. c #9B8A75",
"b. c #958B79",
"n. c #9C8D7A",
"m. c #97907C",
"M. c #9F957E",
"N. c #A1866E",
"B. c #A2896F",
"V. c #AA8C6E",
"C. c #A48C74",
"Z. c #A98E75",
"A. c #A68F7A",
"S. c #A69076",
"D. c #A99077",
"F. c #A4927C",
"G. c #AC947C",
"H. c #B1987F",
"J. c #898582",
"K. c #928D87",
"L. c #9B9183",
"P. c #9B978D",
"I. c #949187",
"U. c #9E9990",
"Y. c #A49582",
"T. c #A99784",
"R. c #AC9983",
"E. c #A39689",
"W. c #A49A8B",
"Q. c #AB9C8B",
"!. c #A79882",
"~. c #B49C84",
"^. c #B39E8B",
"/. c #B99F87",
"(. c #A29C94",
"). c #A89D92",
"_. c #B5A18D",
"`. c #BAA38D",
"'. c #B9A087",
"]. c #A6A09A",
"[. c #ABA399",
"{. c #B5A493",
"}. c #BAA693",
"|. c #BBA996",
" X c #B3A69A",
".X c #B5AA9D",
"XX c #BBAB9C",
"oX c #AEAEAE",
"OX c #B6ADA5",
"+X c #BAAEA2",
"@X c #B3AEA8",
"#X c #BDB1A4",
"$X c #BBB2AA",
"%X c #B6B0A9",
"&X c #BBB6B1",
"*X c #BDBAB5",
"=X c #BBB9B8",
"-X c #B6B6B6",
";X c #C0AC9B",
":X c #C4AC93",
">X c #C9B49B",
",X c #C4B4A4",
"<X c #C2B6AA",
"1X c #C5BAAB",
"2X c #CDBEAD",
"3X c #C8B6A7",
"4X c #D2BCA9",
"5X c #C4BCB4",
"6X c #C3BEB9",
"7X c #C8BCB2",
"8X c #C4C1BC",
"9X c #CFC7BE",
"0X c #D6C9BB",
"qX c #C7C6C6",
"wX c #CDC8C3",
"eX c #DBCFC4",
"rX c #DBD1C6",
/* pixels */
"~. XS.g.j 6 6 % r 8 : F.).).o.g ` I & 4.f.C.9.6X+Xn.) 8.>.T >.6.",
"_.Q.s.R.j n $ D  .D r ).[.$X%.Z 3.>.u q.g.x.u.+X$Xu.3.6.8.7.T 8.",
"G.!.W.F.a L :  .( G c <X*X8Xk.L a s.3 q.C.B.;.XX_.K.C.d.7.V.6.P ",
"V s e x.B e p 1. .K s ,X<X*Xk.[ t T 1 g./.f.J.@X.Xl.C.L.y y 7 :.",
"p.q.G g.| e g ] J f r ,X7X$X;.[ P I ; Z.}.g.i.%X&Xw.B.3Xp.0.G T ",
"{ { K _.,.e e  .] b r =XXXF.;.T T C.- T./.v.i..X$Xw.v.1X1.{ K T ",
"v.g.$.}.2.W 8 ] K W s &XXXQ.&.p.U D.2 G.`.C.k.^.R.#.z.XXn.f. .:.",
";Xc.@.{.' I.y b J 1.v *X.XOXo.f.l U & XX~.T.;.~.D.<.f.+X;Xc.$.r.",
",XXX*.H.C ].s ( G q.V }.}.XX` 3.N.g.3 XX{.^.-.|._.w 4.Q.#XXX*. X",
"$X}.!.G.C L.W K L v.E _./.5Xk.r.Z.S.0 +X`.Z.;.&XY.M w.q.a.B.S.G.",
"{.!.m.c.S c.( Y W 0.E }.$X+Xl.1.f.r.d |. XN.&.$X5X` _ 5.s.g.S.H.",
"{.v.4.] V w.~ 2.a.0.! }.<XwXu.F.d y.j 5X`.r.&.-X-Xw.) v.S.h._.H.",
": w t F s p.C ) F.p.m 5X&X$Xl.^.y.G.A $X_.3.O._.XXu.' m.e N b 4X",
"b s < 4.s @.( f.F.c.Q 8X$X`.w.g.Z./.k <X^.3.O.}. Xu.G ).F p < >X",
"s 9 h G.N b.V g.h.n.Q XX}./.` E.y./.a <XXX3.#.{.XXo.W +Xd 9 h Q.",
"p 7 4.Z.I (.2.v.n.c.n ~.,X|.9./.A.:Xd +XqX1.U ~.Y.k.0.#Xp 7 4.`.",
"3.' 7.5.I j.O.f.x.p.o.^.|.;XO.~.C.R.Z 7XqXT.,.~.R.S F.<X4.>.5.:X",
"g.7.0.g.( v.O.w.j.0.%.}._.^.C 4Xt.Z.A 6X8X/.,.}..X9.Q.3XN.7.4.>X",
"n.g.t.y._ C.O.t.z.j.o.^.^./.u.;XZ.R.A OX$X~.` }.$X=.u.g.C.v.G.d.",
"(.M.E.E.! x.i.z.L.p.C r.G.G.,.;X3X^.A }.OX/.2.<X^.o./ @.L.{.E.(.",
"Y.g.g.B.` b.i.v.R.K.! g.~./.` +X}.Z.B R.OX/.9.&X}.O.} 5.C.Z.Y.&X",
"~ d 7 h./ c.J.B.R.c.X.T.{.2Xu.5X XD._ C./.R.U .X{.u.c.5.p e 7 5X",
"m.a.v a.B l.&.$.E. .' Y.`.5Xl.+X{.G._ D.>.Z.' _.F.u.3.p.} 8 ~ wX",
"0.{ b ~.E P.E 0.m._ / {.W.$XJ.9X<X}./ G.3.Z.,.}.|.u.p.v.0.p #.8X",
"F.h.~ G.V j.c  .G.] )  XY.}.i.0X{./.B ~.N.r.I }.F.E q.s.p.a.[ 8X",
"3Xc.~  .c } S a.f.K v n.Y.~.;.rXH.`.M `.d.z C ^.^.%.f a.v.p.D &X",
"8X+X@.J N z._ p.p.^ s a.T.T.o.rX,X#XP }.~.Z.B .X+X+.n ( b. .~ @X",
"_.c.| [ C w.~ 0.p...: F.OX[.o.eX`.}.Z /.C.N.V /.}.%.F q.{ f. X@X",
"$X_.F.E.Q v.c e.a. .6  X7X@X;.4X_.wX/ d.h.y.) Q.+X=.z.v.Y.C.$X+X",
"(.L.j.b.S L.y F ( K : 1.| 3.M OXQ.XX#.3.g.>.M q.q.m $.w.q.z.n.D.",
"  v O k $ (.< h . l > + T O , M X z $ & z X c O ; q . q o 0 * 3 ",
"5 o 1 + o P.,   a @ $ q o > >   h + = u   u + - 0 o k . 4 + @ , "
};
