/* XPM */
static char *result[] = {
/* columns rows colors chars-per-pixel */
"32 32 190 2 ",
"   c #0C0101",
".  c #130202",
"X  c #1F0A0A",
"o  c #3C0505",
"O  c #35160E",
"+  c #392C2C",
"@  c #450000",
"#  c #4B0303",
"$  c #510505",
"%  c #5A0707",
"&  c #5C0909",
"*  c #4D1009",
"=  c #561A0E",
"-  c #4F1A1A",
";  c #541414",
":  c #5C1312",
">  c #571D1D",
",  c #640B0B",
"<  c #690E0E",
"1  c #6C0604",
"2  c #710606",
"3  c #67170E",
"4  c #671710",
"5  c #6D1212",
"6  c #6D1F1A",
"7  c #731515",
"8  c #741918",
"9  c #7B1C1C",
"0  c #771913",
"q  c #682318",
"w  c #7B261D",
"e  c #783314",
"r  c #4C3F3F",
"t  c #5D3E3E",
"y  c #5D3737",
"u  c #6E2B23",
"i  c #7F2222",
"p  c #762721",
"a  c #7F3A23",
"s  c #693030",
"d  c #643535",
"f  c #773030",
"g  c #783F3F",
"h  c #7A3737",
"j  c #755536",
"k  c #554141",
"l  c #5F5A5A",
"z  c #6A5656",
"x  c #7C5252",
"c  c #6C6C6C",
"v  c #656565",
"b  c #7C6464",
"n  c #797575",
"m  c #820C0B",
"M  c #801E1E",
"N  c #80211E",
"B  c #982F1C",
"V  c #BA2E1D",
"C  c #842323",
"Z  c #8A2525",
"A  c #8A2A2A",
"S  c #892B26",
"D  c #932D2D",
"F  c #8C322C",
"G  c #81342B",
"H  c #9C3325",
"J  c #94332A",
"K  c #8D3332",
"L  c #8C3B3B",
"P  c #943232",
"I  c #9A3434",
"U  c #963838",
"Y  c #9C3A3A",
"T  c #963F35",
"R  c #A53C2D",
"E  c #A23C3C",
"W  c #A83F39",
"Q  c #91441C",
"!  c #975B2B",
"~  c #804832",
"^  c #8F4E39",
"/  c #8E433D",
"(  c #9A4439",
")  c #8F5E39",
"_  c #875E3A",
"`  c #96593A",
"'  c #AF4621",
"]  c #B44029",
"[  c #B1493F",
"{  c #BE533C",
"}  c #A76839",
"|  c #834B4B",
" . c #964646",
".. c #9E4545",
"X. c #944A4A",
"o. c #9A4B4B",
"O. c #8A5A43",
"+. c #99584A",
"@. c #8A5353",
"#. c #995050",
"$. c #975D5D",
"%. c #9A5959",
"&. c #A54242",
"*. c #AA4545",
"=. c #A44B4B",
"-. c #AC4A4A",
";. c #B24C4C",
":. c #A9584F",
">. c #AA534D",
",. c #AC5353",
"<. c #A55A57",
"1. c #B65252",
"2. c #BA5656",
"3. c #B55F5F",
"4. c #BC5B5A",
"5. c #8B6565",
"6. c #AB6464",
"7. c #A66E6E",
"8. c #B36666",
"9. c #BA6060",
"0. c #B06868",
"q. c #BB6969",
"w. c #BA756D",
"e. c #A87777",
"r. c #B47777",
"t. c #BC7D7D",
"y. c #C55C4A",
"u. c #C05E5E",
"i. c #CA6140",
"p. c #C86150",
"a. c #DB755A",
"s. c #DE7B55",
"d. c #C56262",
"f. c #C96666",
"g. c #CC6B6B",
"h. c #C76A6A",
"j. c #D06F6F",
"k. c #C47471",
"l. c #CE7272",
"z. c #C07F7F",
"x. c #D37373",
"c. c #D47C7C",
"v. c #DA7D7D",
"b. c #B88275",
"n. c #CC985B",
"m. c #898282",
"M. c #AF8585",
"N. c #B68787",
"B. c #B98A8A",
"V. c #BE8282",
"C. c #B29C9C",
"Z. c #BF9393",
"A. c gray67",
"S. c #B9B9B9",
"D. c #C18383",
"F. c #C88080",
"G. c #C48B8B",
"H. c #DD8282",
"J. c #D78888",
"K. c #C29D9D",
"L. c #CF9A9A",
"P. c #C29494",
"I. c #D39D9D",
"U. c #DC9A9A",
"Y. c #D19393",
"T. c #E28A8A",
"R. c #E49292",
"E. c #E99494",
"W. c #EE9C9C",
"Q. c #F09F9F",
"!. c #CFADAD",
"~. c #C7A4A4",
"^. c #D3AAAA",
"/. c #DDA8A8",
"(. c #C4B0B0",
"). c #DBBDBD",
"_. c #D5B9B9",
"`. c #E2A8A8",
"'. c #F2A1A1",
"]. c #E2BDBD",
"[. c gray76",
"{. c #E5C4C4",
"}. c #EECBCB",
"|. c #E5C9C9",
" X c #E4D5D5",
".X c #EFD0D0",
"XX c #EDDADA",
"oX c #EFEFEF",
"OX c #EFE5E5",
"+X c None",
/* pixels */
"+X+X+X+X+X+X+X+X+X+X+X+X+X.XJ.R.;.d.l.U.}.+X+X+X+X+X+X+X+X+X+X+X",
"+X+X+X+X+X+X].Y.H.j.U./.g.j.g.g.2.u.4.l.j.f.v.`.}.+X+X+X+X+X+X+X",
"+X+X+X+X+X+X3.;.f.x.g.f.j.j.f.4.&.1.*.4.u.d.j.x.h.3.`.+X+X+X+X+X",
"+X+X+X+X+X+X-.;.d.d.u.x.E.E.E.x.&.-.,.x.f.u.g.x.g.;.9.+X+X+X+X+X",
"+X+X+X+X+X+XY Y E E ;.j.E.W.'.H.1.1.j.T.v.f.1.2.2.*.=.+X+X+X+X+X",
"+X+X+X+X+XG.8 C M C I ;.d.v.T.x.4.*.j.v.j.4.&.D I D U |.+X+X+X+X",
"+X+X+X+X+X=.& % % M D D D *.j.4.2.Y 1.1.Y I D M 5 5 9 z.+X+X+X+X",
"+X+X+X+X+XD 5 ; : C I *.P E j.4.c.E ;.Z 8 D D 7 $ & =.*.+X+X+X+X",
"+X+X+X+XG.h n A.C.5.&.2.p.j.v.f.h.2.g.*.&.;.Y &.$.5.@.Y +X+X+X+X",
"+X+X+X+X,.s y t r | -.v.R.T.x.f.1.l.E.W.J.2...b m.m.l g I.+X+X+X",
"+X+X+X+XU , 5 o + _.=.h.W.E.x.4.( x.Q.Q.v.9.6.x > > - 6 t.+X+X+X",
"+X+X+X+XD < $ o C.+XL i *.4.4.1.E u.f.u.E ^.+X+X$.& $ 8 ;.+X+X+X",
"+X+X+X+X&.9 M 5 K.+XL e ^ T J I C J :.! 3 r.+X+XB.A 8 A 4.+X+X+X",
"+X+X+X+X*.I C X.+X+X=.J n.} 0 < 7 Q n.} 9 8 +X+X~.U *.*.1.+X+X+X",
"+X+X+X+XI D 9 ~.+X+XL 9 S w < < 7 Z U w 5 8 P.+XOX#.P E E +X+X+X",
"+X+X+X+XE Z M.+X+XK.& 7 7 , w F w 6 4 5 $ , <.+X+X XP I D +X+X+X",
"+X+X+X+X1.*.7.+X+X7.# , i O = # 1 * q 9 @ $ X.+X+X+Xo.*.&.+X+X+X",
"+X+X+X+X1.4.1.U.+X& @ & K X   . . . - C @ # 9 ].+X|.&.2.;.+X+X+X",
"+X+X+X+XE ;.2.z.^.& @ $ E : 2 , 2 m u K @ @ 7 _.+Xk.j.d.*.+X+X+X",
"+X+X+X+XU D I I.r.& @ @ +.a V G ( R j / $ # < 8.+Xq.&.U I +X+X+X",
"+X+X+X+X+X+X+X+X=.5 % % >.O.) j _ ` :.U , 7 5 3.+X!.f L V.+X+X+X",
"+X+X+X+X+X+X+X+X&.8 < , i ,.w.b.b.k.3.C D D A I.+X+X+X+X+X+X+X+X",
"+X+X+X+X+X+X+X+XE M Z C , @.+X+X+X+Xb.C { E E XX+X+X+X+X+X+X+X+X",
"+X+X+X+X+X+X+X+Xz.Z E D p _.+X+X+X+XC.K y.W 0.+X+X+X+X+X+X+X+X+X",
"+X+X+X+X+X+X+X+XD.B ' I h  X+X+X+X+X+X<.y.[ 8.+X+X+X+X+X+X+X+X+X",
"+X+X+X+X+X+X+X+XV.H { &.B.+X+X+X+X(.3.J s.y.P 8.+X+X+X+X+X+X+X+X",
"+X+X+X+X+X+X+X+Xt.H i.;.N.+X+X+X+Xz =.A 1.u.A o.c +X+X+X+X+X+X+X",
"+X+X+X+X+X+X+X+Xt.H a.;.B.+X+X+X+X+XG.C 9 9 C !.+X+X+X+X+X+X+X+X",
"+X+X+X+X+X+X+X+Xt.R a.;.0.+X+X+X+X+X+X .7 8 3.+X+X+X+X+X+X+X+X+X",
"+X+X+X+X+X+X+X{.6.E g.;.U ^.+X+X+X+X+X7.7 8 Z.+X+X+X+X+X+X+X+X+X",
"+X+X+X+X+X+XS.#.I -.f.;.*.%.[.+X+X+X+X+X+X+X+X+X+X+X+X+X+X+X+X+X",
"+X+X+X+X+XoXv t P  .d ..K k c +X+X+X+X+X+X+X+X+X+X+X+X+X+X+X+X+X"
};
