/* XPM */
static char *result[] = {
/* columns rows colors chars-per-pixel */
"32 32 196 2 ",
"   c #312513",
".  c #352C14",
"X  c #3B2D16",
"o  c #3B2E1C",
"O  c #362B18",
"+  c #3B321A",
"@  c #2B2924",
"#  c #2A2A2A",
"$  c #242524",
"%  c #392A21",
"&  c #2F3427",
"*  c #3D3822",
"=  c #333332",
"-  c #3C3A36",
";  c #3B3B3A",
":  c #711C18",
">  c #4A2919",
",  c #542718",
"<  c #44331C",
"1  c #4E391E",
"2  c #58341F",
"3  c #65261C",
"4  c #7B241F",
"5  c #603B1A",
"6  c #703A15",
"7  c #462422",
"8  c #5C2D23",
"9  c #433421",
"0  c #433D25",
"q  c #4B3A26",
"w  c #463929",
"e  c #4C3C2A",
"r  c #4A3425",
"t  c #553322",
"y  c #5B3323",
"u  c #553D2A",
"i  c #593E2C",
"p  c #443B36",
"a  c #463E39",
"s  c #742B24",
"d  c #6B3323",
"f  c #6B3A29",
"g  c #75372B",
"h  c #6B2727",
"j  c #3B422C",
"k  c #484228",
"l  c #54422C",
"z  c #5D462D",
"x  c #4D4333",
"c  c #544533",
"v  c #564C3B",
"b  c #5C4534",
"n  c #4E5539",
"m  c #53563A",
"M  c #52593D",
"N  c #5A573D",
"B  c #604323",
"V  c #7A552D",
"C  c #664D37",
"Z  c #7A4835",
"A  c #66543D",
"S  c #6A563F",
"D  c #7B543D",
"F  c #7E593A",
"G  c gray27",
"H  c #4A4A49",
"J  c #4B4845",
"K  c #514E48",
"L  c #5A5C41",
"P  c #565656",
"I  c #5D5C5B",
"U  c #5F5851",
"Y  c #694C43",
"T  c #645545",
"R  c #725441",
"E  c #705A41",
"W  c #66684D",
"Q  c #756047",
"!  c #7D6A4F",
"~  c #76604B",
"^  c #78774F",
"/  c #696658",
"(  c #7B6A55",
")  c #766758",
"_  c #737A57",
"`  c #646464",
"'  c #6D6964",
"]  c #6E6A6A",
"[  c #7D6F64",
"{  c #7D7C7A",
"}  c #767676",
"|  c #8B352F",
" . c #833D34",
".. c #8B3B34",
"X. c #9D3D3B",
"o. c #993635",
"O. c #A63E3E",
"+. c #995824",
"@. c #80493B",
"#. c #92433D",
"$. c #9D413E",
"%. c #B5502D",
"&. c #A3612D",
"*. c #994741",
"=. c #93564B",
"-. c #A64543",
";. c #B15655",
":. c #89694A",
">. c #9A6C4A",
",. c #9C724C",
"<. c #8C6D5A",
"1. c #917759",
"2. c #9A785A",
"3. c #A87548",
"4. c #B67B49",
"5. c #B8635D",
"6. c #A67655",
"7. c #896761",
"8. c #877360",
"9. c #997E62",
"0. c #967D61",
"q. c #A26E66",
"w. c #BE6963",
"e. c #A17568",
"r. c #BE7B6F",
"t. c #C57B54",
"y. c #E77A63",
"u. c #7A8459",
"i. c #788265",
"p. c #81845B",
"a. c #B8874D",
"s. c #B58759",
"d. c #BC935E",
"f. c #9B8266",
"g. c #8A8374",
"h. c #908779",
"j. c #A2876D",
"k. c #B48268",
"l. c #A48D72",
"z. c #AC947C",
"x. c #AC9277",
"c. c #B0977D",
"v. c #C98756",
"b. c #CC856F",
"n. c #CD996B",
"m. c #DA9466",
"M. c #D68E7D",
"N. c #D39970",
"B. c #D6AD7C",
"V. c #E4A37A",
"C. c #8D8D8D",
"Z. c gray51",
"A. c #939184",
"S. c #92908D",
"D. c #939291",
"F. c #9F9B90",
"G. c #A49C8D",
"H. c #AD9B8F",
"J. c #B29A81",
"K. c #B4988F",
"L. c #AA9E96",
"P. c #B2A087",
"I. c #BAAA9D",
"U. c #BBA69A",
"Y. c #A4A4A4",
"T. c #ABA5A0",
"R. c #B4AEA5",
"E. c #BBB9AD",
"W. c #B1B1B1",
"Q. c #C99595",
"!. c #E89D86",
"~. c #DBA682",
"^. c #D7B284",
"/. c #DDB99F",
"(. c #E5A984",
"). c #FAB790",
"_. c #C4BCAB",
"`. c #BFC2B7",
"'. c #CCC2B6",
"]. c #CBC5BF",
"[. c #D0C6B9",
"{. c #CCCBCB",
"}. c #C8CCC4",
"|. c #DDC9C4",
" X c #DDD4C9",
".X c #DDDDDC",
"XX c #DBD7D5",
"oX c #EBD6D6",
"OX c #E2DAD4",
"+X c #E2DFDC",
"@X c #E4E2DF",
"#X c #F9E4D6",
"$X c #E8E8E6",
"%X c #F0E9E2",
"&X c #F1F0EE",
"*X c None",
/* pixels */
"*X*X*X*X*X*X*X*X*X*X*X'.E.].'.E.@X*X*X*X*X*X*X*X*X*X*X*X*X*X*X*X",
"*X*X*X*X*X*X*X*X*X*X*Xi.u.u.u.^ }.*X*X*X*X*X*X*X*X*X*X*X*X*X*X*X",
"*X*X*X*X*X*X*X*X*X*X*X^ n.^.B.s.'.*X*X*X*X*X*X*X*X*X*X*X*X*X*X*X",
"*X*X*X*X*X*X*X*X*X*X#Xa.n.(.V.s.B.*X*X*X*X*X*X*X*X*X*X*X*X*X*X*X",
"*X*X*X*X*X*X*X*X*X*XU.v.y.d.t.m./.@X*X*X*X*X*X*X*X*X*X*X*X*X*X*X",
"*X*X*X*X*X*X*XOX XT.I @.v.3.4.4.:.l. X X*X*X*X*X*X*X*X*X*X*X*X*X",
"*X*X*X*X*X*XP.x.J.J.) e +.%.&.V Q f.l.f._.*X*X*X*XW.Z.] $X*X*X*X",
"*X*X*X*X*X[.1.x.c.J.j.<.Z 6 2 *.1.f.f.f.8.*X{.Y.C.P I C.*X*X*X*X",
"*X*X*X*X*XE.E f.f.:.k.r.w.X.*.;.2.! l A / D.C.{ ` Y.$X*X*X*X*X*X",
"*X*X*X*X*XR.@.6.>.+ R q.;.o.O.#.c w - - } C.Z.] {.*X*X*X*X*X*X*X",
"*X*X*X*X*X,.b.).m.< O i s 3 r a J / ` H v T Y =.|.*X*X*X*X*X*X*X",
"*X*X*X*X*X>.k.~.,.1 r o % b I ` ` P ; e z f -.;.oX*X*X*X*X*X*X*X",
"*X*X*X*X*X! f.V.N.C K ; P ' H ; ; ; { A.e.q.Q.*X*X*X*X*X*X*X*X*X",
"*X*X*X*X*X/ >.!.M.8.` G G ; = = = = A.*X*X*X*X*X*X*X*X*X*X*X*X*X",
"*X*X*X*X*X.XU.7.' H = # ; a p 9 $ & }.*X*X*X*X*X*X*X*X*X*X*X*X*X",
"*X*X*X*X*X*X*XD.; $ @ 7 8 h % * @ j { &X*X*X*X*X*X*X*X*X*X*X*X*X",
"*X*X*X*X*X*X*X*XC.@ r d s , e c e r e XX*X*X*X*X*X*X*X*X*X*X*X*X",
"*X*X*X*X*X*X*X*XS.9 l > > O q C i r w XX*X*X*X*X*X*X*X*X*X*X*X*X",
"*X*X*X*X*X*X*X*XR.q 8 s     y ..| 2 A .X*X*X*X*X*X*X*X*X*X*X*X*X",
"*X*X*X*X*X*X*X*X*X< 2 : . > 8 ..-.g }.*X*X*X*X*X*X*X*X*X*X*X*X*X",
"*X*X*X*X*X*X*X*X*X) 3 , X u g O...g *X*X*X*X*X*X*X*X*X*X*X*X*X*X",
"*X*X*X*X*X*X*X*X*XL., < . 1 R R E i *X*X*X*X*X*X*X*X*X*X*X*X*X*X",
"*X*X*X*X*X*X*X*X*X&Xv X   k W _ ~ ) *X*X*X*X*X*X*X*X*X*X*X*X*X*X",
"*X*X*X*X*X*X*X*X*X*XG.0 . * N L C ) *X*X*X*X*X*X*X*X*X*X*X*X*X*X",
"*X*X*X*X*X*X*X*X*X*X*X*X/ k m N N m *X*X*X*X*X*X*X*X*X*X*X*X*X*X",
"*X*X*X*X*X*X*X*X*X*X*X*Xg.k n n M M *X*X*X*X*X*X*X*X*X*X*X*X*X*X",
"*X*X*X*X*X*X*X*X*X*X*X*X) + z S A G.*X*X*X*X*X*X*X*X*X*X*X*X*X*X",
"*X*X*X*X*X*X*X*X*X*X*X@Xk . d *.Z K.*X*X*X*X*X*X*X*X*X*X*X*X*X*X",
"*X*X*X*X*X*X*X*X*X*X*X*Xh.l y g f G.*X*X*X*X*X*X*X*X*X*X*X*X*X*X",
"*X*X*X*X*X*X*X*X*X*X*X*X*XR...O.| H.*X*X*X*X*X*X*X*X*X*X*X*X*X*X",
"*X*X*X*X*X*X*X*X*X*X*X*X*XOX .o.g L.*X*X*X*X*X*X*X*X*X*X*X*X*X*X",
"*X*X*X*X*X*X*X*X*X*X*X*X*X*XOXoXXX*X*X*X*X*X*X*X*X*X*X*X*X*X*X*X"
};
