/* XPM */
static char *result[] = {
/* columns rows colors chars-per-pixel */
"32 32 113 2 ",
"   c #2A2109",
".  c #33260E",
"X  c #362911",
"o  c #3B2D13",
"O  c #422F13",
"+  c #443215",
"@  c #483417",
"#  c #463218",
"$  c #4B351A",
"%  c #4D381A",
"&  c #52361B",
"*  c #543C1D",
"=  c #593D1E",
"-  c #5C3F21",
";  c #5D401E",
":  c #5D4120",
">  c #634423",
",  c #694724",
"<  c #674824",
"1  c #6D4A26",
"2  c #6E4B28",
"3  c #714B27",
"4  c #744D29",
"5  c #7A4F2B",
"6  c #77502A",
"7  c #7C522B",
"8  c #7C5531",
"9  c #82552E",
"0  c #86592F",
"q  c #895A2F",
"w  c #845530",
"e  c #895731",
"r  c #855932",
"t  c #8C5B32",
"y  c #8C5F38",
"u  c #925E34",
"i  c #8F6035",
"p  c #8E613C",
"a  c #956135",
"s  c #9A6336",
"d  c #956339",
"f  c #9D6539",
"g  c #9E693D",
"h  c #A2663B",
"j  c #A46A3D",
"k  c #A96C3E",
"l  c #AD703F",
"z  c #926846",
"x  c #9E6A42",
"c  c #9B7656",
"v  c #A46D42",
"b  c #AB6E41",
"n  c #B16E44",
"m  c #A67043",
"M  c #AE7143",
"N  c #AC7349",
"B  c #B37344",
"V  c #B87546",
"C  c #BA7847",
"Z  c #B47649",
"A  c #BA7648",
"S  c #B6794B",
"D  c #BC7A4B",
"F  c #A57B5A",
"G  c #B57B52",
"H  c #BB7E53",
"J  c #C27D4D",
"K  c #C87F4F",
"L  c #C37F51",
"P  c #BE865C",
"I  c #C5804F",
"U  c #C58252",
"Y  c #CB8454",
"T  c #CD8857",
"R  c #C3855B",
"E  c #CC8858",
"W  c #D18756",
"Q  c #D08957",
"!  c #D48C5B",
"~  c #D98F5E",
"^  c #D7905E",
"/  c #D9905E",
"(  c #CC8D61",
")  c #D18D60",
"_  c #CE9167",
"`  c #D59162",
"'  c #DC9362",
"]  c #D2956B",
"[  c #D9966A",
"{  c #DC996C",
"}  c #D79E77",
"|  c #DF9C71",
" . c #E09665",
".. c #E29866",
"X. c #E49B6A",
"o. c #E99F6D",
"O. c #E39E72",
"+. c #DEA47F",
"@. c #EBA16F",
"#. c #E6A174",
"$. c #ECA473",
"%. c #E4A47B",
"&. c #EEA679",
"*. c #F1A776",
"=. c #F2AA7B",
"-. c #EAAB85",
";. c #E0AB8A",
":. c #F3AD80",
">. c #F5B184",
",. c #F1B28B",
"<. c #F9B58C",
"1. c #FBC09C",
"2. c #F9C7A8",
/* pixels */
"4 N b j b e < y a k M M : 1 k v @.U 2 - a u / S j = t D K  .U q ",
"k D ..f -   P <.m Z / = t Y j Q K b & 2 u u B k 7 ; Y S t j u u ",
"! ~ k o : S } { d l * ; B l h D 3 # , f U ! f 7 @ : j 0 = N V U ",
"K 4 . 0 b { O.z x 8 $ p =.] 6 (   $ q U / Y * @ = > u q f / $.=.",
"; X o } R J A D 7 o 4 U 1.c 7 r o 4 m { U j X , A $.=.$.I ~  .Z ",
"o 9 m ) ! j A b + * Y u N g S & # M ~ &.G +.k T $.*.*.X./ V 9 o ",
"b 7 J %.* L a $   > b Y &.d Z 9 * 7 V I X.! ' o.o.Q ' ~ n 3 # ; ",
"B D t l 0 g % .   4 % m Y X.4 ! k t 1 9 V J u ! A L V 7 * # > k ",
"U ` t B q +       : ; > E x r -.S N S k f k h k b h a e 2 @ 4 h ",
"v h 2 4 # < i d 6 4 1 # 7 9 ` ~ #.D u %.( M S C h b h h n t 9 9 ",
"3 4 < 7 Z m s C k i C s < > 4 g ! a H { ' >.6 s ! ~ Z B u j u w ",
"2 < u ~ X.k q Q V T < C b 4 > u C s t 8 D J 0 a $.~ ' u K k V u ",
"e , 9 Z y K v 2 l s j D f j , < q g M 6 b K n B v D U 0 J ) A 3 ",
"s 5 s k u 5 7 u C 1 / l ' 6 M 7 $   X 2 e k j I B k D D J W U b ",
"k 5 < < #   < k Y 1 T D B s b e ; X       O & 3 u n J Z 1 [ [ 9 ",
"s 9 # o % 9 a k Z T < j g l t t u u q 9 3 &     X = u D r ! h t ",
"N 7 $ * 7 h M ..' ' u k j u k J D l J k K M f 3 o   & n k B O.o.",
"g 7 : 4 6 a t Y J 0 a 1 ; j k f k j a q n V D J h , & s Y > :. .",
"> 9 : 8 7 a f t < X 1 , t D S B a ! ! ;.s D f D b J n J j N ..X.",
"t # - + # - o . # a 9 Z ! I $.h j  .I *.g a U Z f J h j k a f B ",
"5 $ o # % o   $ k D j f X.S i f q 7 9 A q b J ^ j g Y Y &.s k a ",
"6 7 0 4 :   4 g g ` b a s 4 6 < 2 < 0 q h f a U u J J Q E M B t ",
"s k a , + : h > { >.t D 4 % > a u j 4 a t a 4 u j S s 9 9 Y a 6 ",
"B 9 2 X 2 C k U / P 2 : r k m s ! o.u W A l * 1 V j h a j q : u ",
"K 1 o r , S s v _ * > s ! U ..~ X.X.I X.B D 6 k 6 4 1 1 * o 4 k ",
"s * 4 | 4 2.) 7 7 * s ..#.4 U X./ Y k X.! j Y k b O       * j Y ",
"4 t -.v ] X.R 9 1 q ! &.#.x S d t a a S C q C B a 2     . 7 I I ",
"9 Y U s ! =.4 ; Z / X.X...s > o * ; > t ; ^ I l 2 5 . . ; M X.s ",
"a #.[ 9 H q 4 0 E ' *.' 0 * 4 q D q * ; 6 D X.W q h X @ t K ! 6 ",
"*.@.<.h 7 9 t ,.h J ! 2 ; M 6 d S k a + 3 k @.! l B @ < s D W J ",
"D ! r 7 2 M C O.6 6 $ 6 k ~ j 7 > Z R < o a  .X.I a % 9 7 Y X.l ",
"t 7 * y I @.I M 7 $ t r Y y 2 ; j n U 4 * f /  .I 9 , 4 4 Y Q a "
};
