/* XPM */
static char *result[] = {
/* columns rows colors chars-per-pixel */
"32 32 205 2 ",
"   c #3C4F1E",
".  c #25541E",
"X  c #3F5E1F",
"o  c #1F562A",
"O  c #295C2A",
"+  c #33642D",
"@  c #356B2A",
"#  c #3A772C",
"$  c #3D753A",
"%  c #32643C",
"&  c #41733D",
"*  c #41793A",
"=  c #4D693E",
"-  c #617635",
";  c #3E6F40",
":  c #3F7346",
">  c #7F5A43",
",  c #566848",
"<  c #45744C",
"1  c #517649",
"2  c #527652",
"3  c #7A7D63",
"4  c #863E1A",
"5  c #903F17",
"6  c #BD1B24",
"7  c #B41921",
"8  c #BC333A",
"9  c #BF2D35",
"0  c #CD1B1A",
"q  c #C4191E",
"w  c #DD1F1E",
"e  c #D92319",
"r  c #F2291A",
"t  c #F43518",
"y  c #E12215",
"u  c #CC1C25",
"i  c #C11C24",
"p  c #D81C25",
"a  c #E31E27",
"s  c #C92A2D",
"d  c #C62428",
"f  c #D6262C",
"g  c #CA2E35",
"h  c #D62C34",
"j  c #C6353A",
"k  c #E4222A",
"l  c #EC2B2B",
"z  c #E63938",
"x  c #E62830",
"c  c #86431C",
"v  c #92451B",
"b  c #A7511F",
"n  c #A04B1D",
"m  c #874722",
"M  c #9E4F21",
"N  c #875636",
"B  c #995D33",
"V  c #945329",
"C  c #A95826",
"Z  c #B35C24",
"A  c #A35F38",
"S  c #B96629",
"D  c #A76637",
"F  c #BF7635",
"G  c #B3662F",
"H  c #CF4E3D",
"J  c #C46F26",
"K  c #A6384C",
"L  c #B93842",
"P  c #9D4257",
"I  c #AA444E",
"U  c #A05F41",
"Y  c #A6465B",
"T  c #B7545B",
"R  c #B54047",
"E  c #9D6B48",
"W  c #946E57",
"Q  c #83775B",
"!  c #B76D42",
"~  c #BA7C43",
"^  c #B57C4D",
"/  c #B57745",
"(  c #AB7B59",
")  c #B17E54",
"_  c #BC635E",
"`  c #925B6C",
"'  c #A85964",
"]  c #A55C72",
"[  c #9C7868",
"{  c #867F6D",
"}  c #A27B68",
"|  c #AB707E",
" . c #BF7E7A",
".. c #B36F77",
"X. c #C64649",
"o. c #C74B53",
"O. c #D84E5A",
"+. c #D2505C",
"@. c #D4444A",
"#. c #E64249",
"$. c #C27E41",
"%. c #C85B66",
"&. c #D85968",
"*. c #EE5F6B",
"=. c #D16F7B",
"-. c #E86877",
";. c #5D903F",
":. c #488936",
">. c #5B885D",
",. c #689352",
"<. c #6EB348",
"1. c #6D9367",
"2. c #719569",
"3. c #678F76",
"4. c #7CA876",
"5. c #73A470",
"6. c #BD814B",
"7. c #BC8553",
"8. c #B7865B",
"9. c #8F997D",
"0. c #B88A63",
"q. c #B69567",
"w. c #A18471",
"e. c #BF9A78",
"r. c #A68D71",
"t. c #C78A4D",
"y. c #C68648",
"u. c #CC914E",
"i. c #C38B54",
"p. c #C19672",
"a. c #B97E8A",
"s. c #DB7987",
"d. c #D47F90",
"f. c #CB7782",
"g. c #E77385",
"h. c #709A8E",
"j. c #6E9F98",
"k. c #9A958F",
"l. c #969998",
"z. c #9C8897",
"x. c #A99389",
"c. c #B99C8C",
"v. c #A98598",
"b. c #A39A94",
"n. c #AC9091",
"m. c #B78E92",
"M. c #99B695",
"N. c #8CAF8C",
"B. c #B6A899",
"V. c #BAA08A",
"C. c #9C9CA4",
"Z. c #A899A6",
"A. c #B697A9",
"S. c #89AFA0",
"D. c #88AEB2",
"F. c #A6A4AB",
"G. c #ABACA6",
"H. c #A3BFAF",
"J. c #B6B3A8",
"K. c #A9AEB5",
"L. c #A4B7B9",
"P. c #B6B9B9",
"I. c #B0A8BB",
"U. c #D88997",
"Y. c #C9A78B",
"T. c #C0AE9E",
"R. c #CCB29C",
"E. c #C296A3",
"W. c #CDB7A2",
"Q. c #C1B3B9",
"!. c #C8B0AA",
"~. c #A8CF8E",
"^. c #A3D5B2",
"/. c #B5C9B4",
"(. c #CBC4B9",
"). c #D7C7B9",
"_. c #C1D5BB",
"`. c #96BBC6",
"'. c #AABDC3",
"]. c #BBBBC6",
"[. c #CFBEC6",
"{. c #98C1C0",
"}. c #AFC0C8",
"|. c #B8C3CD",
" X c #B9CDD4",
".X c #BFD4D6",
"XX c #CAC5CB",
"oX c #CAD8C5",
"OX c #D7D2CE",
"+X c #CBCED4",
"@X c #C9D6D7",
"#X c #D4D4DB",
"$X c #D5D6D8",
"%X c #D3C8CF",
"&X c #E0CDD2",
"*X c #E6D3D7",
"=X c #DAE4DB",
"-X c #EBE3DD",
";X c #E0E6DD",
":X c #E2DEE2",
">X c #D3E3E9",
",X c #EBECE9",
"<X c #E6E7E7",
"1X c #F3F4F5",
"2X c None",
/* pixels */
"2X2X2X2X2X2X2X2X2X2X2X2X2X2X2X2X2X2X2X2X2X2X2X2X2X2X2X2X2X2X2X2X",
"2X2X2X2X2X2X2X2X2X2X2X2X2X2X2X2X2X2X2X2X2X2X2X2X2X2X2X2X2X2X2X2X",
"2X2X2X2X2X2X2X2X2X2X2X2X2X2X2X2X2X-X-X2X2X2X2X2X2X2X2X2X2X2X2X2X",
"2X2X2X2X2X2X2X2X2X2X2X2X2X2X2X2XY.p.p.p.W.2X2X2X2X2X2X2X2X2X2X2X",
"2X2X2X2X2X2X2X2X2X2X2X2X2X2X2XOX^ y.^ ) ) 0.R.,X2X2X2X2X2X2X2X2X",
"2X2X2X2X2X2X2X2X2X2X2X2X2X2X#Xx.V B / ~ 7.8.8.8.W.2X2X2X2X2X2X2X",
"2X2X2X2X2X2X2X2X2X2X2X2X2X+XF.W c v / ~ ~ i.^ ) 0.).2X2X2X2X2X2X",
"2X2X2X2X2X2X2X2X2X2X2X2X2X|.k.> 4 v G ~ y.6.~ i.7.8.Y.2X2X2X2X2X",
"2X2X2X2X2X2X2X2X2X2X2X2X X].F.W 4 5 C G t.i.u.t.7.8.0.-X2X2X2X2X",
"2X2X2X2X2X2X2X2X2XoXoXM.D.L.G.k.N M b J S J $.t.y.i.i.,X2X2X2X2X",
"2X2X2X2X2X2X<X~.<.:.$ ; h.|.r.w.b.E n Z Z J J G M B c.2X2X2X2X2X",
"2X2X2X2X2XoX>.:.<.N.S.3.< L.p.G } b.} A C Z b m m [ $X2X2X2X2X2X",
"2X2X2X2X2X: O 1.=X>XD.j.% < B.$.C E n.P.x.( 4 m N b.#X2X2X2X2X2X",
"2X2X2X2X/.O 2 >X1X{.^.^.5.. 2 r.! Z D E V.(.(.J.P.}.#X2X2X2X2X2X",
"2X2X2X2X5.$ /.1X@XP. XP.].3.. + 3 } ! F F E W k.l.@X2X2X2X2X2X2X",
"2X2X2X2X4.1.<X=X'.A.E.E.A.Z., O + 1 Q ( q.q.B.}.}.2X2X2X2X2X2X2X",
"2X2X2X2X_.5.oXM.9.[ U.U.s.=.=.[ = + @ ;.,.2.N.S.$X2X2X2X2X2X2X2X",
"2X2X2X2X2XM.1.* # - s.g.-.-.*.-. .{ 2 # # * >.H.2X2X2X2X2X2X2X2X",
"2X2X2X2X2X2XG.,   X D O.-.-.-.-.=.U.&X,X@X'.'..X2X2X2X2X2X2X2X2X",
"2X2X2X2X2XOXJ...X.H j h h @.O.&.&.&.U.*XXXZ.`.>X2X2X2X2X2X2X2X2X",
"2X2X2X2X2X(.B.%.z t e 0 u u d s j j %.f.a.z.`.2X2X2X2X2X2X2X2X2X",
"2X2X2X2X2XW.c.%.l t y 0 q i i i g L %.T ' Z. X2X2X2X2X2X2X2X2X2X",
"2X2X2X2X2X).Y.o.z r r w u 6 7 7 7 8 T L ' L.<X2X2X2X2X2X2X2X2X2X",
"2X2X2X2X2XOXT._ o.#.l k p u 6 6 6 8 8 I b.@X2X2X2X2X2X2X2X2X2X2X",
"2X2X2X2X2X2XQ.e.' O.#.x a a p u d s L ' P.,X2X2X2X2X2X2X2X2X2X2X",
"2X2X2X2X2X2X:XP.v.] X.h x k a p s 9 ' !.@X2X2X2X2X2X2X2X2X2X2X2X",
"2X2X2X2X2X2X2X#X].a.Y K g h h g L I a.+X>X2X2X2X2X2X2X2X2X2X2X2X",
"2X2X2X2X2X2X2X2X#X[.'.a.] Y K K P ` C.$X2X2X2X2X2X2X2X2X2X2X2X2X",
"2X2X2X2X2X2X2X2X2X2X%XQ.I.Z.Z.n.F.K.#X2X2X2X2X2X2X2X2X2X2X2X2X2X",
"2X2X2X2X2X2X2X2X2X2X2X,X&X[.%X#X:X2X2X2X2X2X2X2X2X2X2X2X2X2X2X2X",
"2X2X2X2X2X2X2X2X2X2X2X2X2X2X2X2X2X2X2X2X2X2X2X2X2X2X2X2X2X2X2X2X",
"2X2X2X2X2X2X2X2X2X2X2X2X2X2X2X2X2X2X2X2X2X2X2X2X2X2X2X2X2X2X2X2X"
};
