/* XPM */
static char *result[] = {
/* columns rows colors chars-per-pixel */
"32 32 162 2 ",
"   c #86323B",
".  c #9E5023",
"X  c #904031",
"o  c #A55B2A",
"O  c #AB6A2F",
"+  c #B26D2F",
"@  c #AE6935",
"#  c #B67732",
"$  c #B97E3E",
"%  c #B87A40",
"&  c #BC7F4E",
"*  c #AB6D53",
"=  c #A36563",
"-  c #AC716C",
";  c #B47F67",
":  c #B3796C",
">  c #A66D72",
",  c #AD797F",
"<  c #B17B73",
"1  c #BB803F",
"2  c #C78424",
"3  c #CA8C2D",
"4  c #DB9F29",
"5  c #C5863A",
"6  c #CF993F",
"7  c #CC9236",
"8  c #D89E32",
"9  c #D69F3C",
"0  c #DFA732",
"q  c #DAA33A",
"w  c #E2AE39",
"e  c #E1AB34",
"r  c #E4B23F",
"t  c #BD876D",
"y  c #BA886B",
"u  c #BFA279",
"i  c #C08044",
"p  c #C08B4E",
"a  c #CC9546",
"s  c #D29F46",
"d  c #D09C4F",
"f  c #C79A51",
"g  c #CF9E57",
"h  c #D19F5C",
"j  c #D5A44D",
"k  c #D8A84C",
"l  c #D6A344",
"z  c #DAAE55",
"x  c #D3AB5E",
"c  c #DBB25C",
"v  c #E5B543",
"b  c #E7B946",
"n  c #E8BA47",
"m  c #E3B34A",
"M  c #E9BD4C",
"N  c #E3B753",
"B  c #E7BE58",
"V  c #C18F6E",
"C  c #C69760",
"Z  c #CA9C7F",
"A  c #D6AD6E",
"S  c #DEB760",
"D  c #DFB962",
"F  c #CBA573",
"G  c #C8A07B",
"H  c #D4AE7D",
"J  c #D7B574",
"K  c #DDBA7D",
"L  c #E2BD64",
"P  c #E1BE6C",
"I  c #E1BD78",
"U  c #ECC454",
"Y  c #EAC35C",
"T  c #EFCA5A",
"R  c #E6C265",
"E  c #EDC962",
"W  c #E4C26B",
"Q  c #EBC468",
"!  c #ECCB6B",
"~  c #F2CF61",
"^  c #F0CF6A",
"/  c #EED16F",
"(  c #F3D365",
")  c #F5D669",
"_  c #F7DB6F",
"`  c #E2C272",
"'  c #EAC470",
"]  c #E9CD72",
"[  c #F2D573",
"{  c #F3D975",
"}  c #F8DB70",
"|  c #F7DE79",
" . c #FAE176",
".. c #FAE47C",
"X. c #FDE87E",
"o. c #B78885",
"O. c #BB9195",
"+. c #B8B5B3",
"@. c #C19881",
"#. c #C59E95",
"$. c #CDA281",
"%. c #D4AB87",
"&. c #C5A0A3",
"*. c #CCACA7",
"=. c #C0AFA8",
"-. c #D8BFB5",
";. c #D4B9BC",
":. c #DFC59F",
">. c #EACE83",
",. c #E6CA8B",
"<. c #EDD58B",
"1. c #F1D586",
"2. c #F5DC82",
"3. c #F5DE8B",
"4. c #E6CE94",
"5. c #E9D095",
"6. c #EED79D",
"7. c #EFDC98",
"8. c #F2DE93",
"9. c #FEEA81",
"0. c #F8E08A",
"q. c #FEEC8B",
"w. c #F9E382",
"e. c #F8E392",
"r. c #F9E892",
"t. c #F7E09D",
"y. c #DCC6A7",
"u. c #DBC4B3",
"i. c #E5D0A3",
"p. c #EEDCA6",
"a. c #EAD8A9",
"s. c #ECDDBC",
"d. c #FCEBA2",
"f. c #F2E2AD",
"g. c #F5E6B1",
"h. c #F9EDB5",
"j. c #F0E3B9",
"k. c #F6EBBC",
"l. c #FDF1B6",
"z. c #FBF0BC",
"x. c #E7D7C0",
"c. c #ECDEC7",
"v. c #E5D3CA",
"b. c #E7D9CD",
"n. c #ECDFCF",
"m. c #E7D7D0",
"M. c #EBDED2",
"N. c #EFE4CD",
"B. c #F3E7C0",
"V. c #F0E6CA",
"C. c #F5ECCD",
"Z. c #F8F0C5",
"A. c #EEE3DC",
"S. c #F7EFD5",
"D. c #F4ECDB",
"F. c #EFE7E8",
"G. c #F1E8E1",
"H. c #F7F1E3",
"J. c #F9F3E5",
"K. c #F6F1EC",
"L. c #FBF9EE",
"P. c None",
/* pixels */
"P.P.P.P.P.P.P.P.P.P.P.P.P.P.P.P.P.P.P.4.` W ] <.Z.P.P.P.P.P.P.P.",
"P.P.P.P.P.P.P.P.P.P.P.P.P.P.P.P.P.s.D L ! ! { ..9.r.L.P.P.P.P.P.",
"P.P.P.P.P.P.P.P.P.P.P.P.P.P.P.P.N.S R ! 8.g.z.q.X. .2.P.P.P.P.P.",
"P.P.P.P.P.P.P.P.P.P.P.P.P.P.P.P.J R ! ,.f x W <.e._ ) f.P.P.P.P.",
"P.P.P.P.P.P.P.P.P.P.P.P.P.P.P.N.E / >.F P.P.P.N.H [ ( E P.P.P.P.",
"P.P.P.P.P.P.P.P.P.P.P.P.P.P.P.p.! [ J P.P.P.P.P.b.L T U J.P.P.P.",
"P.P.P.P.P.P.P.P.P.P.P.P.P.P.P.f.{ ..B.P.P.P.P.P.P.W U M J.P.P.P.",
"P.P.P.P.P.P.P.P.P.P.P.P.P.P.P.p...9.h.P.P.P.P.P.P.Y M M A.P.P.P.",
"P.P.P.P.P.P.P.P.P.P.P.P.P.P.P.y.9.X...J.P.P.P.P.6.M v h F.P.P.P.",
"P.P.P.P.P.P.P.P.P.P.P.P.P.P.P.A.<.| _ [ g.S.C.>.n b v < P.P.P.P.",
"P.P.P.P.P.P.P.P.P.P.P.P.P.P.P.P.4.e.) ~ T U U b v v t ;.P.P.P.P.",
"P.P.P.P.P.P.P.P.P.P.P.P.P.P.P.P.J x 5.^ U M n v Q : , P.P.P.P.P.",
"P.P.P.P.P.P.P.P.P.P.P.P.P.P.P.5.! ! O V $.%.@.-   O.P.P.P.P.P.P.",
"P.P.P.P.P.P.P.P.P.P.P.P.P.P.p.{ { c @.m.#.- > &.F.P.P.P.P.P.P.P.",
"P.P.P.P.P.P.P.P.P.P.P.P.P.k.z...S G P.P.P.P.P.P.P.P.P.P.P.P.P.P.",
"P.P.P.P.P.P.P.P.P.P.P.P.Z.l.3.c F P.P.P.P.P.P.P.P.P.P.P.P.P.P.P.",
"P.P.P.P.P.P.P.P.P.P.P.C.d.2.z C P.P.P.P.P.P.P.P.P.P.P.P.P.P.P.P.",
"P.P.P.P.P.P.P.P.P.P.S.3.[ k p K.P.P.P.P.P.P.P.P.P.P.P.P.P.P.P.P.",
"P.P.P.P.P.P.P.P.P.J.P ^ l % G.P.P.P.P.P.P.P.P.P.P.P.P.P.P.P.P.P.",
"P.P.P.P.P.P.P.P.J.L Y a # M.P.P.P.P.P.P.P.P.P.P.P.P.P.P.P.P.P.P.",
"P.P.P.P.P.P.P.s.P B j # v.P.P.P.P.P.P.P.P.P.P.P.P.P.P.P.P.P.P.P.",
"P.P.P.P.P.P.M.L t.^ O u.P.P.P.P.P.P.P.P.P.P.P.P.P.P.P.P.P.P.P.P.",
"P.P.P.P.P.D.z 1.E s $ D.P.P.P.P.P.P.P.P.P.P.P.P.P.P.P.P.P.P.P.P.",
"P.P.P.P.K.j Q B 6 % [ 1.j.P.P.P.P.P.P.P.P.P.P.P.P.P.P.P.P.P.P.P.",
"P.P.P.P.d m m 7 @ ! ) d.| 8.P.P.P.P.P.P.P.P.P.P.P.P.P.P.P.P.P.P.",
"P.P.P.g 4 0 3 o N Y 3.| X.9.8.P.P.P.P.P.P.P.P.P.P.P.P.P.P.P.P.P.",
"P.P.P.A 8 2 . 9 v E T * I y K A.P.P.P.P.P.P.P.P.P.P.P.P.P.P.P.P.",
"P.P.P.P.; o X q w v m c.-.P.M.P.P.P.P.P.P.P.P.P.P.P.P.P.P.P.P.P.",
"P.P.P.P.P.v.P.= 5 e v y.P.P.P.P.P.P.P.P.P.P.P.P.P.P.P.P.P.P.P.P.",
"P.P.P.P.P.P.P.P.o.i 0 i.P.P.P.P.P.P.P.P.P.P.P.P.P.P.P.P.P.P.P.P.",
"P.P.P.P.P.P.P.P.P.*.i G P.P.P.P.P.P.P.P.P.P.P.P.P.P.P.P.P.P.P.P.",
"P.P.P.P.P.P.P.P.P.P.+.+.P.P.P.P.P.P.P.P.P.P.P.P.P.P.P.P.P.P.P.P."
};
