/* XPM */
static char *result[] = {
/* columns rows colors chars-per-pixel */
"32 32 197 2 ",
"   c #25541E",
".  c #265825",
"X  c #384F30",
"o  c #33672B",
"O  c #3B782C",
"+  c #2B6033",
"@  c #3C6F3D",
"#  c #3E7536",
"$  c #7B4B2D",
"%  c #416126",
"&  c #42753E",
"*  c #41693C",
"=  c #3E6247",
"-  c #3D5167",
";  c #4A7A49",
":  c #4C7954",
">  c #556F54",
",  c #406B61",
"<  c #556C7D",
"1  c #7B7F66",
"2  c #843F18",
"3  c #833916",
"4  c #95451B",
"5  c #A24C1C",
"6  c #A9521F",
"7  c #874B27",
"8  c #9A5629",
"9  c #945B39",
"0  c #AA5726",
"q  c #B45C22",
"w  c #A25D36",
"e  c #AF622C",
"r  c #BA6627",
"t  c #A56535",
"y  c #B66A39",
"u  c #BD7133",
"i  c #BE7C3A",
"p  c #C36E27",
"a  c #9E6A47",
"s  c #876D51",
"d  c #BB7D45",
"f  c #B67B48",
"g  c #AA7656",
"h  c #B37F53",
"j  c #AF7045",
"k  c #997762",
"l  c #A17D69",
"z  c #458435",
"x  c #57A038",
"c  c #518B4B",
"v  c #609043",
"b  c #658D58",
"n  c #5F9069",
"m  c #5D8971",
"M  c #6A8A6A",
"N  c #729A6C",
"B  c #6A9471",
"V  c #7CA572",
"C  c #BB8553",
"Z  c #B78558",
"A  c #B38456",
"S  c #81BE5C",
"D  c #968479",
"F  c #B68B66",
"G  c #B9946C",
"H  c #AB8D78",
"J  c #BC9674",
"K  c #C48549",
"L  c #C68747",
"P  c #CE914E",
"I  c #C48B52",
"U  c #C88E54",
"Y  c #CE9352",
"T  c #C39D7E",
"R  c #C0936A",
"E  c #1E1EBD",
"W  c #2626BB",
"Q  c #4A5989",
"!  c #4B659F",
"~  c #414CAF",
"^  c #4647BB",
"/  c #767AB6",
"(  c #1F1FC7",
")  c #2121C7",
"_  c #3737CA",
"`  c #2929D5",
"'  c #3837D6",
"]  c #1D1DEB",
"[  c #0101FF",
"{  c #0D0DF8",
"}  c #100FFA",
"|  c #1414F3",
" . c #1A1AF3",
".. c #2424EC",
"X. c #2525EB",
"o. c #3B3BE5",
"O. c #3434ED",
"+. c #3D3DE9",
"@. c #2221F3",
"#. c #2C2CF4",
"$. c #3434F1",
"%. c #3D3DF1",
"&. c #403EEE",
"*. c #3E41E4",
"=. c #4849C6",
"-. c #5358C4",
";. c #4645DB",
":. c #5857D9",
">. c #615FD1",
",. c #5C60C2",
"<. c #6E61C2",
"1. c #7774D6",
"2. c #706DD4",
"3. c #4242E2",
"4. c #4342EA",
"5. c #4B4AE8",
"6. c #5553E7",
"7. c #4444F1",
"8. c #4B4BF0",
"9. c #4847F3",
"0. c #6363E5",
"q. c #8079C6",
"w. c #6D9F9B",
"e. c #7FA299",
"r. c #7A83B8",
"t. c #929490",
"y. c #A39B96",
"u. c #A39386",
"i. c #87A987",
"p. c #99BC8F",
"a. c #8CAF97",
"s. c #B3A09D",
"d. c #ABAB95",
"f. c #9A97A8",
"g. c #9897B2",
"h. c #8F8FB6",
"j. c #A08BA3",
"k. c #A798AF",
"l. c #80ADB1",
"z. c #95AEB4",
"x. c #A6A6A9",
"c. c #B6ABA9",
"v. c #B5B2AC",
"b. c #A7A8B6",
"n. c #BFAEB9",
"m. c #ABB9BC",
"M. c #BBBCBD",
"N. c #C6A78B",
"B. c #CAB9A8",
"V. c #D3BFB1",
"C. c #C9B9AD",
"Z. c #ABD291",
"A. c #A4C0AF",
"S. c #BFCFBF",
"D. c #A4D6B4",
"F. c #BFD1BD",
"G. c #D4C0AF",
"H. c #D2C4B9",
"J. c #C8C4B9",
"K. c #8C9FCB",
"L. c #929CD1",
"P. c #919CC8",
"I. c #A29EC3",
"U. c #8EA3C9",
"Y. c #A0AEC5",
"T. c #A5BDC5",
"R. c #B5BCC2",
"E. c #B8B8C8",
"W. c #ADB0D8",
"Q. c #8F87E5",
"!. c #9AC0C9",
"~. c #BDCAD2",
"^. c #BEC6D2",
"/. c #ADC6CE",
"(. c #CEC4CB",
"). c #DDCDC1",
"_. c #D1DACE",
"`. c #CACFD3",
"'. c #D3CFDC",
"]. c #D6CFD6",
"[. c #C6D7D8",
"{. c #D5D2D9",
"}. c #D7D9DB",
"|. c #C8DAC3",
" X c #E0D0D4",
".X c #DBE4DA",
"XX c #ECE4DD",
"oX c #CADDE4",
"OX c #D0C6E5",
"+X c #E2DFE2",
"@X c #D3E3E7",
"#X c #EBE7E8",
"$X c #E4EAEB",
"%X c #E7E9E7",
"&X c #F5F5F5",
"*X c #ECF1E9",
"=X c None",
/* pixels */
"=X=X=X=X=X=X=X=X=X=X=X=X=X=X=X=X=X=X=X=X=X=X=X=X=X=X=X=X=X=X=X=X",
"=X=X=X=X=X=X=X=X=X=X=X=X=X=X=X=X=X=X=X=X=X=X=X=X=X=X=X=X=X=X=X=X",
"=X=X=X=X=X=X=X=X=X=X=X=X=X=X=X=X=X=XXXXX=X=X=X=X=X=X=X=X=X=X=X=X",
"=X=X=X=X=X=X=X=X=X=X=X=X=X=X=X=XXXT R G T V.=X=X=X=X=X=X=X=X=X=X",
"=X=X=X=X=X=X=X=X=X=X=X=X=X=X=X=XB.j C f A h G V.#X=X=X=X=X=X=X=X",
"=X=X=X=X=X=X=X=X=X=X=X=X=X=X=X].l 7 t y d A A A Z ).=X=X=X=X=X=X",
"=X=X=X=X=X=X=X=X=X=X=X=X=X=X/.x.9 7 8 d d f C f h J ).=X=X=X=X=X",
"=X=X=X=X=X=X=X=X=X=X=X=X=X%X^.y.7 2 4 e L L K C I Z C B.=X=X=X=X",
"=X=X=X=X=X=X=X=X=X=X=X=X=X~.^.f.$ 2 4 0 u P P Y I I Z J =X=X=X=X",
"=X=X=X=X=X=X=X=X=X%X|.F.i.z.m.x.D 7 6 6 r r u L K K U J =X=X=X=X",
"=X=X=X=X=X=X=X.XZ.x z ; @ a.M.H u.y.9 5 q q p r e 8 9 H.=X=X=X=X",
"=X=X=X=X=X=X~.; z S a.a.m : R.R t l y.l w 0 r 4 4 7 k =X=X=X=X=X",
"=X=X=X=X=X_.: . b *XoXw.w.= M d.u q g y.v.H g 3 3 s y.$X=X=X=X=X",
"=X=X=X=X=XV + B *X$XU.D.D.n   > H y 0 t g d.J.C.c.S.R.#X=X=X=X=X",
"=X=X=X=X=Xc : .X&X/.Y.W./.A.: . o D l j i f a k t.f.`.=X=X=X=X=X",
"=X=X=X=X=Xc N &X.XK.2.1.1.1.r., . % > s A G G v.m.~.=X=X=X=X=X=X",
"=X=X=X=X=Xp.V _.i.! -.>.0.6.6.5.Q = o o v b N i.a.$X=X=X=X=X=X=X",
"=X=X=X=X=X*Xp.b & O , 3.8.8.9.&.&.-.< ; # O & n A.=X=X=X=X=X=X=X",
"=X=X=X=X=X=X#Xt.- X o ~ +.4.8.8.8.8.6.'.$X[.T.z.[.=X=X=X=X=X=X=X",
"=X=X=X=X=X=X_.h.=.;.;.o.+.*.&.4.4.&.9.Q.OXW.b.!.@X=X=X=X=X=X=X=X",
"=X=X=X=X=X=XJ.r.^ o.o.| | @.o.&.&.+.$.#.+.6.g./.=X=X=X=X=X=X=X=X",
"=X=X=X=X=X=XB./ =.] X.| [ [ {  .%.&.$.#.` +.U.oX=X=X=X=X=X=X=X=X",
"=X=X=X=X=X=XV.h.' } ] ] { [ [ [ {  .6.' E :.Y.=X=X=X=X=X=X=X=X=X",
"=X=X=X=X=X=X].c.<.$.#. .] ] | {  .+.:.W W P.oX=X=X=X=X=X=X=X=X=X",
"=X=X=X=X=X=X#Xc.j.&.&.O.X.@.] | X.;._ W =.!.=X=X=X=X=X=X=X=X=X=X",
"=X=X=X=X=X=X=X].M.q.;.' ` O.#.@...X.) ) L.}.=X=X=X=X=X=X=X=X=X=X",
"=X=X=X=X=X=X=X=X].E.1.;._ ' o.` ` ( W >.`.=X=X=X=X=X=X=X=X=X=X=X",
"=X=X=X=X=X=X=X=X=X].E.I.1.:.;.' _ _ ,.g.}.=X=X=X=X=X=X=X=X=X=X=X",
"=X=X=X=X=X=X=X=X=X=X#X(.C.k.k.k.g.k.m.+X=X=X=X=X=X=X=X=X=X=X=X=X",
"=X=X=X=X=X=X=X=X=X=X=X=X#X].(.(.{.+X=X=X=X=X=X=X=X=X=X=X=X=X=X=X",
"=X=X=X=X=X=X=X=X=X=X=X=X=X=X=X=X=X=X=X=X=X=X=X=X=X=X=X=X=X=X=X=X",
"=X=X=X=X=X=X=X=X=X=X=X=X=X=X=X=X=X=X=X=X=X=X=X=X=X=X=X=X=X=X=X=X"
};
