/* XPM */
static char *result[] = {
/* columns rows colors chars-per-pixel */
"64 32 232 2 ",
"   c #000001",
".  c #000101",
"X  c black",
"o  c #000103",
"O  c #000105",
"+  c #000104",
"@  c #000102",
"#  c #010103",
"$  c #010205",
"%  c #000306",
"&  c #000204",
"*  c #010206",
"=  c #000206",
"-  c #000205",
";  c #000002",
":  c #010207",
">  c #010308",
",  c #010307",
"<  c #010204",
"1  c #000307",
"2  c #010408",
"3  c #01040B",
"4  c #00030D",
"5  c #00030B",
"6  c #01030B",
"7  c #010208",
"8  c #01050C",
"9  c #000309",
"0  c #000308",
"q  c #00060D",
"w  c #01070E",
"e  c #00060B",
"r  c #000409",
"t  c #01040A",
"y  c #01060D",
"u  c #01070D",
"i  c #01080F",
"p  c #00070F",
"a  c #000910",
"s  c #00050D",
"d  c #010309",
"f  c #00050C",
"g  c #00040D",
"h  c #00050E",
"j  c #00040C",
"k  c #000207",
"l  c #010810",
"z  c #01070F",
"x  c #01090F",
"c  c #01030A",
"v  c #00060F",
"b  c #010910",
"n  c #01060F",
"m  c #01050E",
"M  c #00070E",
"N  c #00080E",
"B  c #010102",
"V  c #00030C",
"C  c #00030A",
"Z  c #00060E",
"A  c #000810",
"S  c #010A11",
"D  c #010911",
"F  c #00080F",
"G  c #01040C",
"H  c #020C12",
"J  c #020B12",
"K  c #010101",
"L  c #030C13",
"P  c #020C13",
"I  c #030C12",
"U  c #010B11",
"Y  c #010A10",
"T  c #010B12",
"R  c #020B11",
"E  c #000106",
"W  c #01060E",
"Q  c #020A11",
"!  c #050E15",
"~  c #071116",
"^  c #010C11",
"/  c #040D14",
"(  c #081118",
")  c #030D14",
"_  c #020911",
"`  c #010306",
"'  c #01060B",
"]  c #01050D",
"[  c #01060C",
"{  c #02080E",
"}  c #030E15",
"|  c #040E15",
" . c #00050B",
".. c #010A12",
"X. c #00040B",
"o. c #010409",
"O. c #01050B",
"+. c #020D13",
"@. c #030D13",
"#. c #040E14",
"$. c #01040D",
"%. c #041117",
"&. c #051219",
"*. c #02060C",
"=. c #00040A",
"-. c #02070F",
";. c #030F15",
":. c #030F16",
">. c #041016",
",. c #040F16",
"<. c #040E16",
"1. c #0A161D",
"2. c #020A12",
"3. c #041017",
"4. c #02070D",
"5. c #041018",
"6. c #040F17",
"7. c #040F15",
"8. c #030E16",
"9. c #031017",
"0. c #05131A",
"q. c #041119",
"w. c #05141B",
"e. c #05141A",
"r. c #02090F",
"t. c #041118",
"y. c #05121A",
"u. c #06151C",
"i. c #06141B",
"p. c #030D15",
"a. c #020C14",
"s. c #051118",
"d. c #020B13",
"f. c #05131B",
"g. c #030F17",
"h. c #06141A",
"j. c #051218",
"k. c #061319",
"l. c #051117",
"z. c #08161E",
"x. c #07151D",
"c. c #08161D",
"v. c #09171F",
"b. c #07161D",
"n. c #06131B",
"m. c #051119",
"M. c #051018",
"N. c #06131A",
"B. c #061219",
"V. c #051017",
"C. c #030E14",
"Z. c #08161C",
"A. c #07151B",
"S. c #08151E",
"D. c #08151D",
"F. c #08151C",
"G. c #09161F",
"H. c #09161E",
"J. c #06111A",
"K. c #030A11",
"L. c #02070E",
"P. c #0A1720",
"I. c #0E1B23",
"U. c #030C14",
"Y. c #050F17",
"T. c #06121A",
"R. c #06141C",
"E. c #08161F",
"W. c #081620",
"Q. c #101D26",
"!. c #091620",
"~. c #0B1820",
"^. c #0B1821",
"/. c #0A171F",
"(. c #0A161F",
"). c #0E1B24",
"_. c #07151C",
"`. c #081621",
"'. c #091621",
"]. c #0B1720",
"[. c #0B1921",
"{. c #0C1A22",
"}. c #0D1B22",
"|. c #0D1B23",
" X c #0C1B22",
".X c #0A1820",
"XX c #0A1620",
"oX c #07141D",
"OX c #020910",
"+X c #0B1A21",
"@X c #0D1C23",
"#X c #0D1C24",
"$X c #0C1B23",
"%X c #0C1A21",
"&X c #07131C",
"*X c #091720",
"=X c #0D1B24",
"-X c #0B1A22",
";X c #09171E",
":X c #0B1721",
">X c #0E1C25",
",X c #0F1C25",
"<X c #0F1D26",
"1X c #08171F",
"2X c #07151E",
"3X c #050D14",
"4X c #050E14",
"5X c #060F18",
"6X c #061119",
"7X c #020A10",
"8X c #0C1922",
"9X c #0C1A23",
"0X c #07141B",
"qX c #061018",
"wX c #08141B",
"eX c #0A1920",
"rX c #0A1721",
"tX c #061218",
"yX c #051016",
"uX c #050F16",
"iX c #08171E",
"pX c #020810",
"aX c #040C14",
"sX c #041219",
"dX c #030B12",
"fX c #020A13",
"gX c #000407",
"hX c #01050A",
"jX c #01070C",
"kX c #02080F",
"lX c #010001",
"zX c #010104",
/* pixels */
"  . X X X X X X X X X X X X X X X X X X X X X X X X X X X X X X X X X X X X X X X X X X X X X X X X X X   o O O O O O + o o o o ",
"  X X X X X X X X X X X X X X X X X X X X X X X X X X X X X X X X X X X X X X X X X X X @ # # @   . @ o o o o o o + o o o o o o ",
"o @   X X X X X X X X X X X X X X X X X X X X X X X X X X X X X X X X X X X X X X X X   o $ % O + o o o o o o o o o o o o o + O ",
"@ o @ o   X X X X X X X X X X X X X X X X X X X X X X X X X X X X X X X X X X X X X X   o & $ * = - O o o o o o o o o O $ = O o ",
"X X X @ o @ X X X X   @ @ @ o o @ X X X     ; @ o     X X X X X X X X X X X X X X X X X X X @ : > , , - o o o o o o + O O O o o ",
"X X X   @ o X X X X o + $ $ > > = < < #   X X @ ; X X @ o & & * 1 2 > > = @ X X @ @ X X   @ - 3 4 5 6 7 + o o o o + O O + o o o ",
"X X X X X X X X X   o o O : 8 9 0 q w e r % @   X   + t 8 y u i p a q s s r - = d 9 > : d 3 f g h h j k o o o o O O O o o o + + ",
"X       X . X X @ @ o o - , d % d l z p x y 3 1 < $ c g h p v b a a p n p p s s m m m m M p N M s g 0 O o o o + O * * = + + O O ",
"o o o + < o o B B o + O 9 g V % k , 0 C z b a Z c , 7 c j g s A S S D D a A i F a A a D a a S b F h G = O O + + = * * 1 % = O O ",
"o o o $ * * O + o o + O = C 9 = O + + O C s D S b y > , C j Z D H J H S A p b a A a S S S a S S A g 5 , = O < O = d 1 % % = O O ",
"X K @ + O O = - + o o o o + + + o o o * 9 c z J S S w 8 G 4 l J L P I L J U S S i Y S U U T R S S h G d , O * % % = = = = = = + ",
". . . o + O * E d O o o o o o + o o o * 1 7 G s s h i W z Q J L ! L L L L J b z J ~ P H ^ S J l p l h c : = : O O = > d : % = - ",
"o o + + + o o O : : * * $ o + + + o o = 1 , % , = 0 d d z L L / / / ( ) L J 3 c _ l b b H S T s f Z g 0 % % ` k ' ] s ] t > 1 % ",
"o O c [ 1 - + o o - % , > = O + + o o * 5 > : ` * O O - 1 t y { L ) } | J z j j m W h S L J J U Q D ] > > t  .z U Y h h s 5 V d ",
"> > 8 ..i k = o o o $ 7 X.y o.& o o o : 3 d - - + o + + O * , O.z n R +.H L J J @.) ) #./ J p b p D h 5 W W b b S $.j C 9 1 % > ",
"J / %.&.L s h 3 o.*.> , , > X.=.> O + + 1 o.* + o o O c X.5 -.) ;.} :.>.>.,.) L L L J | <.) L L S J Z $.C t y J L ] > ` , , 0 > ",
":.i ,.1.| 2.2.) 3.| z =.9 C 3 p 3 > > > 1 = 0 y w 4.> 1 1 , W ,.5.6.>.,.3.3.L a n s z } ,.} 7.7./ | J Q Q 8.9.| z $.5 d > > G Q ",
"0.} L q.w.0.0.0.e.0.q.,.8.P ) J ,.:.9.) z > d j _ | | r.u d 8 P } 7._ l L 3.,.) P 2.) t.q.q.y.t.t.5.t.q.&.q.q.,.J J b b i i D ) ",
"u.u.i.0.i.u.u.u.u.w.0.w.w.w.0.&.,.p.a.8.s.| i l 3.y.L z h W X.h S d.I ) L s.i.f.0.g.&.e.0.0.h.j.j.j.j.k.j.j.&.&.s.s.t.t.l.5.t.j.",
"z.x.x.x.x.x.x.c.x.x.v.b.u.u.u.w.0.f.t.p.,.,.&.y.x.n.w 9 0 w l.m.M.N.B.,.V.f.&.,.,._ l 2.C.q.0.j.0.0.0.0.e.w.w.Z.A.0.0.0.0.0.0.0.",
"S.S.z.S.S.S.S.S.S.S.S.S.S.S.z.x.S.D.x.z.z.F.F.G.G.H.J.K.L.K.B.G.P.G.D.H.H.I.D.N.,.U.) Y.T.R.u.w.w.w.w.w.w.u.u.b.u.w.w.w.w.w.0.t.",
"E.z.E.E.z.E.G.G.W.E.E.G.E.Q.E.E.W.G.!.P.P.~.^.^.^.^.P./.(.P.P.H./.G.P.~.^.).~././.G.G.G.G.S.x.x._.u.b.u.u.u.u.u.e.i.i.w.y.) _ Q ",
"!.!.!.!.!.`.`.!.'.!.!././.I.P.P.P.].^.^.^.[.[.[.{.}.|. X X X{..XH.c.~.[.^.~.P.^.^.~.^.^.P.XXG.G.S.z.D.oXn.V.) OXw l _ 3.w.0.e.i.",
"P./././.P.P.P.P.P.~.P.P.~.P.].^.^.^.^.[.+X{. X X@X@X#X@X@X#X@X@X|.|.$X X{.%X[.{.+X[.[.^.^.P.G.S.oX&XT.&.V.,.:.} ,.t.&.i._.b.u.u.",
"*X*XP.P.P./.P.^.^.^.^.^.^.^.^.^.^.[.{. X X@X|.=X=X=X=X=X=X=X=X=X=X=X=X=X#X@X@X@X X X X-X[.~.P.P.G.S.S.S.S.S.D.D.D.x.x.D.x.x.;Xu.",
"z.G.E.W.W.*XP.P.P.P.P.~.:X^.^.^.^.^.[. X@X@X=X=X=X=X).>X,X,X,X,X,X<X,X>X>X=X=X=X=X#X@X@X X[.^.^.P.!.W.1Xz.S.S.S.S.S.D.S.2Xx.u.u.",
"3X4XY.5X! | 6XS.H./.P.*XXX!.P././.~.^.[.{. X X@X@X@X#X>X=X).>X>X>X>X>X).=X=X=X#X#X@X X{.+X[.^.^.^.P.E.z.S.S.S.S.S.z.D.x.x.u.u.u.",
"P Q 7XL / 7.s.0.0.R.x.x.x.u.x.z.E.G./.P.].^.8X{.{. X X$X$X|.|.$X|.9X{.~.0XqXwX/.eX[.[.^.^..XrXrXG.G.S.x.c.S.x.b.S.x.x._._.u.u.u.",
"t.q.q.q.t.t.s.&.tXj.0.0.0.0.f.i.u.R.u.u.x.S.H.G././.v.P..XP.P./.G.x.S.0.yXuXy.w.u.z.z.iXz.S.S.2Xx.u.i.i.i.R.R.w.0.y.N.i.0.0.0.&.",
"pXOXQ R I I ) aXL J L #.#.p.) #.| ,.,.3.m.q.&.y.&.&.0.0.0.y.0.0.&.sXt.3.p.) ) | @.L dXI dX2.OXi OXQ a.I L U.fXD b b L } ,.| 7.7.",
"= % % % % % % = $ ` gX2 2 hXO.' O.O.jXkXOX7XR R L L d.Q _ J +.T Y w f ] 8 7 % % % % , c d ` % ` % % % , : 0 C X.g g s l W _ i m ",
"  X     lXX X X X X X   B - & $ % + + O E * * , , > c 6 j G b G X.d d , 1 % % t > % k w t O O * * = $ - < $ zX= % % % 2 o @ zX$ "
};
