/* XPM */
static char *result[] = {
/* columns rows colors chars-per-pixel */
"64 32 107 2 ",
"   c #950500",
".  c #970B02",
"X  c #990C01",
"o  c #961205",
"O  c #9C1403",
"+  c #9E1905",
"@  c #96150B",
"#  c #9A1709",
"$  c #9C1C0B",
"%  c #971F12",
"&  c #A11501",
"*  c #A41B02",
"=  c #AA1D00",
"-  c #A01C08",
";  c #B31F00",
":  c #9C200E",
">  c #972214",
",  c #9C2614",
"<  c #9D2916",
"1  c #962619",
"2  c #942A1E",
"3  c #9A2C1C",
"4  c #9F301B",
"5  c #A62006",
"6  c #AC2300",
"7  c #AE2901",
"8  c #A2240C",
"9  c #A82509",
"0  c #A52A0D",
"q  c #AC2E0C",
"w  c #B42400",
"e  c #B92600",
"r  c #B32C00",
"t  c #BC2B00",
"y  c #AF310D",
"u  c #B63100",
"i  c #BB3400",
"p  c #BD3A00",
"a  c #B4360C",
"s  c #A02611",
"d  c #A32C14",
"f  c #AA2E11",
"g  c #A02E19",
"h  c #AD3411",
"j  c #AE3B16",
"k  c #A2311B",
"l  c #A93718",
"z  c #AB3A18",
"x  c #C12E00",
"c  c #C33300",
"v  c #C33B00",
"b  c #C93B00",
"n  c #C54200",
"m  c #CB4400",
"M  c #C74900",
"N  c #CC4C00",
"B  c #D14D00",
"V  c #CD5200",
"C  c #CF5C00",
"Z  c #D35300",
"A  c #D55B01",
"S  c #D95E00",
"D  c #D66200",
"F  c #DB6400",
"G  c #DD6B01",
"H  c #DE7401",
"J  c #E06700",
"K  c #E16C00",
"L  c #E37400",
"P  c #E97600",
"I  c #E57C01",
"U  c #EA7C00",
"Y  c #E58203",
"T  c #EB8401",
"R  c #E68A05",
"E  c #EA8B02",
"W  c #E68D0B",
"Q  c #E98C09",
"!  c #F28B01",
"~  c #EE9303",
"^  c #EF9A06",
"/  c #EA950A",
"(  c #EE9D0B",
")  c #F39301",
"_  c #F39C01",
"`  c #F99C00",
"'  c #F09D0A",
"]  c #F5A302",
"[  c #FAA401",
"{  c #F7AD06",
"}  c #FAAC01",
"|  c #F3AC0B",
" . c #FBB403",
".. c #FCB903",
"X. c #F6B309",
"o. c #F8B50A",
"O. c #FBBD0A",
"+. c #EFA711",
"@. c #F1AE16",
"#. c #F2AF1C",
"$. c #F4B214",
"%. c #F3B91F",
"&. c #F3BB22",
"*. c #FCC20E",
"=. c #FCC612",
"-. c #F9C822",
";. c #F4C530",
/* pixels */
"c c c b c b c c b x c b c b c b c c c v c v c c c i x t i t t t t t e e e w w w w w ; ; ; ; ; ; ; ; ; e e e t t t x x t x c c b ",
"c c c c c c x c b x c b c c c c b c v c v c c v c i c c t t t t e t t t t t e e w e w w e w w ; ; e w e e e e t t t t t c v b b ",
"c c c c c c c c x b x x c c c c c c c c c c c c c c i x e e e e e t t t t x t t t x t t x t t w e ; e ; w e e x x t x c c b b b ",
"c c x x x x x x x x x x x x c c c c c c c c c c c c x t t t e e w t t t t t t t t t x t x t x e x x e ; w w t t x c c b b b b b ",
"c x x c x x x x x x x x x x x x x x c c x c x c t x x t x e t e e e e x t e e x t e t e t t t e e e e w e t t t x x c c x c c b ",
"b c c b x x x x x x x x x x x x x x x x x x c c c x x x e x e t x e e e e t e x x c c c c c x i x x e t t t x x c c c c c b b b ",
"b b b b b b b b b c b x x x x x x x x x x x x x c c c x x x x x x ; e e e x c c v b b v v b c c c x x x c x c b c c b b b b b m ",
"B B Z Z S Z Z S B B b b x x x x x x x x x x c c b m m m c c v b c x x x c m N B B A A A Z m M m m m m N B B B Z B Z Z Z Z A S S ",
"N N N Z Z N V V b B B Z m m m b i v b b m m m B A F F S Z A Z Z B N m Z A G H H G H L L K G F G F F F F F G K K K K J K K J K L ",
"G F D F F D A C Z S F G I I L G G G A F F F H H I R T L H Y R R Y U I T Q L H W R T I I Y T T T I I I I U I U T T ! T T T ! E ! ",
"M A A D G G D D J A A C A I Y L T T I P P W ~ / W +.Y H R @.&.%.;.&.&.+.Q Y Q / Q U K A K U U Y T U T T T L I T ! ) ) ) ) ` ` _ ",
"n n M V D G H H L L L H I I U Y T T E _ ] X.| ] ^ ' | ^ ( ( #.$.#.&.-.o.) ^ ] { _ Q U L G F G S A Z D Z A F G L P K J U ! ! ! T ",
"M V M C C G H H Y T E ~ ~ ^ ] ] [ }  .O. .} =.=.O.*.O.' ~ Y T Y L I W / ) ) ^ ! P K K K G G F F F S A Z V D D G A G G G P F J L ",
"C C C C D G H H R ~ _ _ ] } } }  . . .} ....O.*. .=.[ [ Y G G A G V V A v Z V Z M M V M N A F A Z A F D C C N N V M M V F L G G ",
"G H H D G H G G Y E [ [ } } [ [ [ ` ) T L H L G G K ) _ T D D A N A K J A V M n M M M m M N N M p p n n p p p u a n p p n V D F ",
"I I I H L H G L I ) ` ` ` ) ! Y L F G L T L K K F G K F A n p p n n N B B i r 6 r u u i i p i r 7 6 7 a u p n n p n n u n p u p ",
"P L G F F U U T ! ! U U P P K J J F J P U U P J D A A C M M n n N m M n n i r r r 7 r u 7 u u 6 6 7 r 7 6 6 7 u u p p n p n n n ",
"F G P L L J K P U U U P U P P P F J J F J K J F A Z V V M M n v v v n n M v u i p i i 7 6 6 r r u r 6 6 7 u u 6 6 6 6 u p u 7 7 ",
"A S S J J S S S A F F S S S S J J J J F S S Z Z N V N M M m N N M n m n n n n v p v p r 6 6 9 w r u 7 u r u u u u u u 7 7 7 u p ",
"N B Z A Z B m N m m v n B S S B N N v m m n n m n p p i i p p n N N N m n n v v m n n n p i u r u p p p p u r p p p p p p p u 7 ",
"i i v n v v i t v v v v v p i i r r r r u r u r r 7 r u u r r u v p i p v i i i i i v v b v m n p p i i u r u u u 7 7 7 u u p u ",
"i i i i i t t i i i i r r r r r r r r 7 6 r u u u r u u 7 6 6 7 i r 6 6 9 = = = 6 = w 6 = w 7 p p n p p p u u u u u u 7 5 5 6 7 ",
"w t e r t t t t t e r 7 w 7 r r 6 r e 7 r u u r u u u 7 r r u r r u u r r 6 6 6 * = * * & X O - 6 i n n n v p u 7 6 6 7 7 7 6 5 ",
"w w r e e t i i u i t 6 6 6 = 6 6 i p p i i r r u 7 6 * 6 6 6 6 r i r r r 7 6 6 6 9 * & O X . X O O 7 i v i v v p u u 7 u 7 7 u ",
"w w e u e r t i i i i r r r 7 r i u p i i i r r 7 6 7 7 7 r r 7 u r 6 6 O O O * - = - O X X . . . X & * 6 i i i p p p u w 6 6 6 ",
"w e t t r e r c v i i i v v v n v p p i i p p p u r r 7 6 * 6 9 q 6 7 6 * O o # o - - - # X X . X . . O O * 6 r i i r e r e 7 6 ",
"w w e r e r c t c v v v c i i t i p n v v p p c v p u u u r 7 9 5 * O 6 9 - + # @ @ # $ $ - X o X o o o O O O * 6 e i r w 6 6 6 ",
"w r 7 w r e t t t i r w = = = = * 6 6 r i p i p p i i r 7 7 q y 0 - O : 5 9 9 0 $ % $ % s s s - # - O O O O O O & * 6 r u e w = ",
"6 = = ; = = = = 6 6 ; = & X X X O O & & * * = 6 r i p p i p a a y 9 - # # $ % s s , , , < : s 0 8 - - - + + + O O O & * 6 e e r ",
"= 6 ; = = = = = = = & & X X X       . X X O O & * * 6 r u a a h y a q 0 8 $ % > , , d , < < < s s 8 8 - + + + + O O O O O * 6 r ",
"w 6 6 6 = = * = & & X X             . X X O O & O O O O 8 0 h j l f h f d s , 1 2 2 3 4 d 3 g d d d s 8 : + # o + + O O O O * 6 ",
"= w w 6 6 = = & & X X                 . X O O O O O + 8 $ % , < k j j j l k 3 2 2 2 2 2 4 k k d k d d s , : $ # o o o o + * O & "
};
