/* XPM */
static char *result[] = {
/* columns rows colors chars-per-pixel */
"64 32 139 2 ",
"   c #3C6597",
".  c #3C6699",
"X  c #3E689B",
"o  c #406799",
"O  c #426A9C",
"+  c #4A709F",
"@  c #456EA0",
"#  c #4C75A6",
"$  c #547BA9",
"%  c #6084AE",
"&  c #768EAD",
"*  c #6B90BB",
"=  c #7695BB",
"-  c #7B97BA",
";  c #7B9CC2",
":  c #66A3D7",
">  c #68A5D8",
",  c #79A6D2",
"<  c #70ABDA",
"1  c #879CB7",
"2  c #849CB9",
"3  c #84A1BF",
"4  c #89A1BF",
"5  c #92A5BD",
"6  c #86A2C2",
"7  c #8BA5C2",
"8  c #8EA9C6",
"9  c #91A7C2",
"0  c #93AAC5",
"q  c #9CADC4",
"w  c #93ADC9",
"e  c #9FB0C5",
"r  c #97B1CE",
"t  c #9DB2CB",
"y  c #8FB5D7",
"u  c #96B2D0",
"i  c #9CB6D2",
"p  c #9FB9D4",
"a  c #92BADD",
"s  c #9CBCDA",
"d  c #A2B1C5",
"f  c #A3B5CB",
"g  c #A8B7CA",
"h  c #A6B8CE",
"j  c #ACBACD",
"k  c #B1BECE",
"l  c #A3BBD4",
"z  c #AABED3",
"x  c #B2BFD0",
"c  c #84BEE6",
"v  c #8BBEE4",
"b  c #93BEE1",
"n  c #B6C0CF",
"m  c #ACC0D6",
"M  c #A5C2DC",
"N  c #ACC4DB",
"B  c #AFC8DF",
"V  c #B4C2D3",
"C  c #BAC5D4",
"Z  c #BFC8D6",
"A  c #B2C6DA",
"S  c #B4C9DE",
"D  c #BBCBDC",
"F  c #8BC7EB",
"G  c #8FC9EC",
"H  c #9EC5E5",
"J  c #93CEEF",
"K  c #9ACDEB",
"L  c #95D1EF",
"P  c #9ED0EE",
"I  c #97D2F0",
"U  c #99D2F0",
"Y  c #A4C5E1",
"T  c #AAC7E0",
"R  c #A6CAE5",
"E  c #ADCAE2",
"W  c #A3CBE9",
"Q  c #A8CEE9",
"!  c #B3CCE2",
"~  c #BBCEE1",
"^  c #A3D2ED",
"/  c #ACD4EC",
"(  c #B2D1E7",
")  c #BBD2E5",
"_  c #B4D3EA",
"`  c #BAD5E9",
"'  c #B7DBEF",
"]  c #BDD9EC",
"[  c #ABD7F0",
"{  c #ACDDF3",
"}  c #B4DCF2",
"|  c #BBDDF2",
" . c #B2E1F4",
".. c #B8E0F4",
"X. c #C2CAD7",
"o. c #C3CDDA",
"O. c #C8CFD9",
"+. c #C6D1DE",
"@. c #CBD3DD",
"#. c #D1D6DF",
"$. c #C4D3E2",
"%. c #CBD6E3",
"&. c #C6DBE5",
"*. c #CCDAE6",
"=. c #C0D6E9",
"-. c #C4DBEB",
";. c #CCDCEA",
":. c #D1D7E0",
">. c #D3DAE4",
",. c #D9DEE5",
"<. c #D4DEEA",
"1. c #C3DFF1",
"2. c #CDE1ED",
"3. c #DCE1E7",
"4. c #D4E3ED",
"5. c #DBE3EB",
"6. c #DAE8EF",
"7. c #C4E3F3",
"8. c #CCE4F2",
"9. c #C2E9F7",
"0. c #CEEBF7",
"q. c #D3E6F2",
"w. c #D9E7F1",
"e. c #D5E9F3",
"r. c #DDEBF4",
"t. c #E2E6EC",
"y. c #E5E8EE",
"u. c #EAEBEF",
"i. c #E0E7F0",
"p. c #E3EDF4",
"a. c #EAEDF2",
"s. c #E3EFF8",
"d. c #E5F0F6",
"f. c #EBF1F5",
"g. c #E5F1F8",
"h. c #ECF3F8",
"j. c #F2F4F6",
"k. c #F4F6F9",
"l. c #FAFAFB",
/* pixels */
"l.l.l.l.a.~ 6 >.i.= . . . . . X 2 o f >.k 0 1 & 5 d d e q q q d q q d k #.t.u.t.O.O.@.X.#.u.u.t.,.#.#.O.x x X.C j X.3.y.#.C k d ",
"l.l.l.l.a.a.i.i.i.,.3 @ . X . . @ @ q x x j d 5 5 g d q q q q d d d g k #.#.#.O.X.X.O.X.#.u.u.t.3.,.#.O.O.x j j d X.:.O.C k g q ",
"l.l.l.p.z %.%.D x ~ i.o.; @ @ . @ - z x e d d f x g e q q d d f j k n #.3.n q g x X.X.:.t.u.u.l.j.u.#.X.x x j j k O.X.x k j d q ",
"f.l.l.z ~ l * ; 8 u <.a.a.6 # $ $ $.>.@.X.g e j k g d q q d g k x n X.#.#.q 1 n C X.k ,.u.#.j.l.j.,.X.C x x j j x O.x k g g d j ",
"! a.l.%.! <.! <.j.j.j.k.k.%.; # C a.<.,.o.x g x X.k f q d x O.Z X.x j X.X.k d X.o.O.C o.C j ,.t.3.#.@.O.X.x x x X.X.x g g g g h ",
"w.5.j.a.w.i.,.~ u.l.l.l.j.:.~ z t.t.:.%.C x j x X.j f e d x >.<.X.k k x k d d O.O.X.%.@.O.o.o.o.,.3.#.#.X.x x x g d t e t d t t ",
">.,.h.i.,.,.%.! +.<.k.k.<.+.i.a.i.t.o.x h h t h k f d f 3 X.3.,.@.@.:.3.:.x X.O.X.o.:.O.+.@.O.O.O.#.X.x j d g f 0 0 0 e t t q 0 ",
"~ $.*.>.o.A l z z x >.a.~ <.+.@.t.a.<.D x h f h h t q f 9 z >.3.3.a.a.j.i.X.k x X.>.,.>.:.:.o.x k j d d q 7 0 9 9 9 9 0 0 0 9 7 ",
"$.*.*.o.M l m z z z A <.j.*.A z %.,.>.,.t.:.C h h f t t t f x :.y.t.t.:.o.x x +.%.>.a.y.%.x x h g t 7 4 4 7 7 7 4 4 7 7 7 6 2 6 ",
"$.<.i.*.A m m z z ~ o.<.,.+.o.z z %.<.i.j.k.+.z h z z l j z o.%.,.:.O.C x x $.,.>.,.>.O.C t f f t q 0 8 8 8 8 6 6 6 6 6 6 6 6 6 ",
"$.$.%.$.N N A A N ~ :.a.i.$.~ A z >.i.<.a.t.x z z z z x x o.o.o.,.i.>.@.o.o.t.a.i.%.X.x f w 0 0 w q w 0 0 8 8 7 7 8 8 w w w 8 w ",
"S N N ~ S A N B ! A %.<.i.i.<.o.x i.j.u.i.+.~ +.%.:.o.$.o.~ +.i.,.,.t.,.:.$.>.%.o.x z h t w 0 0 w w w 8 w 8 w w w w l l l i u u ",
"N Y N T N A B o.o.$.$.$.%.*.a.f.,.<.k.a.<.%.>.>.*.,.%.$.o.x *.i.%.%.,.,.$.C x x z z z f f f l i l t r r w w u u l N N z l p u u ",
"M m N N T N B S ! ~ $.=.+.~ *.j.k.h.k.k.i.a.a.i.<.u.%.~ %.<.i.:.D A $.*.%.o.D ~ D x z o.D ! x z l l l l l l z z z z z l l u p u ",
"Y M M Y T T B B B B $.%.$.~ %.p.a.%.$.~ *.a.k.i.p.i.>.$.! z A N z $.<.w.k.5.*.%.~ A +.%.~ D A S A A D +.~ A N z l l i p l s l l ",
"E T Y T B ! ! B B ! =.*.=.<.5.p.5.=.$.*.$.$.$.z ! ~ $.%.*.*.%.o.! o.,.$.~ <.w.k.i.t.%.! z z A A A N $.t.i.*.A z l s l s N $.*.<.",
"! ! ` ! ! ! =.;.&.2.5.-.~ ) <.p.<.h.k.a.*.~ ;.~ ! ! ~ <.i.,.i.5.$.i.<.! , w.a.>.~ $.+.! N m m l z z -.l.a.5.~ z N M =.h.k.l.p.<.",
"` =.;.w.w.f.j.q.6.d.4.) ~ -.<.p.k.a.p.k.;.E =.<.<.<.,.r.-.r.` Y a _ ;.( p.a.*.! ! ~ T s T y 4.;.*.r.l.a.<.~ ! S =.<.<.,.t.,.*.~ ",
"2.w.i.w.w.s.j.s.6.2.7.] ` -.w.j.h.h.j.1.q.-.*.<.w.h.1.H W < > : b H w.f.=.E T T ! ~ <.s.4.-.5.*.5.<.<.5.$.~ *.! N N Y M Y l l Y ",
"r.g.s.1.1.=.=.=.) 2.6.f.8.g.| 7.w.s.8._ } c H ' j.k.8./ 1.Q v Q i.j.i.<.! ~ ( Y Y R <.<.-.R ] ` _ Q ;.-.! ! ! T T T E T T Y R ! ",
"s.s.r.q.q.r.8.w.f.h.h.p.6.p.r.r.| | P G v ^ | e.w.w.p.r.7.8.6.d.Q 1.s.s.1.-.i._ ;.-.q.f.d.6.4.&.=.1._ Q W 1.1.] r.p.a.w.` -.;.-.",
"8.e.8.7.1.1.1.q.d.h.p.e.8.8... .{ U I I I J J J ^ [ 7./ ' P ^ 0.q.q.f.h.j.j.k.h.f.w.i.s.6.] ( E R ! E ! Q ' a.q.w.2.` ( ` -.<.;.",
"8.0.0.q.s.g.g.s.0.0.9. . .{ { {  .} { { { { [ | 0.g.d.d.d.r.0.p.s.s.s.s.s.s.e.;.;.1.=.] ` ( ( / -.1._ Q 8.K ' W K K _ ^ w.a.p.q.",
"q.0.q.q.q.e.s.g.9.9.9...0.0.s.e.r.r.s.s.k.s.r.e.8.8.0.e.r.d.d.8.1.w.s.i.r.w.s.e.i.h.f.1.e.p.d.4.r.i.q.q.p.q.i.r.w.2.;.q.q.i.i.q.",
"s.g.s.g.p.s.h.h.h.g.g.g.d.r.g.d.s.s.h.h.d.r.r.e.e.0.0.r.e.e.e.e.w.w.r.g.e.e.6.2.8.q.8.2.6.6.e.2.] ] ] 2.2.&.7.] -.-.] ] 2.2.] &.",
"p.s.f.f.d.d.d.d.d.d.h.g.d.d.d.h.h.g.g.g.d.d.g.h.g.g.d.d.d.6.r.r.s.s.s.w.e.q.e.e.8.8.4.0.e.e.4.6.6.6.4.2.2.4.2.2.2.2.2.7.&.] ] &.",
"f.u.f.f.f.u.f.f.f.f.f.f.f.f.d.d.f.f.h.f.f.f.d.d.d.a.h.d.u.d.d.p.p.i.i.p.6.6.6.6.6.6.6.4.4.4.4.4.4.2.&.2.2.2.&.2.&.&.@.@.&.&.&.&.",
"d.f.d.d.f.d.d.g.d.d.d.h.f.d.d.d.f.f.g.g.d.d.d.g.d.d.d.d.d.d.d.p.p.p.p.a.d.p.r.y.r.y.6.6.6.6.6.4.6.4.4.,.4.4.4.4.2.2.2.2.&.<.<.&.",
"d.p.d.d.s.d.g.p.d.d.g.g.g.s.s.s.g.g.s.s.s.s.s.s.d.d.s.s.p.g.g.g.p.d.d.p.d.d.d.r.p.p.r.d.d.r.r.r.6.p.r.r.r.w.r.r.r.r.6.r.p.6.6.r.",
"p.p.d.g.d.p.g.g.p.p.p.g.r.s.s.s.g.r.s.s.s.r.s.s.p.r.p.p.r.r.r.g.r.s.r.d.d.r.r.r.r.s.r.r.r.r.r.6.6.6.r.6.r.w.w.w.6.6.e.6.6.6.e.e.",
"r.r.d.r.r.p.r.p.p.p.r.g.r.s.r.s.r.r.r.s.r.r.r.r.r.r.r.r.r.r.r.r.r.r.r.r.r.r.p.r.r.r.r.r.r.6.6.r.6.e.e.6.6.6.6.6.e.q.6.4.6.e.6.e.",
"r.r.r.r.r.r.r.p.r.r.r.r.s.r.r.r.r.r.r.r.r.r.r.r.r.r.r.r.r.r.r.r.r.r.r.r.r.r.r.w.w.w.w.w.6.q.4.e.6.6.6.e.6.q.q.4.4.q.e.4.4.4.4.4."
};
